<svg xmlns="http://www.w3.org/2000/svg" viewBox="0 0 64 64"><defs><style>.cls-1{fill:#bfe0cf;}.cls-2{fill:#fff;}.cls-2,.cls-3{stroke:#009b98;stroke-miterlimit:10;stroke-width:0.27px;}.cls-3{fill:none;}.cls-4{fill:#009b98;}</style></defs><g id="Capa_4" data-name="Capa 4"><circle class="cls-1" cx="31.96" cy="32.2" r="31.04"/><circle class="cls-2" cx="32.14" cy="31.92" r="29.47"/><circle class="cls-3" cx="31.19" cy="33.67" r="29.47"/><circle class="cls-3" cx="32.73" cy="30.16" r="29.47"/><path class="cls-4" d="M50,39.75q-4.47,4.81-8.15,4.82a3.69,3.69,0,0,1-3.41-2.16,12.17,12.17,0,0,1-1.17-5.78,35.7,35.7,0,0,1,1.15-7.69,32.32,32.32,0,0,1,3-8.23l1.16-2.08a22.92,22.92,0,0,0-3.9,5.42Q37.11,27,35,32.3a68.34,68.34,0,0,1-3.19,7.21,22.35,22.35,0,0,1-2.06,3.13A5.75,5.75,0,0,1,28,44.21a7,7,0,0,1-2.69.36c-.49,0-.74-.14-.74-.4,0,0,.09-.45.26-1.26A37.44,37.44,0,0,0,25.35,39c.19-1.79.32-4.84.4-9.13a32.68,32.68,0,0,1,1.88-11q-1.89,2.13-3.84,10l-.5,2q-2.07,8.13-4.72,11t-5.23,2.85a4.26,4.26,0,0,1-2.78-1,2.94,2.94,0,0,1-1.2-2.3A3.31,3.31,0,0,1,10.8,39c1-.83,1.57-1.24,1.82-1.24a.57.57,0,0,1,.58.3,9.51,9.51,0,0,1,.36,1.65,3.17,3.17,0,0,0,.67,1.76,1.64,1.64,0,0,0,1.13.41q1.55,0,3.41-3.09a35.32,35.32,0,0,0,3.41-9.54l.58-2.42a39.31,39.31,0,0,1,1.38-4.72,20.85,20.85,0,0,1,1.8-3.51,12.11,12.11,0,0,1,2-2.69,5.07,5.07,0,0,1,1.39-.28,19.88,19.88,0,0,1,2-.11c.27,0,.4.15.4.46a6.49,6.49,0,0,1-.12.9,39.07,39.07,0,0,0-.38,5.61l0,5.36a43.74,43.74,0,0,1-1.11,11.29c.7-.85,1.73-3.05,3.07-6.59a67.57,67.57,0,0,1,5.32-11.31,20.65,20.65,0,0,1,2.75-3.49A6.43,6.43,0,0,1,43.55,16a19.65,19.65,0,0,1,3.58-.4q.54,0,.54.3A6.5,6.5,0,0,1,47,17.77a53.79,53.79,0,0,0-2.9,9.51,46.74,46.74,0,0,0-1.35,9.55c0,2.68.81,4,2.45,4,1.34,0,2.92-1.13,4.76-3.4Z"/><path class="cls-4" d="M42.34,6.6c.43-.63-4.07-2.72-6,.82C36.38,7.42,39.89,10.21,42.34,6.6Z"/><path class="cls-4" d="M48.09,9.48c.44.49,3.25-2.34.52-5.16C48.61,4.32,45.56,6.7,48.09,9.48Z"/><path class="cls-4" d="M41.85,10.32c-.24.61,3.54,1.84,4.84-1.87C46.69,8.45,43.19,6.8,41.85,10.32Z"/><path class="cls-4" d="M46.15,11.61c-.16.41,2.36,1.23,3.22-1.24A2.29,2.29,0,0,0,46.15,11.61Z"/><path class="cls-4" d="M44.8,7.49c.62.2,1.64-3.65-2.14-4.72C42.66,2.77,41.22,6.35,44.8,7.49Z"/></g></svg>