<svg xmlns="http://www.w3.org/2000/svg" viewBox="0 0 446.60685 464.1663"><defs><style>.cls-1{fill:#e0e0e0;}.cls-2{fill:#f5f5f5;}.cls-3{fill:#ebebeb;}.cls-4{fill:#fafafa;}.cls-5{opacity:0.3;}.cls-6{fill:#fff;}.cls-7{fill:#263238;}.cls-8{fill:#455a64;}.cls-9{fill:#97dece;}.cls-10{fill:#439a97;}.cls-11{fill:#ffbe9d;}.cls-12{fill:#eb996e;}.cls-13{opacity:0.6;}</style></defs><g id="Background_Complete" data-name="Background Complete"><path class="cls-1" d="M298.65869,471.249c0,2.7369-17.443,4.9555-38.96,4.9555-21.5171,0-38.9601-2.2186-38.9601-4.9555,0-2.7368,17.443-4.9554,38.9601-4.9554C281.21569,466.2936,298.65869,468.5122,298.65869,471.249Z" transform="translate(-28.42542 -18.9978)"/><path class="cls-2" d="M183.01019,150.1791a42.25423,42.25423,0,0,1,10.31081-4.4812l2.124-10.2062,17.24369-.3023,2.4815,10.1241a42.23486,42.23486,0,0,1,10.463,4.1161l8.715-5.7126,12.4071,11.9799-5.4017,8.9085a42.22416,42.22416,0,0,1,4.4808,10.3134l10.2051,2.1238.303,17.2435-10.1244,2.4822a42.25856,42.25856,0,0,1-4.1159,10.4616l5.7115,8.7156-11.978,12.4074-8.9096-5.4021a42.23847,42.23847,0,0,1-10.3126,4.4805l-2.1244,10.2062-17.24309.3026-2.482-10.1251a42.26564,42.26564,0,0,1-10.462-4.1161l-8.715,5.7126-12.40731-11.9794,5.4018-8.9089a42.2326,42.2326,0,0,1-4.4814-10.3126l-10.2055-2.1239-.30259-17.2433,10.12479-2.4827a42.29057,42.29057,0,0,1,4.1159-10.4616l-5.7119-8.7152,11.9783-12.4073,8.9111,5.4025Zm9.192,22.9712a18.5007,18.5007,0,1,0,26.1599-.46A18.50037,18.50037,0,0,0,192.20219,173.1503Z" transform="translate(-28.42542 -18.9978)"/><path class="cls-3" d="M284.43079,180.2643a32.209,32.209,0,0,1,8.4001-1.7005l3.20711-7.2713,12.904,2.5179.23949,7.9428a32.19412,32.19412,0,0,1,7.1457,4.7333l7.4062-2.8726,7.3441,10.9053-5.4444,5.7823a32.1914,32.1914,0,0,1,1.6998,8.4019l7.2704,3.2069L332.086,224.8142l-7.94311.2399a32.21384,32.21384,0,0,1-4.7328,7.1448l2.8715,7.4065-10.904,7.3445-5.783-5.4449a32.19766,32.19766,0,0,1-8.4012,1.6998l-3.2076,7.2712-12.9035-2.5176-.2396-7.9435a32.22785,32.22785,0,0,1-7.1451-4.7331l-7.4061,2.8725-7.3444-10.905,5.4446-5.7826a32.19453,32.19453,0,0,1-1.7004-8.4014l-7.2708-3.2071,2.5177-12.9036,7.9434-.2402a32.24256,32.24256,0,0,1,4.7329-7.1448l-2.872-7.4062,10.9042-7.3445,5.7841,5.4454Zm3.1986,18.5883a14.10355,14.10355,0,1,0,19.5764,3.8188A14.10329,14.10329,0,0,0,287.62939,198.8526Z" transform="translate(-28.42542 -18.9978)"/><path class="cls-1" d="M329.644,41.0666a1.84874,1.84874,0,0,1,.23579.175c.1543.1173.3713.3071.6739.5329a24.70464,24.70464,0,0,0,2.7415,1.8318,22.85591,22.85591,0,0,0,4.7724,2.0706,21.1095,21.1095,0,0,0,6.8051.8952,69.46941,69.46941,0,0,0,8.3178-1.0029,34.96034,34.96034,0,0,1,9.6426-.3083,32.17791,32.17791,0,0,1,10.2331,2.9739,29.32175,29.32175,0,0,1,14.9245,16.7321,27.89066,27.89066,0,0,1,1.5641,10.5326c-.125,3.4069-.6022,6.6051-.6865,9.6148A22.982,22.982,0,0,0,389.94,93.3519a22.51924,22.51924,0,0,0,6.65729,9.9365c.52871.4837,1.0566.8424,1.4892,1.1837.4584.3059.8367.5809,1.1583.7779.3126.1889.5565.3363.73521.4442a1.86725,1.86725,0,0,1,.24519.1618,1.87152,1.87152,0,0,1-.2621-.1313c-.1832-.1011-.4334-.2391-.75409-.416-.32851-.1883-.71431-.455-1.181-.7538-.44091-.3341-.978-.6866-1.51651-1.1653a21.79275,21.79275,0,0,1-3.5871-3.8168,22.13466,22.13466,0,0,1-3.2131-6.1447,23.12349,23.12349,0,0,1-1.1256-8.3218c.0731-3.031.5401-6.2355.6551-9.6171a27.65656,27.65656,0,0,0-1.5654-10.4117,29.07315,29.07315,0,0,0-14.7556-16.5424,31.97622,31.97622,0,0,0-10.1232-2.9621,34.84053,34.84053,0,0,0-9.5654.2761,68.57883,68.57883,0,0,1-8.3526.9641,21.1462,21.1462,0,0,1-6.867-.954,22.78249,22.78249,0,0,1-7.5005-4.0308c-.2966-.2353-.5069-.434-.6539-.5602A1.864,1.864,0,0,1,329.644,41.0666Z" transform="translate(-28.42542 -18.9978)"/><path class="cls-1" d="M346.75169,18.9978a37.28956,37.28956,0,0,1,3.1851,3.2405,35.16933,35.16933,0,0,1,3.251,4.2306,20.239,20.239,0,0,1,2.8728,6.4464,14.02507,14.02507,0,0,1,.3072,1.9996c.03921.6931.04321,1.3946.0276,2.107q-.04005,2.1414-.0833,4.4495c-.0665,3.0731-.1653,6.3581-.1084,9.8081A31.46106,31.46106,0,0,0,358.241,61.8228a27.9436,27.9436,0,0,0,6.16219,9.6988,25.56126,25.56126,0,0,0,9.695,6.1332,22.76,22.76,0,0,0,10.6154,1.1168c3.41141-.4607,6.5575-1.4745,9.5986-2.0053a23.64494,23.64494,0,0,1,4.4472-.4235,21.16936,21.16936,0,0,1,4.0973.4519,22.01372,22.01372,0,0,1,6.5701,2.5847,20.51276,20.51276,0,0,1,4.1999,3.2878,19.68873,19.68873,0,0,1,2.1602,2.5879c.2033.3131.3618.5571.4777.7355.1059.1665.1526.2564.1526.2564s-.0665-.0775-.1819-.2375c-.12229-.1732-.2896-.4103-.5044-.7145a21.26176,21.26176,0,0,0-2.19789-2.5338,20.75034,20.75034,0,0,0-4.20331-3.2177,21.99035,21.99035,0,0,0-6.5225-2.5129,21.05362,21.05362,0,0,0-4.049-.4247,23.4998,23.4998,0,0,0-4.3957.4386c-3.0159.5377-6.1579,1.5627-9.60749,2.0386a23.02544,23.02544,0,0,1-10.76651-1.1128,25.83237,25.83237,0,0,1-9.8278-6.2089,28.20021,28.20021,0,0,1-6.232-9.8199,31.668,31.668,0,0,1-2.0392-10.6558c-.0483-3.4634.0612-6.748.1399-9.8214q.05342-2.304.1029-4.4461c.0192-.7149.0182-1.4114-.01629-2.0855a13.83384,13.83384,0,0,0-.29071-1.9648,20.18737,20.18737,0,0,0-2.798-6.396,36.21411,36.21411,0,0,0-3.1905-4.2463c-.9533-1.1062-1.7397-1.9249-2.2735-2.479-.26029-.2668-.4631-.4748-.61129-.6268C346.81559,19.0772,346.75169,18.9978,346.75169,18.9978Z" transform="translate(-28.42542 -18.9978)"/><path class="cls-1" d="M356.27809,35.8799c.0723.0605-1.9286,2.5727-4.4685,5.6107-2.5409,3.0389-4.6585,5.4528-4.7307,5.3923-.0723-.0603,1.9282-2.5721,4.469-5.6111C354.08789,38.2339,356.20589,35.8196,356.27809,35.8799Z" transform="translate(-28.42542 -18.9978)"/><path class="cls-1" d="M354.56139,29.5094c.0671.0662-3.42339,3.7141-7.7953,8.147-4.3734,4.4344-7.9718,7.9743-8.039,7.9082-.0669-.0661,3.4228-3.7133,7.7962-8.1477C350.89509,32.9841,354.49439,29.4433,354.56139,29.5094Z" transform="translate(-28.42542 -18.9978)"/><path class="cls-1" d="M350.993,23.5977c.06659.0666-4.169,4.4111-9.45941,9.7026-5.2921,5.2933-9.6348,9.529-9.7014,9.4624s4.1681-4.4102,9.4603-9.7035C346.58279,27.7677,350.92639,23.5311,350.993,23.5977Z" transform="translate(-28.42542 -18.9978)"/><path class="cls-1" d="M388.96209,69.3553c.0614.0714-2.40909,2.2981-5.5172,4.9729-3.1093,2.6757-5.6788,4.7862-5.7403,4.7148-.0614-.0713,2.4086-2.2975,5.5178-4.9732C386.33059,71.3949,388.90069,69.284,388.96209,69.3553Z" transform="translate(-28.42542 -18.9978)"/><path class="cls-1" d="M385.66539,60.6035a4.19463,4.19463,0,0,1-.57439.6441c-.38491.3994-.95341.9655-1.66461,1.6559-1.4222,1.3812-3.42539,3.2503-5.6977,5.2476-2.2738,1.997-4.3853,3.7433-5.938,4.976-.7762.6165-1.41069,1.1073-1.8562,1.4376a4.18862,4.18862,0,0,1-.7126.4867,4.19873,4.19873,0,0,1,.6294-.5902c.4736-.403,1.0723-.9127,1.7864-1.5206,1.5121-1.279,3.5955-3.0516,5.8659-5.0457,2.2688-1.9943,4.2946-3.8322,5.7576-5.167.6947-.6301,1.2772-1.1583,1.73781-1.576A4.19247,4.19247,0,0,1,385.66539,60.6035Z" transform="translate(-28.42542 -18.9978)"/><path class="cls-1" d="M380.60989,53.8769a5.22978,5.22978,0,0,1-.7236.6378c-.5298.431-1.2135.9874-2.0347,1.6556-1.7175,1.3977-4.0713,3.3509-6.6088,5.5799-2.5371,2.2312-4.7764,4.3149-6.3829,5.8389-.7681.7286-1.4076,1.3353-1.903,1.8053a5.22289,5.22289,0,0,1-.7252.6357,5.21608,5.21608,0,0,1,.6312-.7294c.4213-.4551,1.0455-1.0995,1.8288-1.8844,1.5656-1.5702,3.7837-3.6865,6.326-5.9223,2.5427-2.2336,4.9259-4.1615,6.6841-5.5127.8788-.676,1.59821-1.2124,2.1037-1.572A5.23988,5.23988,0,0,1,380.60989,53.8769Z" transform="translate(-28.42542 -18.9978)"/><path class="cls-1" d="M372.23689,49.3248a3.14347,3.14347,0,0,1-.519.5352q-.608.56085-1.4883,1.3731c-1.2604,1.1545-2.9959,2.7544-4.8803,4.5554-1.88429,1.8025-3.5604,3.4648-4.7702,4.6722q-.84945.8418-1.4383,1.4253a3.13793,3.13793,0,0,1-.5579.4944,3.13623,3.13623,0,0,1,.4615-.5856c.3128-.3625.7777-.8759,1.3614-1.5017,1.167-1.252,2.8197-2.9449,4.7078-4.7511,1.8883-1.8047,3.6532-3.3797,4.9562-4.4895.6514-.5551,1.1851-.9966,1.5613-1.293A3.12592,3.12592,0,0,1,372.23689,49.3248Z" transform="translate(-28.42542 -18.9978)"/><path class="cls-1" d="M365.75439,45.735a59.8586,59.8586,0,0,1-4.5542,4.4726,59.82472,59.82472,0,0,1-4.7871,4.2235,59.89324,59.89324,0,0,1,4.5547-4.4731A59.882,59.882,0,0,1,365.75439,45.735Z" transform="translate(-28.42542 -18.9978)"/><path class="cls-1" d="M401.44739,76.4905a2.55988,2.55988,0,0,1-.4606.4893q-.556.519-1.3335,1.2442c-1.1955,1.103-2.72629,2.5155-4.4194,4.0776-1.681,1.5762-3.2007,3.0011-4.3873,4.1137q-.77985.72315-1.3372,1.24a2.55639,2.55639,0,0,1-.52139.4239,2.5578,2.5578,0,0,1,.42789-.5182c.291-.3182.72211-.7687,1.2623-1.3182,1.08-1.0991,2.6015-2.5887,4.3235-4.1908,1.7218-1.6011,3.3175-3.0108,4.4918-4.0085.5871-.499,1.0676-.8965,1.4061-1.1637A2.55505,2.55505,0,0,1,401.44739,76.4905Z" transform="translate(-28.42542 -18.9978)"/><path class="cls-1" d="M409.60869,79.5653c.06431.0689-4.0223,3.9827-9.1263,8.7406-5.1057,4.7596-9.2955,8.5609-9.3597,8.492s4.0214-3.9818,9.1272-8.7414C405.35389,83.2986,409.54449,79.4965,409.60869,79.5653Z" transform="translate(-28.42542 -18.9978)"/><path class="cls-1" d="M415.223,82.7053c.06619.067-4.33451,4.5243-9.82781,9.9545-5.4953,5.432-10.0024,9.7798-10.0686,9.7128-.0661-.0669,4.3335-4.5233,9.8288-9.9554C410.64879,86.9871,415.15679,82.6384,415.223,82.7053Z" transform="translate(-28.42542 -18.9978)"/><path class="cls-1" d="M422.99619,377.0947s.0629-.1392.19281-.4056l.10939-.2238c.0351-.085.0624-.1826.0983-.2862a4.06645,4.06645,0,0,0,.2015-.7342c.0259-.142.06081-.2913.084-.4507l.0372-.5082a3.45618,3.45618,0,0,0,.00461-.5587,5.81716,5.81716,0,0,0-.03521-.6074,11.39042,11.39042,0,0,0-.6959-2.8242,26.12859,26.12859,0,0,0-4.0795-6.8518,58.67616,58.67616,0,0,0-7.3553-7.6266,91.211,91.211,0,0,0-10.2495-7.7525,104.50988,104.50988,0,0,0-12.8673-7.21c-2.3537-1.1021-4.8108-2.1367-7.3686-3.0629a64.01634,64.01634,0,0,0-7.9768-2.3552,34.412,34.412,0,0,0-8.5393-.9253,14.49781,14.49781,0,0,0-4.308.7448,8.195,8.195,0,0,0-1.9522,1.0106,5.2631,5.2631,0,0,0-2.18339,3.6983,8.18912,8.18912,0,0,0,.06009,2.1981,14.45564,14.45564,0,0,0,1.4335,4.1315,34.40361,34.40361,0,0,0,4.9463,7.0248,64.01847,64.01847,0,0,0,5.9256,5.8391c2.0496,1.7894,4.1454,3.4381,6.2499,4.9636a104.51435,104.51435,0,0,0,12.5421,7.7651,91.21718,91.21718,0,0,0,11.7476,5.2114,58.68065,58.68065,0,0,0,10.2348,2.74,26.12587,26.12587,0,0,0,7.9697.2494,11.39519,11.39519,0,0,0,2.80741-.7593,5.80351,5.80351,0,0,0,.54829-.2635,3.4306,3.4306,0,0,0,.4865-.2747l.4264-.2786c.1283-.0976.242-.2004.3536-.2918a4.064,4.064,0,0,0,.5446-.5318c.0732-.0817.1455-.1528.2027-.2246q.07875-.1128.1428-.2041c.17011-.2427.2613-.365.2613-.365s-.081.1283-.247.3751l-.1399.2076c-.05629.073-.1278.1454-.2002.2283a4.02437,4.02437,0,0,1-.5415.5408c-.1114.093-.225.1976-.3532.2968l-.4267.2839a3.46785,3.46785,0,0,1-.4874.2799,5.821,5.821,0,0,1-.5499.2688,11.38262,11.38262,0,0,1-2.8176.7786,26.06206,26.06206,0,0,1-7.9952-.2206,58.46945,58.46945,0,0,1-10.2604-2.7204A90.91827,90.91827,0,0,1,387.204,372.214a104.31087,104.31087,0,0,1-12.56871-7.763c-2.10929-1.5262-4.2101-3.1764-6.2652-4.9683a64.0991,64.0991,0,0,1-5.9439-5.8514,34.53344,34.53344,0,0,1-4.9729-7.0595,14.61642,14.61642,0,0,1-1.45029-4.1814,8.3589,8.3589,0,0,1-.061-2.2475,5.43394,5.43394,0,0,1,2.25239-3.8151,8.36013,8.36013,0,0,1,1.9957-1.0336,14.65688,14.65688,0,0,1,4.3598-.7543,34.55391,34.55391,0,0,1,8.5824.9318,64.072,64.072,0,0,1,7.9965,2.3653c2.5626.9298,5.0234,1.9681,7.38,3.0739a104.29411,104.29411,0,0,1,12.8784,7.2344,90.91922,90.91922,0,0,1,10.2516,7.7806,58.495,58.495,0,0,1,7.3505,7.6584,26.06644,26.06644,0,0,1,4.0666,6.8882,11.382,11.382,0,0,1,.684,2.8424,5.83252,5.83252,0,0,1,.0313.6113,3.46266,3.46266,0,0,1-.0088.5622q-.02175.2679-.0416.5109c-.0247.1602-.0612.3103-.0886.4528a4.02183,4.02183,0,0,1-.2108.7358c-.03739.1037-.0662.2012-.1027.2859l-.1139.2229C423.06929,376.9616,422.99619,377.0947,422.99619,377.0947Z" transform="translate(-28.42542 -18.9978)"/><path class="cls-1" d="M428.41709,349.9244s-.0456-.1456-.126-.4309q-.0303-.1074-.0674-.2399c-.0303-.0867-.075-.1778-.1172-.279a4.06155,4.06155,0,0,0-.3383-.6819c-.07519-.1232-.1485-.2579-.2373-.3923q-.1476-.19215-.3106-.404a3.45263,3.45263,0,0,0-.3684-.42,5.80357,5.80357,0,0,0-.4306-.4299,11.39223,11.39223,0,0,0-2.39929-1.6443,26.12971,26.12971,0,0,0-7.60531-2.3977,58.6862,58.6862,0,0,0-10.5656-.7951,91.18933,91.18933,0,0,0-12.8093,1.0374,104.5013,104.5013,0,0,0-14.4017,3.1847c-2.49009.7443-5.0124,1.6079-7.5377,2.6193a64.02179,64.02179,0,0,0-7.5205,3.5523,34.41119,34.41119,0,0,0-6.9884,4.9938,14.492,14.492,0,0,0-2.719,3.4234,8.19275,8.19275,0,0,0-.7842,2.0537,5.26236,5.26236,0,0,0,.8325,4.2133,8.19279,8.19279,0,0,0,1.508,1.6004,14.459,14.459,0,0,0,3.8199,2.1288,34.39623,34.39623,0,0,0,8.3674,1.9497,64.01541,64.01541,0,0,0,8.3088.4131c2.7207-.0291,5.3822-.1938,7.96811-.4563a104.51114,104.51114,0,0,0,14.52849-2.554,91.194,91.194,0,0,0,12.2357-3.931,58.67616,58.67616,0,0,0,9.4617-4.7681,26.12681,26.12681,0,0,0,6.1135-5.119,11.39274,11.39274,0,0,0,1.5895-2.4355,5.81252,5.81252,0,0,0,.2339-.5615,3.45729,3.45729,0,0,0,.1801-.5288l.1328-.4919c.0307-.1581.0471-.3106.0695-.4531a4.05681,4.05681,0,0,0,.0524-.7593c.0003-.1097.0069-.2109.0018-.3026l-.0293-.2474c-.0346-.2944-.048-.4464-.048-.4464s.0251.1498.0655.4445l.0337.248c.0066.0919.0015.1936.0026.3037a4.01712,4.01712,0,0,1-.0442.764c-.0211.1435-.0363.2972-.0659.4566q-.0615.2358-.1295.4959a3.47972,3.47972,0,0,1-.17729.5334,5.86719,5.86719,0,0,1-.23151.5665,11.37975,11.37975,0,0,1-1.5844,2.4566,26.06008,26.06008,0,0,1-6.1133,5.1576,58.47776,58.47776,0,0,1-9.4676,4.7998,90.92441,90.92441,0,0,1-12.247,3.9568,104.31551,104.31551,0,0,1-14.547,2.5734c-2.59.2651-5.2561.432-7.9826.4628a64.08719,64.08719,0,0,1-8.33059-.41,34.53189,34.53189,0,0,1-8.41031-1.9579,14.62007,14.62007,0,0,1-3.8658-2.1549,8.35775,8.35775,0,0,1-1.5415-1.6366,5.434,5.434,0,0,1-.8587-4.3464,8.358,8.358,0,0,1,.8012-2.0998,14.6543,14.6543,0,0,1,2.7514-3.465,34.55058,34.55058,0,0,1,7.0249-5.0177,64.093,64.093,0,0,1,7.5419-3.5579c2.5313-1.0119,5.0588-1.8751,7.5535-2.6186a104.31,104.31,0,0,1,14.4262-3.174,90.92052,90.92052,0,0,1,12.8295-1.0178,58.493,58.493,0,0,1,10.5834.8222,26.06085,26.06085,0,0,1,7.6199,2.4334,11.37192,11.37192,0,0,1,2.4025,1.6659,5.82413,5.82413,0,0,1,.4303.4352,3.48208,3.48208,0,0,1,.3677.4254q.162.2145.309.4089c.0883.1361.16091.2724.2353.397a4.01829,4.01829,0,0,1,.3325.6894c.041.1022.0845.1942.1136.2817l.06351.2422C428.38309,349.7765,428.41709,349.9244,428.41709,349.9244Z" transform="translate(-28.42542 -18.9978)"/><path class="cls-1" d="M408.43649,321.4054s-.1431-.0532-.4178-.1644l-.2309-.0938c-.0871-.0291-.1865-.0496-.2922-.0783a4.05674,4.05674,0,0,0-.7464-.1504c-.1434-.0161-.2948-.0407-.4554-.0528q-.24225-.0009-.5095-.0021a3.458,3.458,0,0,0-.5577.0339,5.77247,5.77247,0,0,0-.6035.077,11.38816,11.38816,0,0,0-2.7696.8887,26.13078,26.13078,0,0,0-6.5546,4.5418,58.68554,58.68554,0,0,0-7.1018,7.8632,91.226,91.226,0,0,0-7.02809,10.7591,104.52021,104.52021,0,0,0-6.30651,13.3335c-.9373,2.4239-1.8003,4.9464-2.5481,7.562a64.02411,64.02411,0,0,0-1.8001,8.1201,34.41167,34.41167,0,0,0-.3349,8.5827,14.49359,14.49359,0,0,0,1.0398,4.2465,8.18868,8.18868,0,0,0,1.1426,1.8779,5.26288,5.26288,0,0,0,3.8399,1.9235,8.19768,8.19768,0,0,0,2.1888-.2113,14.45827,14.45827,0,0,0,4.0229-1.7148,34.39811,34.39811,0,0,0,6.6674-5.4184,64.02771,64.02771,0,0,0,5.4171-6.3137c1.644-2.1681,3.1444-4.3724,4.5213-6.577a104.5474,104.5474,0,0,0,6.88281-13.0471,91.22718,91.22718,0,0,0,4.38969-12.0787,58.6919,58.6919,0,0,0,2.0286-10.3992,26.12575,26.12575,0,0,0-.3002-7.968,11.396,11.396,0,0,0-.9509-2.7485,5.8262,5.8262,0,0,0-.3006-.5288,3.46116,3.46116,0,0,0-.3075-.4664q-.16125-.213-.3074-.4063c-.1062-.1211-.2165-.2275-.3154-.3326a4.081,4.081,0,0,0-.5681-.5066c-.0865-.0674-.1624-.1346-.238-.1867q-.11805-.071-.2135-.1285c-.2538-.153-.3822-.2355-.3822-.2355s.1337.0719.3913.2205l.2167.1253c.0767.0512.1539.1175.2416.184a4.02577,4.02577,0,0,1,.5768.503c.1005.1048.2126.2109.3204.3319q.14865.193.3126.4062a3.47174,3.47174,0,0,1,.3129.4668,5.85652,5.85652,0,0,1,.306.5302,11.38023,11.38023,0,0,1,.9708,2.7572,26.06145,26.06145,0,0,1,.3307,7.9915,58.47956,58.47956,0,0,1-2.0071,10.4234,90.93908,90.93908,0,0,1-4.3763,12.1034,104.31169,104.31169,0,0,1-6.8788,13.0736c-1.3773,2.2094-2.8788,4.4188-4.525,6.5925a64.07167,64.07167,0,0,1-5.428,6.3328,34.53565,34.53565,0,0,1-6.7002,5.4474,14.62134,14.62134,0,0,1-4.0716,1.7349,8.35461,8.35461,0,0,1-2.2379.2156,5.43335,5.43335,0,0,1-3.9612-1.9842,8.3639,8.3639,0,0,1-1.1687-1.9198,14.65338,14.65338,0,0,1-1.0527-4.2975,34.54762,34.54762,0,0,1,.3383-8.6262,64.07384,64.07384,0,0,1,1.80891-8.1404c.751-2.6206,1.61739-5.1471,2.55829-7.5742a104.2926,104.2926,0,0,1,6.3301-13.3461,90.93145,90.93145,0,0,1,7.0559-10.7632,58.4881,58.4881,0,0,1,7.134-7.8606,26.06307,26.06307,0,0,1,6.59171-4.5314,11.37419,11.37419,0,0,1,2.78849-.8781,5.824,5.824,0,0,1,.6078-.0735,3.475,3.475,0,0,1,.5614-.0299q.2688.0033.5125.0064c.1616.0135.31381.0396.4579.0571a4.03074,4.03074,0,0,1,.7485.1596c.106.0302.2053.0522.2923.0828l.2303.0982C408.29869,321.3416,408.43649,321.4054,408.43649,321.4054Z" transform="translate(-28.42542 -18.9978)"/><path class="cls-1" d="M355.65089,380.5398a1.42819,1.42819,0,1,1-1.9811.393A1.42811,1.42811,0,0,1,355.65089,380.5398Z" transform="translate(-28.42542 -18.9978)"/><path class="cls-1" d="M426.08229,321.4493a1.4282,1.4282,0,1,1-1.6787-1.123A1.42818,1.42818,0,0,1,426.08229,321.4493Z" transform="translate(-28.42542 -18.9978)"/><path class="cls-1" d="M365.41169,383.3915a.363.363,0,1,1-.42669-.2855A.36294.36294,0,0,1,365.41169,383.3915Z" transform="translate(-28.42542 -18.9978)"/><path class="cls-1" d="M365.22359,342.6275a.363.363,0,1,1-.4267-.2854A.363.363,0,0,1,365.22359,342.6275Z" transform="translate(-28.42542 -18.9978)"/><path class="cls-1" d="M424.56789,350.688a.363.363,0,1,1-.4267-.2854A.363.363,0,0,1,424.56789,350.688Z" transform="translate(-28.42542 -18.9978)"/><path class="cls-1" d="M426.22309,333.1083a.363.363,0,1,1-.4266-.2854A.36285.36285,0,0,1,426.22309,333.1083Z" transform="translate(-28.42542 -18.9978)"/><circle class="cls-1" cx="390.64654" cy="357.38338" r="6.9534" transform="translate(-134.47152 521.75411) rotate(-62.71696)"/><path class="cls-2" d="M345.64319,134.8086a61.75462,61.75462,0,0,0-13.633-21.2642c-10.322-10.5321-22.0653-19.8571-35.3605-26.3931-13.2953-6.5362-34.982-12.3401-50.7726-12.2552-8.1536-.3114-12.2735.1973-19.6934,3.062-4.63569,1.7898-8.5254,5.918-8.8465,10.8146-.2969,4.5295,2.4987,10.099,6.24481,12.7394,16.08089,11.334,28.26039,11.9254,43.85519,16.9179,15.5947,4.9924,31.6437,12.3849,40.0549,26.2565,4.5647,7.528,7.1656,17.1634,15.0873,21.1584,7.6764,3.8713,17.8054.112,22.5123-7.0087S348.67989,142.7625,345.64319,134.8086Z" transform="translate(-28.42542 -18.9978)"/><path class="cls-1" d="M131.8376,277.0942s-.39.2277-1.1632.6488c-.7688.429-1.9381,1.0203-3.4161,1.8951a125.71656,125.71656,0,0,0-12.5793,8.187,129.26415,129.26415,0,0,0-27.2477,27.1105,84.08794,84.08794,0,0,0-8.628,14.1599,65.62572,65.62572,0,0,0-3.2133,8.3213,48.64439,48.64439,0,0,0-1.7803,9.1276,35.02629,35.02629,0,0,0,.5128,9.6366,33.59011,33.59011,0,0,0,1.3232,4.7907,31.46608,31.46608,0,0,0,2.1491,4.5799,39.8409,39.8409,0,0,0,15.0341,14.5082,63.58177,63.58177,0,0,0,21.1921,7.0697c3.7952.6322,7.6726,1.057,11.6052,1.3598,1.9655.168,3.9491.2349,5.9423.3213q2.9898.1287,6.0121.259c2.0139.1265,4.042.0843,6.0796.0832q3.05625-.0078,6.1432-.0157c2.05879.0375,4.12269-.1326,6.19829-.2085q3.1128-.14415,6.2541-.2896a311.63149,311.63149,0,0,0,51.2886-7.6968c34.6964-8.0643,66.40961-20.6199,94.3281-33.6534,13.9837-6.467,27.0677-13.226,38.0899-21.3909a95.32986,95.32986,0,0,0,14.6628-13.2656q.786-.8949,1.564-1.7809c.5141-.5944.97481-1.2276,1.461-1.8345q.7194-.9186,1.4313-1.8274.65835-.94815,1.30951-1.8861a43.35683,43.35683,0,0,0,4.46629-7.7067,36.068,36.068,0,0,0,3.50071-16.0349,19.52916,19.52916,0,0,0-5.54171-13.2648,21.70625,21.70625,0,0,0-11.3359-5.6031,30.65787,30.65787,0,0,0-10.7633.0076,50.77739,50.77739,0,0,0-8.359,2.2036c-2.3695.8251-4.333,1.6397-5.9167,2.3015-1.57139.6759-2.7716,1.1921-3.5889,1.5436-.8071.3514-1.2261.5192-1.2261.5192s.4043-.2005,1.2044-.5678c.8014-.3646,1.9924-.9098,3.5695-1.5915,1.5781-.6779,3.5372-1.5087,5.9064-2.3511a50.4566,50.4566,0,0,1,8.3767-2.2574,30.79567,30.79567,0,0,1,10.8417-.0519,21.94734,21.94734,0,0,1,11.4954,5.6398,19.82879,19.82879,0,0,1,5.6684,13.4574,36.37653,36.37653,0,0,1-3.4962,16.2018,43.702,43.702,0,0,1-4.4844,7.7736q-.65293.94395-1.3131,1.8984-.71385.91485-1.4353,1.8394c-.4876.6109-.94989,1.2482-1.4655,1.8465q-.7803.89175-1.5686,1.7925A95.61362,95.61362,0,0,1,346.22,326.2445c-11.05091,8.2092-24.15761,14.9958-38.14411,21.479-27.9274,13.0665-59.6677,25.65-94.4143,33.7262-34.6689,8.109-69.09339,10.3782-99.72019,6.153a64.00107,64.00107,0,0,1-21.3402-7.1456,40.26316,40.26316,0,0,1-15.1817-14.6918,31.87078,31.87078,0,0,1-2.1721-4.6463,33.98375,33.98375,0,0,1-1.3343-4.8573,35.41483,35.41483,0,0,1-.5038-9.7513,48.99031,48.99031,0,0,1,1.8115-9.2045,65.90321,65.90321,0,0,1,3.2495-8.3676,84.24865,84.24865,0,0,1,8.6952-14.2003,128.66582,128.66582,0,0,1,27.3938-27.0764,121.11382,121.11382,0,0,1,12.6473-8.1148C130.2074,277.8716,131.8376,277.0942,131.8376,277.0942Z" transform="translate(-28.42542 -18.9978)"/><path class="cls-3" d="M422.24289,188.5709l-12.5158,46.0355L371.719,245.1138a2.6322,2.6322,0,0,0-1.73221,3.0689h0l41.5845-10.6963,1.466-.4558,49.2951-13.1991,5.47061-21.8336,7.11089-25.5969a2.02294,2.02294,0,0,0-2.22089-2.7529l-49.13211,13.493A1.91857,1.91857,0,0,0,422.24289,188.5709Z" transform="translate(-28.42542 -18.9978)"/><polygon class="cls-4" points="396.377 171.057 384.991 212.98 429.651 200.725 439.649 159.403 396.377 171.057"/><path class="cls-1" d="M472.693,173.6481a.952.952,0,0,1-.03741.244c-.0414.1859-.0929.4179-.1568.7057q-.2355.98145-.6503,2.7117c-.5956,2.3925-1.4446,5.802-2.4977,10.0316-2.1722,8.5374-5.1845,20.3765-8.5882,33.7536l-.0371.1458-.146.0393c-2.2898.6165-4.7014,1.2658-7.1508,1.9253-15.01669,4.0074-28.6081,7.6345-38.489,10.2714-4.9036,1.2826-8.8841,2.3238-11.6791,3.0549-1.3534.3425-2.4182.6119-3.1821.8051-.34149.0809-.6152.1456-.831.1967a.1466.1466,0,1,1-.0138-.0514c.21231-.064.4815-.1452.8176-.2466.75771-.2159,1.8141-.517,3.15671-.8995,2.78469-.7694,6.75049-1.8651,11.63609-3.2148,9.8707-2.6747,23.4481-6.3538,38.4494-10.4187,2.4498-.658,4.8618-1.3058,7.152-1.9209l-.1829.1849c3.4696-13.3602,6.5403-25.1843,8.7546-33.7108,1.1173-4.2132,2.0179-7.6094,2.6499-9.9925q.47025-1.71345.7381-2.6892c.08281-.2829.1495-.511.2029-.6938A.94842.94842,0,0,1,472.693,173.6481Z" transform="translate(-28.42542 -18.9978)"/><circle class="cls-3" cx="124.41507" cy="350.45435" r="18.88155" transform="translate(-188.60414 92.07457) rotate(-30.3862)"/><g class="cls-5"><path class="cls-6" d="M118.0609,351.0738a3.0795,3.0795,0,1,1,1.2604-4.1687A3.07951,3.07951,0,0,1,118.0609,351.0738Z" transform="translate(-28.42542 -18.9978)"/></g><g class="cls-5"><path class="cls-6" d="M123.8321,343.0274a1.7914,1.7914,0,1,1,.7332-2.425A1.79126,1.79126,0,0,1,123.8321,343.0274Z" transform="translate(-28.42542 -18.9978)"/></g><path class="cls-1" d="M111.718,336.476c-.2488.2292-21.659-6.7305-22.6092-1.4713-.9501,5.259,14.877,16.7639,32.6587,24.2734,17.7818,7.5095,37.24079,12.6463,38.90459,7.4963,1.6637-5.15-17.37219-16.2414-17.37219-16.2414l-.2015,2.6522s11.77439,6.5639,10.97829,11.0618c-.7963,4.4979-15.35469.6905-31.46369-7.0598s-29.2188-16.554-27.696-19.8268c1.5227-3.2727,14.8388,1.1869,14.8388,1.1869Z" transform="translate(-28.42542 -18.9978)"/><g class="cls-5"><path class="cls-6" d="M131.2261,335.0021c-.0886.2204-1.6508-.3949-4.2564-.6423a17.37886,17.37886,0,0,0-17.0125,8.6819c-1.3284,2.255-1.7468,3.8808-1.9774,3.8231-.1613-.0221-.1054-1.7739,1.0636-4.3053a16.29668,16.29668,0,0,1,2.7053-4.0503,16.37763,16.37763,0,0,1,10.5-5.3582,16.29672,16.29672,0,0,1,4.867.186C129.8513,333.8757,131.3029,334.8584,131.2261,335.0021Z" transform="translate(-28.42542 -18.9978)"/></g><path class="cls-2" d="M104.0847,51.8691l.9728,4.4767a5.17581,5.17581,0,0,1-1.4987,4.8568L73.4974,89.6736a7.53231,7.53231,0,0,0,1.3933,11.9804l19.0004,11.0479a7.96867,7.96867,0,0,0,11.7703-5.0977l9.2699-40.1875a5.17574,5.17574,0,0,1,3.6397-3.8185l3.83-1.0789Z" transform="translate(-28.42542 -18.9978)"/><path class="cls-1" d="M109.7417,83.5123a13.45722,13.45722,0,0,1-5.6171-3.4335c-1.4987-1.5343-2.6078-3.405-4.0265-5.0136a8.07335,8.07335,0,0,0-5.4414-3.0894L75.9056,90.3362A6.39952,6.39952,0,0,0,77.166,100.441l17.0316,9.9032a6.39972,6.39972,0,0,0,9.3987-3.8773Z" transform="translate(-28.42542 -18.9978)"/><g class="cls-5"><path class="cls-6" d="M80.5996,99.601c-.0434.0618-.4827-.1083-1.0263-.7434a5.30088,5.30088,0,0,1-1.073-3.2938,6.94332,6.94332,0,0,1,.4173-2.3999,10.20677,10.20677,0,0,1,1.2953-2.4261,41.64054,41.64054,0,0,1,4.0543-4.5061c5.9286-6.0679,10.9458-10.7775,11.2086-10.5208.2626.2565-4.3289,5.382-10.2573,11.4502a54.73935,54.73935,0,0,0-4.0161,4.2992,9.89325,9.89325,0,0,0-1.2583,2.1061,6.46692,6.46692,0,0,0-.5041,2.0281,5.5057,5.5057,0,0,0,.5629,2.9744C80.3551,99.212,80.6669,99.5201,80.5996,99.601Z" transform="translate(-28.42542 -18.9978)"/></g><path class="cls-4" d="M107.3108,86.3439a3.719,3.719,0,0,1-.7303-.059c-.4674-.0587-1.1438-.151-1.9712-.3252a11.37452,11.37452,0,0,1-2.8155-.9615,7.46715,7.46715,0,0,1-1.4688-.9886,9.3348,9.3348,0,0,1-1.2818-1.3979c-.7802-1.0358-1.3919-2.0982-2.0408-2.9919A9.1358,9.1358,0,0,0,94.98,77.5323a4.98947,4.98947,0,0,0-1.7658-.826c-.4542-.0988-.7168-.0978-.7158-.1245.0001-.0092.065-.0149.1901-.0173a3.14373,3.14373,0,0,1,.5456.0402,4.71633,4.71633,0,0,1,1.853.7731,8.91151,8.91151,0,0,1,2.1131,2.0974c.6692.8994,1.2886,1.9594,2.0548,2.9755a9.32012,9.32012,0,0,0,1.2418,1.3629,7.41288,7.41288,0,0,0,1.4106.9675,11.89475,11.89475,0,0,0,2.744.9952c.814.196,1.4837.3162,1.9451.4062A4.05316,4.05316,0,0,1,107.3108,86.3439Z" transform="translate(-28.42542 -18.9978)"/><path class="cls-2" d="M143.5434,46.8994a9.285,9.285,0,0,0-3.0992-5.0733,17.11662,17.11662,0,0,0-9.2258-4.7288,13.8276,13.8276,0,0,0-10.5006,2.9392,12.76868,12.76868,0,0,0-4.776,9.3065c-.3414,2.3532,2.1154,4.3434,4.4899,4.4688s4.6042-1.0246,6.7378-2.0742c2.1337-1.0495,4.479-2.0532,6.8162-1.6157,2.3688.4434,4.5995,2.3349,6.9105,1.6516C142.8321,51.2009,143.8525,48.8945,143.5434,46.8994Z" transform="translate(-28.42542 -18.9978)"/><path class="cls-2" d="M159.22969,43.0034c-.1423-1.8528-1.5693-4.781-4.96669-4.3559-1.40361-.0294-2.91261,1.7328-3.27651,3.0887a3.83166,3.83166,0,0,0,1.2469,3.7933,4.65454,4.65454,0,0,0,3.9563.932C157.82859,46.1103,159.35809,44.6745,159.22969,43.0034Z" transform="translate(-28.42542 -18.9978)"/><path class="cls-1" d="M29.1481,192.4797l-.518,1.394a3.272,3.272,0,0,0,.1673,2.6543l28.2961,54.1508a3.27146,3.27146,0,0,0,2.0469,1.6432l1.6028.4328a3.275,3.275,0,0,0,1.1089.1028l33.0366-2.5961a3.27127,3.27127,0,0,0,3.0098-3.0776h0a3.27,3.27,0,0,0-.3824-1.7284L67.5575,189.5234a3.27119,3.27119,0,0,0-3.14-1.7167l-32.459,2.5508A3.27138,3.27138,0,0,0,29.1481,192.4797Z" transform="translate(-28.42542 -18.9978)"/><polygon class="cls-4" points="2.794 172.71 32.813 228.828 66.827 226.155 37.039 170.019 2.794 172.71"/><path class="cls-1" d="M64.6991,234.2861a5.045,5.045,0,1,1-2.657,6.6215A5.04522,5.04522,0,0,1,64.6991,234.2861Z" transform="translate(-28.42542 -18.9978)"/><path class="cls-6" d="M66.7348,236.5659l-.1386.9138a.24554.24554,0,0,0,.1515.265l.1721.0692a.28575.28575,0,0,1,.2142.3644c-.0662.2031-.5834,1.4539-.5834,1.4539s-.1262.3329-.3842.2226l-.2503-.1003a.21027.21027,0,0,0-.2426.0637l-.6372.7957a.21064.21064,0,0,0,.017.2822l.2329.2275a.39845.39845,0,0,0,.1498.0937.84526.84526,0,0,0,.4808.0122,3.68456,3.68456,0,0,0,1.7556-2.3609c.5422-1.5669.0287-2.1622-.0908-2.3126a.70907.70907,0,0,0-.4201-.2018c-.0433.001-.1156.0019-.1868.0029A.24545.24545,0,0,0,66.7348,236.5659Z" transform="translate(-28.42542 -18.9978)"/><path class="cls-1" d="M77.9048,240.7121a5.04491,5.04491,0,1,1,7.1125-.559A5.04482,5.04482,0,0,1,77.9048,240.7121Z" transform="translate(-28.42542 -18.9978)"/><path class="cls-6" d="M79.0437,237.876l.8804-.2816a.24591.24591,0,0,0,.1701-.2534l-.0146-.185a.28585.28585,0,0,1,.2317-.3537c.2113-.0307,1.5615-.1227,1.5615-.1227s.3545-.0348.3703.2454l.0211.2686a.21022.21022,0,0,0,.1648.1892l.9959.2178a.21063.21063,0,0,0,.2453-.1406l.1004-.3096a.40227.40227,0,0,0,.0174-.1759.84266.84266,0,0,0-.2024-.4363,3.684,3.684,0,0,0-2.895-.5247c-1.6449.2097-1.9501.9341-2.0318,1.1079a.71039.71039,0,0,0,.0057.4663c.02.0383.0531.1026.0855.1658A.24574.24574,0,0,0,79.0437,237.876Z" transform="translate(-28.42542 -18.9978)"/><path class="cls-3" d="M63.3779,212.6694c1.2749-.8929,1.6537-2.6827.7867-4.5987-1.138-2.5098-3.9783-4.2723-6.3445-3.9366-2.3648.3354-3.3548,2.6417-2.2106,5.1508a7.06944,7.06944,0,0,0,4.6675,3.84c-6.1035,1.9509-2.5224,9.0275-2.5224,9.0275l16.7311-1.3148S70.33,212.6947,63.3779,212.6694Z" transform="translate(-28.42542 -18.9978)"/><path class="cls-3" d="M83.1305,226.5246c.0207.2626-6.0039.9503-13.4547,1.5358-7.4533.5857-13.51.8475-13.5307.5849-.0206-.2626,6.0027-.9502,13.456-1.5359C77.0519,226.5239,83.1099,226.262,83.1305,226.5246Z" transform="translate(-28.42542 -18.9978)"/><path class="cls-3" d="M91.1175,418.3813l1.0957,1.821a12.47238,12.47238,0,0,0,5.1581,4.75l1.905.942L97.4554,426.99a12.4705,12.4705,0,0,0-4.7501,5.1583l-.9421,1.9049-1.0956-1.821a12.47242,12.47242,0,0,0-5.1583-4.7498l-1.905-.9422,1.8211-1.0959a12.4713,12.4713,0,0,0,4.7498-5.1581Z" transform="translate(-28.42542 -18.9978)"/><path class="cls-3" d="M443.846,60.6061l1.09559,1.821a12.47358,12.47358,0,0,0,5.1581,4.75l1.905.9419-1.8208,1.0958a12.47073,12.47073,0,0,0-4.7502,5.1583l-.942,1.9048-1.09569-1.821a12.47129,12.47129,0,0,0-5.15831-4.7498l-1.9049-.9421,1.8211-1.0959a12.4719,12.4719,0,0,0,4.7498-5.1581Z" transform="translate(-28.42542 -18.9978)"/><path class="cls-3" d="M456.378,88.8597l.95229,1.5828a10.84129,10.84129,0,0,0,4.4833,4.1286l1.6557.8187-1.5826.9524a10.84,10.84,0,0,0-4.12869,4.4835l-.81891,1.6557-.9522-1.5828a10.84072,10.84072,0,0,0-4.4835-4.1284l-1.6558-.8189,1.5829-.9526a10.84021,10.84021,0,0,0,4.1284-4.4833Z" transform="translate(-28.42542 -18.9978)"/><path class="cls-3" d="M69.9767,397.8121l.7752,1.2884a8.8252,8.8252,0,0,0,3.6494,3.3607l1.3478.6664-1.2882.7753a8.82307,8.82307,0,0,0-3.3608,3.6495l-.6665,1.3477-.7752-1.2883a8.82427,8.82427,0,0,0-3.6496-3.3606l-1.3477-.6666,1.2884-.7753a8.82347,8.82347,0,0,0,3.3605-3.6494Z" transform="translate(-28.42542 -18.9978)"/><path class="cls-3" d="M400.79069,411.9346l.7751,1.2884a8.82521,8.82521,0,0,0,3.6494,3.3607l1.34781.6664-1.28821.7753a8.823,8.823,0,0,0-3.36079,3.6495l-.66651,1.3477-.7752-1.2883a8.82462,8.82462,0,0,0-3.6495-3.3606l-1.34779-.6666,1.28839-.7753a8.82281,8.82281,0,0,0,3.3605-3.6494Z" transform="translate(-28.42542 -18.9978)"/><path class="cls-3" d="M60.3255,43.2326l.7752,1.2884a8.82455,8.82455,0,0,0,3.6494,3.3607l1.3478.6664-1.2882.7753a8.82307,8.82307,0,0,0-3.3608,3.6495l-.6666,1.3477-.7751-1.2883a8.82427,8.82427,0,0,0-3.6496-3.3606l-1.3478-.6666,1.2885-.7753a8.82412,8.82412,0,0,0,3.3605-3.6494Z" transform="translate(-28.42542 -18.9978)"/><path class="cls-3" d="M444.71329,278.6229l.7752,1.2883a8.824,8.824,0,0,0,3.6494,3.3607l1.3478.6665-1.2883.7752a8.82438,8.82438,0,0,0-3.3608,3.6495l-.6665,1.3478-.7752-1.2884a8.82312,8.82312,0,0,0-3.6495-3.3605l-1.3478-.6666,1.28841-.7754a8.82375,8.82375,0,0,0,3.36059-3.6494Z" transform="translate(-28.42542 -18.9978)"/><path class="cls-3" d="M57.032,136.1551l.7752,1.2883a8.82455,8.82455,0,0,0,3.6494,3.3607l1.3478.6665-1.2882.7752a8.82307,8.82307,0,0,0-3.3608,3.6495l-.6666,1.3478-.7751-1.2884a8.824,8.824,0,0,0-3.6496-3.3605l-1.3478-.6666,1.2885-.7754a8.82412,8.82412,0,0,0,3.3605-3.6494Z" transform="translate(-28.42542 -18.9978)"/></g><g id="Floor"><path class="cls-7" d="M457.88119,462.9686c0,.1439-88.7364.2605-198.173.2605-109.47459,0-198.192-.1166-198.192-.2605,0-.1437,88.7174-.2603,198.192-.2603C369.14479,462.7083,457.88119,462.8249,457.88119,462.9686Z" transform="translate(-28.42542 -18.9978)"/></g><g id="Stars"><path class="cls-8" d="M109.7751,152.5891l.7212,1.1987a8.20973,8.20973,0,0,0,3.3952,3.1265l1.2539.6201-1.1985.7212a8.2091,8.2091,0,0,0-3.1267,3.3953l-.6201,1.2539-.7212-1.1987a8.20915,8.20915,0,0,0-3.3953-3.1264l-1.2539-.6202,1.1987-.7213a8.2095,8.2095,0,0,0,3.1264-3.3952Z" transform="translate(-28.42542 -18.9978)"/><path class="cls-8" d="M369.34679,284.2845l.72121,1.1986a8.20988,8.20988,0,0,0,3.39519,3.1266l1.2539.62-1.1985.7212a8.20844,8.20844,0,0,0-3.1267,3.3953l-.6201,1.2539-.7212-1.1986a8.20873,8.20873,0,0,0-3.3953-3.1265l-1.2539-.6201,1.1987-.7214a8.20889,8.20889,0,0,0,3.1264-3.3952Z" transform="translate(-28.42542 -18.9978)"/><path class="cls-8" d="M228.35529,36.9723l.7211,1.1986a8.21034,8.21034,0,0,0,3.3952,3.1265l1.2539.6201-1.19849.7212a8.20971,8.20971,0,0,0-3.12671,3.3953l-.6201,1.2539-.7211-1.1987a8.20975,8.20975,0,0,0-3.3953-3.1264l-1.254-.6202,1.1987-.7213a8.2091,8.2091,0,0,0,3.12651-3.3952Z" transform="translate(-28.42542 -18.9978)"/><path class="cls-8" d="M397.14129,149.9728l.7211,1.1986a8.20992,8.20992,0,0,0,3.3952,3.1266l1.2539.62-1.19849.7212a8.21,8.21,0,0,0-3.12671,3.3954l-.62,1.2538-.7212-1.1986a8.21,8.21,0,0,0-3.3953-3.1265l-1.2539-.6201,1.1986-.7214a8.20849,8.20849,0,0,0,3.12651-3.3952Z" transform="translate(-28.42542 -18.9978)"/><path class="cls-8" d="M137.1173,198.7955l.5263.8748a5.99179,5.99179,0,0,0,2.478,2.282l.9152.4525-.8747.5264a5.99163,5.99163,0,0,0-2.2821,2.4781l-.4526.9151-.5263-.8748a5.99163,5.99163,0,0,0-2.4781-2.2818l-.9152-.4527.8749-.5264a5.99186,5.99186,0,0,0,2.2819-2.4781Z" transform="translate(-28.42542 -18.9978)"/><path class="cls-8" d="M161.03969,310.8648l.52631.8748a5.99228,5.99228,0,0,0,2.478,2.282l.91519.4525-.8747.5264a5.99223,5.99223,0,0,0-2.2821,2.4781l-.4525.9152-.5264-.8749a5.99163,5.99163,0,0,0-2.4781-2.2818l-.9152-.4527.8749-.5264a5.9923,5.9923,0,0,0,2.28191-2.478Z" transform="translate(-28.42542 -18.9978)"/><path class="cls-8" d="M389.29679,116.0374l.5264.8749a5.99233,5.99233,0,0,0,2.478,2.2819l.9152.4526-.8748.5264a5.99079,5.99079,0,0,0-2.282,2.4781l-.45259.9151-.52631-.8748a5.99181,5.99181,0,0,0-2.4781-2.2819l-.9152-.4526.8749-.5265a5.992,5.992,0,0,0,2.2818-2.478Z" transform="translate(-28.42542 -18.9978)"/><path class="cls-8" d="M90.2974,175.1589l.5264.8748a5.99119,5.99119,0,0,0,2.478,2.282l.9151.4525-.8747.5264a5.992,5.992,0,0,0-2.282,2.4781l-.4526.9152-.5264-.8749a5.991,5.991,0,0,0-2.4781-2.2818l-.9151-.4527.8748-.5264a5.99121,5.99121,0,0,0,2.2819-2.4781Z" transform="translate(-28.42542 -18.9978)"/><path class="cls-8" d="M414.58219,121.4151l.3014.5009a3.43109,3.43109,0,0,0,1.4191,1.3068l.5241.2592-.501.3014a3.43154,3.43154,0,0,0-1.30679,1.4191l-.25921.5241-.3014-.501a3.43084,3.43084,0,0,0-1.4191-1.3067l-.5241-.2592.501-.3015a3.43012,3.43012,0,0,0,1.3067-1.4191Z" transform="translate(-28.42542 -18.9978)"/><path class="cls-8" d="M395.88639,265.3842l.3015.501a3.43143,3.43143,0,0,0,1.419,1.3068l.52411.2592-.50091.3014a3.43163,3.43163,0,0,0-1.3068,1.4191l-.2592.5241-.3014-.501a3.4317,3.4317,0,0,0-1.4192-1.3067l-.5241-.2592.5011-.3015a3.43084,3.43084,0,0,0,1.3067-1.4191Z" transform="translate(-28.42542 -18.9978)"/><path class="cls-8" d="M266.57189,25.7269l.3014.501a3.43234,3.43234,0,0,0,1.4191,1.3068l.5241.2591-.501.3015a3.43042,3.43042,0,0,0-1.3068,1.4191l-.2592.524-.3014-.501a3.43088,3.43088,0,0,0-1.41909-1.3067l-.52411-.2592.501-.3015a3.43084,3.43084,0,0,0,1.3067-1.4191Z" transform="translate(-28.42542 -18.9978)"/><path class="cls-8" d="M209.29869,51.2587l.3014.501a3.43145,3.43145,0,0,0,1.4191,1.3067l.5241.2592-.501.3014a3.43128,3.43128,0,0,0-1.3068,1.4192l-.2592.524-.3014-.501a3.43084,3.43084,0,0,0-1.4191-1.3067l-.5241-.2592.501-.3015a3.43078,3.43078,0,0,0,1.3067-1.4191Z" transform="translate(-28.42542 -18.9978)"/><path class="cls-8" d="M167.43919,324.0094l.3014.501a3.43174,3.43174,0,0,0,1.4191,1.3068l.5241.2591-.5009.3015a3.42991,3.42991,0,0,0-1.30689,1.4191l-.25921.524-.3014-.5009a3.43108,3.43108,0,0,0-1.4191-1.3068l-.5241-.2592.501-.3015a3.43145,3.43145,0,0,0,1.30681-1.419Z" transform="translate(-28.42542 -18.9978)"/></g><g id="Light_Bulb" data-name="Light Bulb"><path class="cls-8" d="M314.57969,397.8261l-123.9798-.2858c-5.1384-.0122-9.29589-3.6279-9.2855-8.0754h0c.0099-4.4492,4.1837-8.0448,9.3233-8.0333l123.979.2854c5.1391.0126,9.297,3.6279,9.28631,8.0757h0C323.89219,394.2416,319.71929,397.8383,314.57969,397.8261Z" transform="translate(-28.42542 -18.9978)"/><path class="cls-8" d="M314.57969,378.2714l-123.9798-.2858c-5.1384-.0122-9.29589-3.6279-9.2855-8.0754h0c.0099-4.4492,4.1837-8.0448,9.3233-8.0333l123.979.2854c5.1391.0126,9.297,3.6279,9.28631,8.0758h0C323.89219,374.687,319.71929,378.2836,314.57969,378.2714Z" transform="translate(-28.42542 -18.9978)"/><path class="cls-8" d="M309.59559,400.7513,196.078,400.4897a8.51912,8.51912,0,1,0-.03951,17.0382l12.4603.029,16.4593,31.5039a10.94733,10.94733,0,0,0,9.6742,5.8752l40.5634.0937a10.94224,10.94224,0,0,0,9.7526-5.9324l16.137-31.3269,8.4719.0192a8.51917,8.51917,0,1,0,.0384-17.0383Z" transform="translate(-28.42542 -18.9978)"/><path class="cls-7" d="M348.586,268.6738l.01119-.0001.0002.0003s-.3058.4719-.9127,1.3693c-.6119.9003-1.5165,2.2312-2.7045,3.9792l-2.0014,2.935c-.7236,1.0903-1.4314,2.3382-2.2462,3.6612q-1.20705,1.9944-2.6007,4.2971c-.9487,1.5231-1.7745,3.2528-2.7533,5.0283q-.71685,1.3416-1.4743,2.7594-.3783.709-.7665,1.4371-.3501.74715-.7093,1.5135-1.437,3.0654-3.0167,6.4356-1.40685,3.4446-2.9379,7.1934c-.9318,2.5318-1.85489,5.1835-2.8048,7.9347a160.77921,160.77921,0,0,0-4.6423,18.1106,105.22817,105.22817,0,0,0-2.0187,20.952l.0028.1684-.1625.0001c-35.9878.018-80.946.0405-132.3515.0663l-.2085.0001-.0172-.2093a136.00223,136.00223,0,0,0-11.9446-44.7486A174.29574,174.29574,0,0,0,160.56,289.8903q-3.35656-5.29605-7.15-10.4126c-2.48191-3.4334-5.2868-6.6582-8.0365-9.9895l-.3324-.4027h.5327l-.1974.4037a128.29352,128.29352,0,0,1-24.6891-54.4138c-.5378-2.5378-.8694-5.1198-1.2639-7.6996-.1614-1.2947-.283-2.5966-.4267-3.8977l-.2012-1.9549-.1253-1.9643c-.0727-1.311-.1917-2.6221-.2265-3.9387q-.042-1.9752-.0841-3.9564c-.0584-1.3209.0396-2.6433.0533-3.9677.0407-1.324.0504-2.6515.117-3.9779a132.07273,132.07273,0,0,1,5.6997-31.6129,129.003,129.003,0,0,1,54.08869-70.1242A131.03843,131.03843,0,0,1,197.549,71.9824a124.84086,124.84086,0,0,1,20.25119-6.4706,129.198,129.198,0,0,1,40.9377-2.7545,133.06582,133.06582,0,0,1,19.5643,3.3343,137.80466,137.80466,0,0,1,18.3243,6.122,127.89333,127.89333,0,0,1,31.544,19.0464,129.47266,129.47266,0,0,1,23.4452,25.1898A126.27,126.27,0,0,1,366.628,144.426c.98309,2.339,1.69089,4.7465,2.50749,7.0813.7706,2.3504,1.3671,4.7227,2.0458,7.0364.5269,2.3531,1.1116,4.6624,1.5658,6.9656q.30855,1.73385.6127,3.4442c.202,1.1403.422,2.2696.5411,3.406a130.16869,130.16869,0,0,1,1.0613,25.7331,128.09327,128.09327,0,0,1-8.9368,40.1441,132.44223,132.44223,0,0,1-6.4173,13.6171c-2.1197,3.8127-4.0563,6.9573-5.7136,9.4366q-1.2594,1.847-2.2184,3.2532-1.0086,1.35255-1.6927,2.2703c-.89139,1.1864-1.2932,1.7212-1.39739,1.8599.10019-.1387.48669-.6738,1.34409-1.861q.6786-.93435,1.6812-2.315.94785-1.40955,2.19571-3.2653c1.64169-2.4866,3.56219-5.6369,5.66509-9.4527a133.41141,133.41141,0,0,0,6.365-13.6184,128.23937,128.23937,0,0,0,8.8344-40.0854,130.06744,130.06744,0,0,0-1.09849-25.6697c-.12031-1.1333-.34141-2.2594-.54451-3.3964q-.30555-1.7052-.6156-3.4342c-.4562-2.2964-1.0425-4.5988-1.5708-6.9447-.6799-2.3065-1.2775-4.6714-2.0488-7.0143-.8174-2.3272-1.5256-4.727-2.5088-7.0581a125.98736,125.98736,0,0,0-14.9966-27.8763,129.1361,129.1361,0,0,0-23.391-25.0883,127.51754,127.51754,0,0,0-31.4481-18.9583,137.41048,137.41048,0,0,0-18.2612-6.0889A132.63347,132.63347,0,0,0,258.694,63.2352a128.76246,128.76246,0,0,0-40.78191,2.7612,124.376,124.376,0,0,0-20.1695,6.4518,130.58028,130.58028,0,0,0-19.1518,9.9642,128.5283,128.5283,0,0,0-53.86439,69.849,131.60114,131.60114,0,0,0-5.6778,31.4844c-.0664,1.3211-.076,2.6433-.1168,3.9621-.0136,1.3191-.1117,2.6363-.0535,3.9519q.0417,1.97325.0833,3.9407c.0345,1.3114.1531,2.6172.2252,3.923l.1244,1.9565.2003,1.947c.143,1.2959.2638,2.5927.4243,3.8822.3928,2.5694.7223,5.1411,1.2577,7.6687a127.83135,127.83135,0,0,0,24.5778,54.204l.3143.4039h-.5138l.1982-.4027c2.7282,3.3069,5.54129,6.5434,8.03839,9.9995q3.80745,5.12,7.16561,10.4441a174.68236,174.68236,0,0,1,11.78969,21.7334,136.39306,136.39306,0,0,1,11.9586,44.9117l-.2254-.209c51.4055.0258,96.3637.0483,132.3515.0664l-.1596.1682a105.31591,105.31591,0,0,1,2.0573-21.0222,160.55683,160.55683,0,0,1,4.6856-18.1344c.9572-2.7537,1.8876-5.4073,2.8267-7.9404q1.54185-3.7488,2.95961-7.1958,1.59028-3.3687,3.03789-6.435l.7147-1.513q.3909-.72765.7716-1.4364.76275-1.41675,1.4847-2.7575c.9857-1.7741,1.8183-3.502,2.7737-5.0229q1.40355-2.2977,2.62041-4.2899c.82129-1.3203,1.53559-2.5652,2.26549-3.6523q1.1163-1.616,2.0203-2.9248c1.20421-1.7377,2.121-3.0607,2.7413-3.9557.6191-.889.949-1.3433.949-1.3433l.0001.0002Z" transform="translate(-28.42542 -18.9978)"/><path class="cls-7" d="M136.7312,233.599a1.31513,1.31513,0,0,1-.1149-.2815c-.0742-.2172-.1692-.4951-.2881-.8432-.2536-.78-.6085-1.8717-1.0601-3.2606q-.3417-1.06935-.7546-2.3614c-.2518-.8701-.4704-1.8306-.7346-2.8549-.4943-2.0566-1.1712-4.3751-1.5942-7.0079q-.3651-1.9659-.7636-4.1118c-.2558-1.4316-.3891-2.941-.5996-4.4931-.4681-3.102-.6209-6.4492-.8553-9.9651a139.80266,139.80266,0,0,1,1.0394-22.8769,139.81013,139.81013,0,0,1,5.0956-22.3322c1.1632-3.3268,2.2026-6.5125,3.4806-9.3777.6165-1.4401,1.1472-2.8595,1.7755-4.171q.9549-1.96005,1.8318-3.7597c1.1093-2.4249,2.3798-4.479,3.4041-6.3294.5276-.9167.9942-1.7843,1.4689-2.5557q.74115-1.1337,1.3564-2.0746c.8053-1.2182,1.43829-2.1757,1.8905-2.8597l.50219-.7359a1.31517,1.31517,0,0,1,.18581-.2406,1.33888,1.33888,0,0,1-.14171.2706c-.11829.1969-.2696.4488-.4592.7643-.432.6959-1.0367,1.67-1.80609,2.9093q-.59565.94845-1.3152,2.0946c-.4611.7773-.9143,1.6503-1.4285,2.5717-.9978,1.8598-2.2423,3.9202-3.327,6.3484q-.85875,1.79895-1.7959,3.7624c-.6167,1.3117-1.1362,2.7305-1.7421,4.1691-1.2565,2.8624-2.2766,6.0424-3.4232,9.3606a142.53424,142.53424,0,0,0-5.0364,22.2555,142.52447,142.52447,0,0,0-1.0761,22.7872c.2208,3.5033.3564,6.8398.8047,9.9333.2005,1.548.3232,3.0539.5678,4.4824q.37965,2.1399.7283,4.1049c.3984,2.6294,1.0486,4.9471,1.5148,7.0057.2501,1.0252.4543,1.9874.6915,2.8596q.3876,1.295.7095,2.3696c.4113,1.3997.7347,2.4999.9656,3.2858.0986.3547.1773.6379.2389.8593A1.33949,1.33949,0,0,1,136.7312,233.599Z" transform="translate(-28.42542 -18.9978)"/><path class="cls-7" d="M174.92849,99.0327a83.49478,83.49478,0,0,1-6.882,6.2819,83.52273,83.52273,0,0,1-7.223,5.8882,83.554,83.554,0,0,1,6.8828-6.2824A83.5698,83.5698,0,0,1,174.92849,99.0327Z" transform="translate(-28.42542 -18.9978)"/><path class="cls-7" d="M349.95379,248.1086a.85807.85807,0,0,1,.0859-.2288c.08031-.1738.17831-.3861.2985-.6465q.4368-.902,1.1916-2.4606.39585-.8043.8719-1.7716c.3058-.6537.607-1.3784.9489-2.1484.6635-1.5488,1.4912-3.2815,2.2155-5.2761q.5736-1.48485,1.199-3.1043c.412-1.0812.7608-2.2349,1.1666-3.413.8409-2.3482,1.5296-4.9223,2.30231-7.6157a129.13419,129.13419,0,0,0,4.36659-36.0848c-.1079-2.8003-.1629-5.4647-.4194-7.9459-.1131-1.241-.1765-2.4447-.3189-3.5929q-.22093-1.7202-.4238-3.3008c-.2278-2.1098-.6183-3.9897-.8932-5.6521-.14829-.8292-.2679-1.6049-.4091-2.3125q-.23128-1.05165-.424-1.9282-.3609-1.6917-.57019-2.6735c-.05461-.2815-.09921-.511-.13561-.6989a.85979.85979,0,0,1-.029-.2426.84909.84909,0,0,1,.0805.2295c.05.1845.11111.41.1859.6866q.2442.9729.6661,2.6543.21317.87255.4694,1.9221c.1558.7061.2898,1.4806.4521,2.3092.3029,1.6611.7198,3.5419.9717,5.6547l.4585,3.3067c.1533,1.1508.2271,2.3574.3499,3.6019.2759,2.4881.34751,5.1613.4688,7.9719a125.66737,125.66737,0,0,1-4.3829,36.2199c-.7882,2.7002-1.4952,5.2789-2.3566,7.6292-.416,1.1792-.7755,2.3333-1.19879,3.4143q-.64321,1.6164-1.234,3.1019c-.74861,1.9916-1.602,3.7188-2.29241,5.2598-.3553.766-.6702,1.4863-.99,2.1349q-.49875.95715-.9144,1.7549-.81,1.5306-1.2801,2.4191c-.1387.2508-.2518.4553-.3444.6226A.84951.84951,0,0,1,349.95379,248.1086Z" transform="translate(-28.42542 -18.9978)"/></g><g id="Robot"><path class="cls-9" d="M308.49919,125.688c-6.84-3.9152-13.9899-7.4858-21.6847-9.1901a9.00329,9.00329,0,0,0-3.2837-.2744,3.4788,3.4788,0,0,0-2.6542,1.7612c-.65859,1.3672-.0224,3.0042.8157,4.2693,1.8495,2.7917,4.6208,4.8277,7.41171,6.6785,7.64129,5.0675,15.85709,9.197,24.05009,13.3133-1.0382-5.831-3.0815-10.8479-4.6549-16.5578" transform="translate(-28.42542 -18.9978)"/><path class="cls-9" d="M360.94139,140.7599c2.2348,7.5579,4.9318,15.0809,9.3129,21.6324a9.00032,9.00032,0,0,0,2.1826,2.4686,3.47891,3.47891,0,0,0,3.1354.5626c1.421-.5324,2.0932-2.155,2.3623-3.6484.5939-3.2957-.00059-6.6827-.7373-9.9495-2.017-8.9442-5.0977-17.6081-8.171-26.2466-3.2814,4.9305-5.2738,9.9679-8.0849,15.1809" transform="translate(-28.42542 -18.9978)"/><path class="cls-9" d="M308.39619,125.5335s.538,52.3513,29.9174,53.3755,30.6107-53.0009,30.6107-53.3755c0,0-3.4697-7.8076-30.2641-7.502C311.86589,118.337,308.39619,125.5335,308.39619,125.5335Z" transform="translate(-28.42542 -18.9978)"/><path class="cls-7" d="M347.42229,146.3243a10.1295,10.1295,0,1,1-9.3641-10.8409A10.12947,10.12947,0,0,1,347.42229,146.3243Z" transform="translate(-28.42542 -18.9978)"/><path class="cls-6" d="M344.68159,146.124a7.38144,7.38144,0,1,1-6.8237-7.8998A7.38158,7.38158,0,0,1,344.68159,146.124Z" transform="translate(-28.42542 -18.9978)"/><path class="cls-8" d="M341.12209,147.4657a7.57871,7.57871,0,0,1-.0685-1.2175c-.0182-.7638-.0334-1.8514-.0347-3.1808l.0815.1459c-1.1055-.6447-2.3926-1.3955-3.7978-2.215l.2121.0031c-1.19169.6697-2.48369,1.3956-3.8322,2.1533-.1036.1729.1397-.2349.1147-.1925v.0034l-.0001.0045-.00009.0091-.00031.0181-.0004.0362-.0011.0723-.00219.1443-.00431.2873-.009.5698q-.00945.56625-.01869,1.118c-.01421.7334-.02771,1.4455-.04081,2.1322l-.1034-.1851c1.38821.848,2.6533,1.6209,3.7518,2.2921l-.1672-.0025c1.1711-.6298,2.13561-1.1325,2.8165-1.4789a7.59642,7.59642,0,0,1,1.1042-.5173,5.79735,5.79735,0,0,1-.95909.6339c-.64651.3944-1.60151.9629-2.79861,1.6545l-.0819.0473-.08549-.0497c-1.11171-.6486-2.39251-1.3955-3.79771-2.215l-.1047-.0612.0012-.1243c.0069-.6868.0141-1.3991.0215-2.1324q.0069-.5517.0139-1.1181l.0077-.5698.00411-.2874.00209-.1443.001-.0723.0005-.0361.0003-.0181v-.0091l.0002-.0046v-.0032c-.0253.0415.2187-.3668.116-.1942,1.35291-.7498,2.6491-1.4681,3.8448-2.1306l.1087-.0603.1035.0632c1.388.848,2.6597,1.6249,3.7518,2.2922l.0844.0515-.0028.0946c-.0409,1.3817-.0882,2.4921-.1284,3.2485A5.81689,5.81689,0,0,1,341.12209,147.4657Z" transform="translate(-28.42542 -18.9978)"/><path class="cls-7" d="M308.274,125.4867a.91988.91988,0,0,1,.15419.045c.1096.0372.257.0873.44481.1512.4.1411.97159.3426,1.70249.6004q.555.198,1.2282.4384c.4521.151.9505.2934,1.4818.4588,1.0669.3169,2.2673.727,3.6318,1.048q1.0179.26115,2.1295.5463c.7413.1866,1.5253.3256,2.3298.5001,1.606.369,3.3486.6196,5.1761.9155a84.48481,84.48481,0,0,0,24.0151.0021c1.8278-.2956,3.5706-.546,5.1768-.9147.8046-.1745,1.5887-.3133,2.33-.4998q1.11045-.2847,2.1296-.546c1.3646-.3208,2.5651-.7307,3.6319-1.0473.5313-.1654,1.0297-.3076,1.4817-.4586q.67215-.23985,1.22821-.4382c.73089-.2575,1.30239-.4589,1.70239-.5999.1878-.0638.3351-.1139.4447-.1512a.93664.93664,0,0,1,.1542-.0449.90273.90273,0,0,1-.1464.0647c-.10789.0421-.2528.0985-.4375.1705-.3971.1497-.9645.3635-1.6902.6371q-.5529.20595-1.2235.4558c-.45069.1567-.948.3046-1.4784.4755-1.065.3277-2.2645.748-3.6291,1.0786q-1.0182.2676-2.1303.5599c-.7418.191-1.5265.3341-2.3321.5125-1.608.3768-3.3535.6342-5.18479.9356a83.11125,83.11125,0,0,1-24.06951-.0021c-1.831-.3017-3.5763-.5593-5.1842-.9363-.8054-.1786-1.5901-.3219-2.3318-.5128q-1.11074-.2922-2.1302-.5604c-1.3645-.3308-2.564-.7513-3.629-1.0792-.5304-.171-1.0277-.319-1.4784-.4758q-.66975-.2496-1.2236-.4561c-.7257-.2736-1.2932-.4876-1.69029-.6374l-.43751-.1705A.9057.9057,0,0,1,308.274,125.4867Z" transform="translate(-28.42542 -18.9978)"/><g class="cls-5"><path d="M308.39619,125.5335s3.4697-7.1965,30.264-7.502c26.7944-.3056,30.2641,7.502,30.2641,7.502S341.89659,138.8635,308.39619,125.5335Z" transform="translate(-28.42542 -18.9978)"/></g><path class="cls-6" d="M317.61,162.7912a.30469.30469,0,0,1-.05081-.0769l-.1306-.2355q-.1788-.33765-.4848-.9155-.1563-.30225-.3439-.6653-.17384-.3741-.3751-.8079c-.2717-.5787-.5777-1.2394-.8746-1.9876q-.22935-.559-.4797-1.1686-.22874-.61845-.4752-1.2842c-.343-.8825-.6335-1.8517-.976-2.8591-.6257-2.0339-1.2397-4.2925-1.7786-6.6881-.5273-2.3991-.9314-4.7044-1.2495-6.8079-.2937-2.107-.5267-4.0091-.65419-5.6129-.07771-.8005-.12461-1.5266-.16451-2.1643-.0447-.6373-.0746-1.1866-.0877-1.6362l-.0342-1.035-.00359-.2693a.04645.04645,0,1,1,.02119-.0009l.0243.2683q.027.38085.0731,1.0324c.0255.4485.0672.9966.1228,1.6323.051.6362.108,1.3604.195,2.159.1461,1.5997.3937,3.4968.6973,5.5983.3279,2.0981.7368,4.3973,1.263,6.791.5376,2.3903,1.1444,4.6445,1.7585,6.6764.3366,1.0061.6202,1.9751.9553,2.8576q.2397.6657.4628,1.2851.24285.6099.466,1.1705c.2874.7499.5832,1.413.8442,1.995q.19245.4362.3588.8135.1782.36615.327.6719l.4494.9321.11231.245A.30813.30813,0,0,1,317.61,162.7912Z" transform="translate(-28.42542 -18.9978)"/><path class="cls-6" d="M331.76569,175.3787a2.03669,2.03669,0,0,1-.46769-.057,9.85629,9.85629,0,0,1-1.24841-.3015,12.9967,12.9967,0,0,1-1.78059-.684,13.54625,13.54625,0,0,1-3.81-2.6788,12.98765,12.98765,0,0,1-1.24641-1.4442,9.87679,9.87679,0,0,1-.7061-1.0727,2.04416,2.04416,0,0,1-.2119-.4208c.0339-.0203.3677.5609,1.0345,1.4039a14.83693,14.83693,0,0,0,1.2642,1.3972,14.53342,14.53342,0,0,0,3.75871,2.6427,14.82757,14.82757,0,0,0,1.74249.7168C331.11339,175.2225,331.77339,175.34,331.76569,175.3787Z" transform="translate(-28.42542 -18.9978)"/><path class="cls-6" d="M337.89029,156.9094a1.43208,1.43208,0,0,1-.2797.0286,7.26532,7.26532,0,0,1-.8065.0232,10.5548,10.5548,0,0,1-2.9274-.4749,12.15024,12.15024,0,0,1-1.9065-.767,12.409,12.409,0,0,1-1.9827-1.2802,10.75043,10.75043,0,0,1-4.1432-9.5419,12.412,12.412,0,0,1,.4184-2.323,12.139,12.139,0,0,1,.7414-1.9167,10.557,10.557,0,0,1,1.6515-2.463,7.2597,7.2597,0,0,1,.5676-.5734,1.40861,1.40861,0,0,1,.21181-.1847c.01579.016-.26561.2832-.71831.8112a11.1934,11.1934,0,0,0-1.5801,2.4735,12.33553,12.33553,0,0,0-.7079,1.8998,12.47176,12.47176,0,0,0-.3934,2.2911,10.67541,10.67541,0,0,0,4.0718,9.3775,12.47352,12.47352,0,0,0,1.9423,1.2766,12.32123,12.32123,0,0,0,1.8713.7799,11.19586,11.19586,0,0,0,2.8862.5343C337.50189,156.9101,337.88929,156.8869,337.89029,156.9094Z" transform="translate(-28.42542 -18.9978)"/><path class="cls-9" d="M336.62269,71.0992s-25.614-.3079-29.66869,21.8767c-4.05481,22.1847,17.60659,22.599,23.83649,23.0192,2.8251.1905,8.869.2101,14.20251.1176,11.80729-.205,20.15059-2.4904,22.98959-13.4445a20.8282,20.8282,0,0,0,.6378-3.9233C369.37129,86.7388,361.24389,70.5082,336.62269,71.0992Z" transform="translate(-28.42542 -18.9978)"/><path class="cls-7" d="M355.20409,104.888l-37.21209.581a7.06334,7.06334,0,0,1-7.17281-6.952h0a7.06342,7.06342,0,0,1,6.9523-7.1726l37.2122-.5809a7.06325,7.06325,0,0,1,7.1727,6.952h0A7.06339,7.06339,0,0,1,355.20409,104.888Z" transform="translate(-28.42542 -18.9978)"/><path class="cls-6" d="M325.71369,97.7467a2.26674,2.26674,0,1,1-1.7886-2.6602A2.26671,2.26671,0,0,1,325.71369,97.7467Z" transform="translate(-28.42542 -18.9978)"/><path class="cls-6" d="M351.71079,97.3319a2.26674,2.26674,0,1,1-1.7886-2.6602A2.26659,2.26659,0,0,1,351.71079,97.3319Z" transform="translate(-28.42542 -18.9978)"/><path class="cls-6" d="M332.23,96.7012c.16849.0181.08439.8108.57919,1.8647a4.68772,4.68772,0,0,0,1.2033,1.5815,3.63231,3.63231,0,0,0,4.3953.4014,4.68411,4.68411,0,0,0,1.4699-1.3374c.6775-.9468.7384-1.7415.9075-1.7288.06581.0013.13481.2014.1349.5765a3.51042,3.51042,0,0,1-.4123,1.5309,4.70466,4.70466,0,0,1-1.5914,1.7705,4.30274,4.30274,0,0,1-5.5512-.5071,4.70311,4.70311,0,0,1-1.2441-2.0293,3.511,3.511,0,0,1-.1283-1.5803C332.06089,96.8749,332.165,96.6905,332.23,96.7012Z" transform="translate(-28.42542 -18.9978)"/><path class="cls-6" d="M333.38059,72.7586a.31489.31489,0,0,1-.0921.0155l-.2708.0245c-.23769.0247-.59.0321-1.0402.0862a28.07387,28.07387,0,0,0-3.7801.6265,27.43748,27.43748,0,0,0-18.8069,15.5206,28.06808,28.06808,0,0,0-1.3323,3.5923c-.1385.4317-.2127.7762-.2819,1.0048l-.0755.2612a.3159.3159,0,0,1-.0326.0875.31212.31212,0,0,1,.0119-.0923l.0554-.2662c.0562-.2321.1179-.5806.2448-1.017a25.475,25.475,0,0,1,1.2758-3.6299,27.01355,27.01355,0,0,1,2.8166-4.9636,26.61239,26.61239,0,0,1,10.6842-8.817,27.00927,27.00927,0,0,1,5.4075-1.8236,25.47241,25.47241,0,0,1,3.8063-.564c.4525-.0418.8065-.0362,1.0451-.0474l.272-.0039A.30972.30972,0,0,1,333.38059,72.7586Z" transform="translate(-28.42542 -18.9978)"/><path class="cls-6" d="M308.31779,103.4903a2.96237,2.96237,0,0,1-.3641-.7971,11.32567,11.32567,0,0,1-.6519-4.1606,2.95818,2.95818,0,0,1,.1029-.8702c.06531.003-.0251,1.336.2334,2.949C307.88529,102.2258,308.37909,103.4675,308.31779,103.4903Z" transform="translate(-28.42542 -18.9978)"/><path class="cls-6" d="M349.05489,89.463c0,.0575-4.9018.104-10.94689.104-6.04731,0-10.94791-.0465-10.94791-.104,0-.0573,4.9006-.1039,10.94791-.1039C344.15309,89.3591,349.05489,89.4057,349.05489,89.463Z" transform="translate(-28.42542 -18.9978)"/><path class="cls-6" d="M330.37429,114.4249a.63755.63755,0,0,1-.185.0301c-.1465.0127-.3225.0278-.534.046-.2321.0199-.5164.0384-.8471.0435-.3305.0072-.7073.026-1.1236.0131a28.926,28.926,0,0,1-2.9207-.1753,29.66235,29.66235,0,0,1-6.96489-1.6402,28.94353,28.94353,0,0,1-2.69211-1.1465c-.3784-.1742-.7071-.3592-.9998-.5131-.2936-.1521-.5397-.2956-.7385-.4169l-.4573-.2793a.64052.64052,0,0,1-.1521-.1096.649.649,0,0,1,.1731.0733c.1304.0672.2872.1479.4756.2449.2043.1101.4552.2427.7528.3845.2966.1435.6284.3185,1.009.4833.7509.3512,1.6645.7264,2.6944,1.0993a31.88057,31.88057,0,0,0,6.922,1.63c1.08791.1259,2.0728.1978,2.9015.2186.4142.0223.7892.0138,1.1187.0177.32971.0059.6134-.0007.8454-.0081.2119-.0028.38831-.005.5349-.007A.65467.65467,0,0,1,330.37429,114.4249Z" transform="translate(-28.42542 -18.9978)"/><path class="cls-6" d="M361.69369,128.7313a.39064.39064,0,0,1-.0953.0434l-.287.1076c-.2693.0958-.64039.2279-1.1107.3952-.4818.1737-1.0744.3765-1.7725.5813-.6967.2087-1.4839.4689-2.3727.6903q-.66465.1758-1.3897.3675c-.48379.1258-.9937.2294-1.5181.3514-1.0472.2537-2.1808.4532-3.371.6777a70.6287,70.6287,0,0,1-15.7015.9645c-1.2088-.0772-2.3585-.1365-3.4289-.2601-.5355-.0569-1.0542-.0973-1.5498-.163q-.74235-.1014-1.4242-.1946c-.90929-.111-1.7224-.2729-2.43929-.3948-.71781-.1177-1.33081-.2466-1.83021-.36-.4871-.1084-.8716-.1941-1.1505-.2561l-.298-.0718a.38733.38733,0,0,1-.0999-.0314.39964.39964,0,0,1,.10461.0107l.30219.0515c.2806.0528.6674.1256,1.1575.2178.50131.1011,1.1156.2182,1.8342.3248.7176.1108,1.5307.2622,2.4394.3637q.68057.08655,1.4229.1809c.4949.0613,1.0129.0976,1.5474.1507,1.0686.116,2.2158.1685,3.4217.2403,2.4139.0969,5.0725.1021,7.8569-.06,2.7822-.1798,5.4196-.5104,7.8032-.902,1.1878-.2187,2.3198-.4113,3.3661-.6572.524-.118,1.0336-.2174,1.5173-.3388q.7245-.18435,1.39-.3537c.8894-.2119,1.6779-.4618,2.3767-.6595.7001-.1939,1.2956-.3853,1.7807-.5469.4752-.1516.8503-.2712,1.1223-.3579l.2938-.0882A.39879.39879,0,0,1,361.69369,128.7313Z" transform="translate(-28.42542 -18.9978)"/></g><g id="Rocket"><path class="cls-10" d="M118.3654,300.8649l.0698,13.8693s23.0263-13.0445,16.269-25.4495Z" transform="translate(-28.42542 -18.9978)"/><path class="cls-10" d="M120.6123,268.8229s-16.5728-6.071-29.172,5.2133l12.9189,7.2909Z" transform="translate(-28.42542 -18.9978)"/><path class="cls-2" d="M104.3592,281.3271c.5253.6877,14.0062,19.5378,14.0062,19.5378l35.22069-24.9628a12.86347,12.86347,0,0,0,2.3836-18.8013h0a12.86343,12.86343,0,0,0-17.66569-1.8889Z" transform="translate(-28.42542 -18.9978)"/><path class="cls-7" d="M104.3592,281.3272a2.5306,2.5306,0,0,1,.2825-.2413c.218-.1738.5097-.4061.881-.702.8091-.6345,1.9634-1.5397,3.4388-2.6968,3.036-2.3635,7.3897-5.7527,12.7599-9.9334,2.7083-2.0997,5.6721-4.3976,8.8526-6.8634q2.3913-1.84935,4.9404-3.8207,1.27455-.98415,2.5853-1.9966a13.60731,13.60731,0,0,1,2.9282-1.7148,11.69646,11.69646,0,0,1,3.353-.9273,12.60727,12.60727,0,0,1,3.5602-.0002,13.017,13.017,0,0,1,6.6479,2.9484,13.3701,13.3701,0,0,1,2.51389,2.8169,13.91648,13.91648,0,0,1,1.6246,3.4785,13.29989,13.29989,0,0,1-.0946,7.7527,12.97789,12.97789,0,0,1-4.1947,6.1306c-1.9551,1.5006-3.9313,2.816-5.84859,4.1987-3.8475,2.7211-7.5652,5.3503-11.1158,7.8614-7.1017,5.0098-13.5334,9.5469-18.9984,13.4021l-.1555.1097-.1092-.1543c-4.2915-6.0591-7.7716-10.9726-10.1972-14.3972-1.1752-1.6745-2.0941-2.9839-2.7367-3.8995-.2951-.427-.5263-.7616-.6981-1.0102a2.85975,2.85975,0,0,1-.2195-.3413,3.916,3.916,0,0,1,.2746.3479c.185.2492.4341.5846.752,1.0127.6664.9103,1.6193,2.2121,2.8381,3.8769,2.449,3.3752,5.9629,8.2178,10.2961,14.1895l-.2645-.0445c5.4479-3.8793,11.8594-8.4449,18.9389-13.4861,3.5454-2.5183,7.2577-5.1551,11.0997-7.8841,1.903-1.3759,3.918-2.7237,5.81659-4.1835a12.47139,12.47139,0,0,0,4.02631-5.8878,12.79522,12.79522,0,0,0,.09369-7.4465,13.41618,13.41618,0,0,0-1.5574-3.342,12.87041,12.87041,0,0,0-2.4132-2.7106,12.52875,12.52875,0,0,0-6.387-2.8457,12.12751,12.12751,0,0,0-3.4266-.0077,11.22936,11.22936,0,0,0-3.2307.884c-2.0634.8292-3.6846,2.3564-5.4022,3.6167q-2.5377,1.942-4.9231,3.7677c-3.1805,2.4279-6.1443,4.6904-8.8526,6.7579-5.4204,4.1211-9.8148,7.4621-12.8791,9.7919-1.5157,1.144-2.7013,2.039-3.5324,2.6664l-.932.6929A3.64907,3.64907,0,0,1,104.3592,281.3272Z" transform="translate(-28.42542 -18.9978)"/><path class="cls-10" d="M121.2356,280.2483,99.2234,296.076s.947,2.4165,1.5506,2.1712c.5055-.2056,17.0847-11.4952,22.4606-15.1597a1.72985,1.72985,0,0,0,.2838-2.6144h0A1.73616,1.73616,0,0,0,121.2356,280.2483Z" transform="translate(-28.42542 -18.9978)"/><path class="cls-6" d="M144.0728,270.3141a7.359,7.359,0,1,1-7.8175-6.8699A7.35892,7.35892,0,0,1,144.0728,270.3141Z" transform="translate(-28.42542 -18.9978)"/><path class="cls-7" d="M144.0728,270.3141c-.0571.0072-.0687-.6528-.438-1.7484a7.3373,7.3373,0,0,0-2.937-3.7545,7.16452,7.16452,0,0,0-6.8228-.5481,7.05719,7.05719,0,0,0-3.1335,2.6976,7.09545,7.09545,0,0,0,.5409,8.3915,7.05755,7.05755,0,0,0,3.4546,2.2732,7.16511,7.16511,0,0,0,6.6963-1.4206,7.338,7.338,0,0,0,2.4299-4.1006c.2253-1.134.152-1.7899.2096-1.7901a1.67019,1.67019,0,0,1,.057.4695,5.82279,5.82279,0,0,1-.0752,1.3557,7.32517,7.32517,0,0,1-2.3893,4.3323,7.43822,7.43822,0,0,1-3.064,1.6432,7.56016,7.56016,0,0,1-3.9933-.0471,7.47806,7.47806,0,0,1-3.7009-2.4006,7.54383,7.54383,0,0,1-.5782-8.9706,7.47938,7.47938,0,0,1,3.3613-2.8556,7.56164,7.56164,0,0,1,3.9536-.5598,7.43862,7.43862,0,0,1,3.2498,1.2356,7.32584,7.32584,0,0,1,2.9265,3.9894,5.81306,5.81306,0,0,1,.2489,1.3351A1.66989,1.66989,0,0,1,144.0728,270.3141Z" transform="translate(-28.42542 -18.9978)"/><path class="cls-10" d="M155.23479,274.5101c11.83-11.0608,9.7179-23.8733,9.7179-23.8733-15.91109-4.1797-26.64859,4.5751-26.64859,4.5751C148.8948,256.7024,154.56049,263.113,155.23479,274.5101Z" transform="translate(-28.42542 -18.9978)"/></g><g id="Character"><path class="cls-11" d="M280.88589,227.4245l4.0847,37.7666,24.3231,8.1072.9864,11.7637L275.949,282.7646s-10.57621.2594-12.88291-13.6842L262.506,232.439Z" transform="translate(-28.42542 -18.9978)"/><path class="cls-11" d="M331.36479,284.8628a1.68881,1.68881,0,0,1-1.8169.5015,1.95508,1.95508,0,0,1-.38789-.1911c-.85631-.5472-.26511-2.4293-.26511-2.4293l-4.28989-1.9164s-6.82271,2.2191-9.55491,4.1628c-2.73209,1.9437-7.4897-1.4723-7.4897-1.4723l.6903-10.0393,10.2226-5.2818s-.6242.3108.3136-.9348c.9379-1.2455,3.3913-.0325,3.3913-.0325.58581-.5836,2.34481-.3836,2.34481-.3836l7.017,2.7462a5.1309,5.1309,0,0,1,3.02429,3.237l1.7806,5.6533s.69511,3.9152.2208,4.6574a1.49794,1.49794,0,0,1-1.9378.506s-.9615,2.199-1.585,2.1199a5.12424,5.12424,0,0,1-1.6781-.903Z" transform="translate(-28.42542 -18.9978)"/><path class="cls-12" d="M317.04089,283.8663a2.69872,2.69872,0,0,0,.5166-.2146c.3758-.1672.86251-.3836,1.4688-.6531a52.10028,52.10028,0,0,1,5.6223-2.0197l-.1077-.0074c1.2769.5809,2.7169,1.2359,4.2764,1.9454l-.1035-.2297a5.10568,5.10568,0,0,0-.2057,1.1172,2.10274,2.10274,0,0,0,.2235,1.2121,1.15022,1.15022,0,0,0,.5223.4299,1.628,1.628,0,0,0,.6205.2037,1.89631,1.89631,0,0,0,1.278-.3226,2.00283,2.00283,0,0,0,.2649-.2135l.0598-.0608.0296-.031.0147-.0156.0019-.002c.0636-.0068-.54829.0498-.2882.0268l.0041.0032.0084.0065.1267.0953c.1692.1248.3435.2438.5246.3578a5.14821,5.14821,0,0,0,.5733.3151,2.32818,2.32818,0,0,0,.3235.1243.78556.78556,0,0,0,.4361.0294,1.37922,1.37922,0,0,0,.5957-.4766,5.06072,5.06072,0,0,0,.3853-.5572,11.10925,11.10925,0,0,0,.623-1.1924l-.3096.1118a1.7592,1.7592,0,0,0,1.8202-.1282,1.42983,1.42983,0,0,0,.5463-.8208,4.15408,4.15408,0,0,0,.07031-.9089,24.91194,24.91194,0,0,0-.38411-3.5496l-.0023-.0138-.0051-.0162c-.30249-.9618-.6238-1.9828-.9487-3.0159q-.3036-.96285-.6025-1.9114a9.15935,9.15935,0,0,0-.7162-1.8862,4.98736,4.98736,0,0,0-1.3393-1.5085,6.495,6.495,0,0,0-1.7446-.8711c-2.3269-.9031-4.5455-1.7644-6.6198-2.5695l-.0283-.011-.0253-.0023a6.56135,6.56135,0,0,0-1.2797-.001,2.10425,2.10425,0,0,0-1.2314.4523l.2718-.012a2.58709,2.58709,0,0,0-2.3591-.4843,3.02379,3.02379,0,0,0-1.634,1.5287l.07961-.0801c-2.93261,1.5048-5.32561,2.7329-7.03751,3.6113q-1.18905.6285-1.9048,1.0067a4.18908,4.18908,0,0,0-.6494.3822,4.185,4.185,0,0,0,.6953-.2907q.7335-.3474,1.947-.9222c1.729-.844,4.146-2.0244,7.1078-3.4707l.0481-.0234.0317-.057a2.67706,2.67706,0,0,1,1.4345-1.3232,2.20556,2.20556,0,0,1,1.9819.4328l.141.1082.1312-.1203a1.77469,1.77469,0,0,1,.9883-.326,6.20055,6.20055,0,0,1,1.1898.0105l-.0531-.0132c2.0698.8165,4.2835,1.6899,6.6056,2.606a6.057,6.057,0,0,1,1.6325.8155,4.52888,4.52888,0,0,1,1.20911,1.3679,8.79108,8.79108,0,0,1,.673,1.7937q.29834.94845.60149,1.9116c.3256,1.0328.6477,2.0539.9508,3.0152l-.0071-.0295a24.82343,24.82343,0,0,1,.38481,3.4705,3.77647,3.77647,0,0,1-.05611.8029.9692.9692,0,0,1-.3755.5579,1.307,1.307,0,0,1-1.3345.0875l-.2161-.0964-.09379.2084a10.82377,10.82377,0,0,1-.58941,1.1422,2.26166,2.26166,0,0,1-.7242.8446.43818.43818,0,0,1-.1876-.0281,1.89987,1.89987,0,0,1-.2665-.101,4.71885,4.71885,0,0,1-.5256-.285c-.1711-.1056-.33869-.2183-.5003-.3357l-.1193-.0885-.0069-.0051-.0033-.0026c.2589-.0242-.3545.0312-.29189.0263l-.00141.0015-.0117.0123-.0232.0245-.0466.0485a1.58942,1.58942,0,0,1-.2077.1697,1.48144,1.48144,0,0,1-.99339.2617,1.23549,1.23549,0,0,1-.48521-.1585.75688.75688,0,0,1-.3642-.2797,2.90451,2.90451,0,0,1,.0041-2.0014l.043-.1657-.1466-.0642c-1.5692-.6882-3.0179-1.3234-4.3027-1.8869l-.0551-.0242-.0531.0167a44.70481,44.70481,0,0,0-5.6051,2.1658c-.635.302-1.1177.5515-1.4385.7306A2.67979,2.67979,0,0,0,317.04089,283.8663Z" transform="translate(-28.42542 -18.9978)"/><path class="cls-12" d="M322.73279,270.1037a8.98231,8.98231,0,0,0,2.1395,1.3067,24.00672,24.00672,0,0,0,5.855,2.0103l-.1959-.2252c.02761.3886.0587.7988.1125,1.2128a18.46024,18.46024,0,0,0,2.1713,6.6617,15.53161,15.53161,0,0,0,1.1604,1.7826c.3101.3951.4999.598.5261.5784.0665-.0477-.5862-.9419-1.3778-2.5238a20.57956,20.57956,0,0,1-1.9902-6.5599c-.0524-.4034-.0839-.8028-.1134-1.1812l-.0147-.1894-.1813-.0361a28.85953,28.85953,0,0,1-5.8136-1.8276C323.59459,270.4986,322.76859,270.042,322.73279,270.1037Z" transform="translate(-28.42542 -18.9978)"/><path class="cls-12" d="M328.48749,276.1361a11.93493,11.93493,0,0,0,3.09051,8.4579c.12279-.0873-1.06661-1.7537-1.91021-4.0958C328.803,278.1647,328.63759,276.1237,328.48749,276.1361Z" transform="translate(-28.42542 -18.9978)"/><path class="cls-12" d="M306.90149,280.2321c-.0087.0112.0578.0771.1949.1943a5.38127,5.38127,0,0,0,.6424.4645,8.01679,8.01679,0,0,0,2.7626,1.0811,8.14346,8.14346,0,0,0,4.4949-.4015,8.50433,8.50433,0,0,0,4.3015-3.7342l-.3097.0996a19.1953,19.1953,0,0,0,5.1721,1.6312,19.00365,19.00365,0,0,0,2.0073.2209,6.09972,6.09972,0,0,0,2.0063-.1191,1.50408,1.50408,0,0,0,.9055-.6058,1.38562,1.38562,0,0,0-.4872-1.9233l-.7804-.4287c-2.0582-1.1134-3.9601-2.0232-5.579-2.7349-1.6194-.7109-2.9531-1.2303-3.8826-1.5659a8.38311,8.38311,0,0,0-1.4653-.4619,10.02681,10.02681,0,0,0,1.3946.6405c.9057.3896,2.21461.9565,3.8087,1.7049,1.5938.7493,3.47,1.6869,5.505,2.8161q.37965.21345.768.4318a.91776.91776,0,0,1,.4203.5618.90328.90328,0,0,1-.1048.702,1.028,1.028,0,0,1-.638.3993,5.73115,5.73115,0,0,1-1.8427.093,18.96344,18.96344,0,0,1-1.9556-.2177,19.21978,19.21978,0,0,1-5.0479-1.5722l-.2026-.0954-.1074.1952a8.18407,8.18407,0,0,1-4.0372,3.5851,8.00653,8.00653,0,0,1-4.2921.4844,8.65188,8.65188,0,0,1-2.7334-.9252C307.222,280.4284,306.92289,280.2038,306.90149,280.2321Z" transform="translate(-28.42542 -18.9978)"/><path class="cls-7" d="M336.24109,421.371a2.08884,2.08884,0,0,0-.0282-.9416,6.23437,6.23437,0,0,0-.9514-2.3952,3.33327,3.33327,0,0,0-.5674-.6919,1.07512,1.07512,0,0,0-1.0655-.24.76188.76188,0,0,0-.4711.4734,1.02087,1.02087,0,0,0,.0219.6388,6.45362,6.45362,0,0,0,.4958.9614c.3693.6219.6742,1.2411,1.1463,1.9414a1.35928,1.35928,0,0,0,1.2644.5693,2.70825,2.70825,0,0,0,1.2218-.5413,10.55538,10.55538,0,0,0,1.795-1.6541,10.73776,10.73776,0,0,0,.7071-.9213,3.03472,3.03472,0,0,0,.5318-1.0577,1.00282,1.00282,0,0,0-.5395-1.1531,1.19909,1.19909,0,0,0-1.1374.2573,7.00416,7.00416,0,0,0-1.19869,1.3584,9.07424,9.07424,0,0,0-1.17531,2.2805,2.36206,2.36206,0,0,0-.2049.917,18.05005,18.05005,0,0,1,1.7001-2.9609,7.20131,7.20131,0,0,1,1.1519-1.2167.75855.75855,0,0,1,.6756-.1782.50675.50675,0,0,1,.2201.5929,2.65532,2.65532,0,0,1-.4654.8542,10.65959,10.65959,0,0,1-.6818.8663,10.44645,10.44645,0,0,1-1.7075,1.5587,2.21344,2.21344,0,0,1-.9569.442.794.794,0,0,1-.767-.3538c-.3928-.5706-.7692-1.2754-1.1316-1.8618a6.63666,6.63666,0,0,1-.4748-.858c-.0953-.2691-.04249-.4427.1446-.518.4308-.1778.85.3088,1.1415.7221A9.00806,9.00806,0,0,1,336.24109,421.371Z" transform="translate(-28.42542 -18.9978)"/><polygon class="cls-11" points="283.403 403.208 271.281 429.479 251.72 420.442 264.258 387.929 283.403 403.208"/><path class="cls-10" d="M301.99719,446.7239l-7.0824,13.5053s18.1287,18.7446,16.4261,22.9349l-42.617-20.4333,11.7079-27.0894Z" transform="translate(-28.42542 -18.9978)"/><path class="cls-1" d="M282.62219,452.0642a1.92992,1.92992,0,0,0-2.1557,1.409,1.85555,1.85555,0,0,0,1.3782,2.149,2.0358,2.0358,0,0,0,2.275-1.5041,1.92486,1.92486,0,0,0-1.6813-2.0763" transform="translate(-28.42542 -18.9978)"/><g class="cls-13"><path class="cls-6" d="M268.72389,462.7308l1.773-3.3969,40.1976,20.8615s1.5017,1.7351.6464,2.9687Z" transform="translate(-28.42542 -18.9978)"/></g><path class="cls-7" d="M295.70939,460.3433c-.1065.2052-1.19239-.1996-2.537-.0212-1.3495.1429-2.3097.7912-2.4616.617-.1723-.1325.7344-1.2277,2.3664-1.4147C294.70709,459.3227,295.84639,460.1742,295.70939,460.3433Z" transform="translate(-28.42542 -18.9978)"/><path class="cls-7" d="M299.293,464.3354c-.04891.2244-1.11981.1462-2.24881.6875-1.1445.5081-1.7793,1.3744-1.98219,1.2659-.21131-.061.22919-1.3489,1.64549-1.9952C298.11769,463.635,299.38369,464.1349,299.293,464.3354Z" transform="translate(-28.42542 -18.9978)"/><path class="cls-7" d="M299.26669,470.9025c-.2102-.0464-.0013-1.2249,1.07931-2.1084,1.075-.8913,2.27159-.8705,2.27649-.6548.0356.2276-.88949.5361-1.7657,1.275C299.96369,470.1321,299.48339,470.981,299.26669,470.9025Z" transform="translate(-28.42542 -18.9978)"/><path class="cls-7" d="M297.74239,455.141c-.1782.1478-.9953-.597-2.2098-1.081-1.2047-.509-2.3093-.5529-2.3322-.7835-.0483-.2082,1.2145-.5501,2.6372.0403C297.26419,453.8958,297.923,455.0263,297.74239,455.141Z" transform="translate(-28.42542 -18.9978)"/><path class="cls-7" d="M305.99009,443.2177l31.9521-79.9646s-.71819-13.6435-3.2314-17.952c-2.5132-4.3084-78.6294-29.4412-78.6294-29.4412s-19.3882-4.6675-32.3136,0c-12.9253,4.6675-22.6195,20.8243-20.8242,29.8003,1.7951,8.976,10.0455,16.2511,10.0455,16.2511l55.2996.9828,30.5082,11.1302-20.5453,58.8823Z" transform="translate(-28.42542 -18.9978)"/><polygon class="cls-11" points="305.984 369.577 306.705 398.501 285.164 399.028 282.061 364.319 305.984 369.577"/><path class="cls-10" d="M336.412,414.9144l-.39291,15.2447s24.5414,8.8162,24.8638,13.3277l-47.2603.4791-1.4533-29.4755Z" transform="translate(-28.42542 -18.9978)"/><path class="cls-1" d="M321.38479,428.2593a1.92984,1.92984,0,0,0-1.3123,2.216,1.85535,1.85535,0,0,0,2.1851,1.3199,2.03581,2.03581,0,0,0,1.37741-2.354,1.92512,1.92512,0,0,0-2.42521-1.1209" transform="translate(-28.42542 -18.9978)"/><g class="cls-13"><path class="cls-6" d="M313.62259,443.9659l.0915-3.8309,45.278.9733s2.1133.894,1.8908,2.3785Z" transform="translate(-28.42542 -18.9978)"/></g><path class="cls-7" d="M336.78259,429.9107c-.0051.2309-1.1583.3472-2.2859,1.1009-1.1478.7241-1.7231,1.7297-1.9365,1.6404-.2131-.0428.1172-1.4259,1.49881-2.3141C335.43239,429.4374,336.83059,429.6985,336.78259,429.9107Z" transform="translate(-28.42542 -18.9978)"/><path class="cls-7" d="M341.76029,431.9108c.055.2229-.94029.6255-1.7144,1.6095-.8026.9612-.9897,2.0187-1.2197,2.011-.2165.0385-.3899-1.3114.5957-2.5166C340.39649,431.8011,341.75309,431.6908,341.76029,431.9108Z" transform="translate(-28.42542 -18.9978)"/><path class="cls-7" d="M344.63569,437.8149c-.2091.0512-.5419-1.0985.0379-2.3683.5708-1.2743,1.6539-1.7839,1.75341-1.5925.13239.1884-.56131.8737-1.02141,1.9235C344.921,436.8159,344.86479,437.7898,344.63569,437.8149Z" transform="translate(-28.42542 -18.9978)"/><path class="cls-7" d="M336.31,424.3452c-.09461.2113-1.15651-.0963-2.46011.0056-1.3056.0753-2.3161.5234-2.4384.3265-.1353-.1654.8469-1.0297,2.384-1.128C335.33119,423.4391,336.42149,424.1626,336.31,424.3452Z" transform="translate(-28.42542 -18.9978)"/><path class="cls-7" d="M321.831,308.2734s12.90579-1.0317,14.342,12.9708,2.84629,79.3489,2.84629,79.3489L308.86,403.1063l-4.66751-66.7812-48.1111-20.4652S313.21409,306.4783,321.831,308.2734Z" transform="translate(-28.42542 -18.9978)"/><path class="cls-7" d="M268.63559,289.3777s7.8329,21.9602,6.3409,24.4078c-1.4919,2.4475-21.63349,12.5183-21.63349,12.5183l-50.39941,19.3564s-5.1763-8.2344-5.1763-20.8822,17.5306-35.4003,17.5306-35.4003Z" transform="translate(-28.42542 -18.9978)"/><path class="cls-8" d="M253.69679,314.7396a1.14571,1.14571,0,0,0,.2368.1272c.1842.0852.42.1943.7157.3312q.9972.4434,2.7913,1.2416c2.47441,1.078,6.0278,2.626,10.4762,4.5641,8.98921,3.8696,21.58921,9.2935,36.1694,15.5699l-.16319-.2295c.45749,6.596.95179,13.7209,1.463,21.0917,1.22579,17.2304,2.35609,33.1168,3.25039,45.6861l.0162.2277.2262-.0199c9.1727-.805,16.7004-1.4656,21.9714-1.9284,2.5917-.242,4.627-.4321,6.0497-.565.6695-.0697,1.1939-.1243,1.581-.1644a3.32757,3.32757,0,0,0,.5384-.0788,3.30173,3.30173,0,0,0-.5441.0113c-.3883.0245-.9146.0574-1.5864.0996-1.425.1045-3.4636.2539-6.0596.444-5.2749.4162-12.8081,1.0107-21.9878,1.735l.2422.2076c-.8629-12.5715-1.9534-28.4605-3.1363-45.694-.519-7.3701-1.0208-14.4946-1.4852-21.0902l-.0117-.1653-.1518-.0644c-14.6118-6.2023-27.2392-11.5624-36.2478-15.3863-4.4749-1.8765-8.0493-3.3753-10.5384-4.419q-1.8135-.7443-2.8261-1.1598c-.30329-.1192-.545-.2143-.7341-.2885A1.16187,1.16187,0,0,0,253.69679,314.7396Z" transform="translate(-28.42542 -18.9978)"/><path class="cls-8" d="M213.61429,316.9365a7.37816,7.37816,0,0,0,1.4149-.3865c1.0011-.3227,2.27381-.7331,3.79481-1.2235a82.82165,82.82165,0,0,1,12.69979-3.2091,37.24137,37.24137,0,0,1,13.001.1673,52.34134,52.34134,0,0,1,5.21021,1.5094,6.26579,6.26579,0,0,0-1.31091-.6634,23.27748,23.27748,0,0,0-3.8136-1.2345A34.93624,34.93624,0,0,0,231.44,311.561a70.60658,70.60658,0,0,0-12.74311,3.3884c-1.5891.564-2.8642,1.0478-3.74089,1.3942A7.30377,7.30377,0,0,0,213.61429,316.9365Z" transform="translate(-28.42542 -18.9978)"/><path class="cls-8" d="M220.73869,305.3608a37.01811,37.01811,0,0,1,4.40631-.025c1.35689.0945,2.97209.3029,4.77049.5109,1.79551.2136,3.76651.4553,5.8069.8418a27.00011,27.00011,0,0,1,9.87561,3.6635,30.59517,30.59517,0,0,1,3.42449,2.759,3.853,3.853,0,0,0-.732-.9482,15.0524,15.0524,0,0,0-2.4699-2.1406,25.27825,25.27825,0,0,0-9.9932-3.8864c-2.0662-.3914-4.0525-.6187-5.855-.8046-1.80139-.1797-3.4273-.3479-4.8067-.3929a18.09044,18.09044,0,0,0-3.2612.1454A3.77417,3.77417,0,0,0,220.73869,305.3608Z" transform="translate(-28.42542 -18.9978)"/><path class="cls-7" d="M243,128.8854c-5.79931-.9856-10.89691,1.2474-15.78781,4.516a29.06852,29.06852,0,0,0-10.7003,13.6872,28.77627,28.77627,0,0,0-1.0635,18.2287,22.98429,22.98429,0,0,0,11.3215,14.0855c7.5435,3.8313,17.1913,2.4952,23.94011-2.6076s10.607-13.54,10.93089-21.9946a27.95023,27.95023,0,0,0-4.424-16.6195A21.28772,21.28772,0,0,0,243,128.8854" transform="translate(-28.42542 -18.9978)"/><path class="cls-7" d="M226.50729,148.6057c.8481-2.2188.5194-4.6956.8548-7.047.7392-5.178,4.911-9.3296,9.7363-11.3486,4.48861-1.8778,9.9708-1.4682,15.3781.2799a20.642,20.642,0,0,1,9.6664,6.2986,16.26439,16.26439,0,0,1,2.9895,14.6051l-26.4921-3.8584c-2.4802,2.052-5.0197,4.1389-8.0282,5.283a5.47737,5.47737,0,0,1-2.7652.4407,2.468,2.468,0,0,1-2.0606-1.7002C225.54469,150.5558,226.13909,149.5696,226.50729,148.6057Z" transform="translate(-28.42542 -18.9978)"/><path class="cls-11" d="M253.04319,137.8038l-23.1291,4.9001a4.31941,4.31941,0,0,0-4.0314,4.2278l.2777,50.054a15.54388,15.54388,0,0,0,3.26,9.4389l2.2057,2.8449c5.0292,6.4861,15.2166,5.8326,19.0584-1.42a5.48475,5.48475,0,0,0,.5323-1.3102,10.20224,10.20224,0,0,0,.2178-1.13l.4407-4.8797c.2253-4.4568.2563-8.985.2575-8.9434,0,0,9.4655-1.1965,11.8904-13.3915,1.206-6.0648,1.2879-16.0823,1.09-24.2809C264.935,146.5341,260.40839,137.3127,253.04319,137.8038Z" transform="translate(-28.42542 -18.9978)"/><path class="cls-7" d="M261.21949,164.1379a1.57484,1.57484,0,0,1-1.579,1.529,1.50652,1.50652,0,0,1-1.5674-1.4818,1.57576,1.57576,0,0,1,1.5775-1.5297A1.50713,1.50713,0,0,1,261.21949,164.1379Z" transform="translate(-28.42542 -18.9978)"/><path class="cls-7" d="M262.74059,159.0344c-.2029.1977-1.361-.7308-3.0547-.7924-1.6907-.0854-2.9674.7377-3.1431.5231-.0869-.0953.1267-.4578.6827-.831a4.32585,4.32585,0,0,1,2.5261-.6725,4.15158,4.15158,0,0,1,2.4216.8867C262.67809,158.5682,262.84029,158.9462,262.74059,159.0344Z" transform="translate(-28.42542 -18.9978)"/><path class="cls-7" d="M245.57379,163.3278a1.57435,1.57435,0,0,1-1.57879,1.5288,1.50635,1.50635,0,0,1-1.56711-1.4816,1.5755,1.5755,0,0,1,1.5776-1.5299A1.50663,1.50663,0,0,1,245.57379,163.3278Z" transform="translate(-28.42542 -18.9978)"/><path class="cls-7" d="M246.66009,158.6216c-.2038.1976-1.363-.7306-3.0556-.7918-1.6904-.0857-2.9673.7373-3.143.5228-.0861-.0955.1247-.4579.6832-.8309a4.32,4.32,0,0,1,2.5259-.673,4.15367,4.15367,0,0,1,2.4216.8871C246.59589,158.1555,246.75909,158.5336,246.66009,158.6216Z" transform="translate(-28.42542 -18.9978)"/><path class="cls-7" d="M251.741,171.5014a11.24331,11.24331,0,0,1,2.76949-.3894c.4341-.028.8469-.0978.9312-.3901a2.20185,2.20185,0,0,0-.2388-1.2929q-.54884-1.59345-1.1512-3.3425c-1.5936-4.7568-2.72969-8.662-2.5376-8.7242.192-.0628,1.6402,3.7424,3.23391,8.4995q.57344,1.7589,1.09649,3.36a2.50277,2.50277,0,0,1,.15851,1.7059,1.08722,1.08722,0,0,1-.73571.6047,2.92534,2.92534,0,0,1-.73829.0733A11.01286,11.01286,0,0,1,251.741,171.5014Z" transform="translate(-28.42542 -18.9978)"/><path class="cls-12" d="M252.13259,191.5862a31.24124,31.24124,0,0,1-16.2634-5.0215s3.8021,8.6548,16.1281,7.9832Z" transform="translate(-28.42542 -18.9978)"/><path class="cls-12" d="M250.86619,175.555a3.054,3.054,0,0,0-2.6914-1.2397,2.787,2.787,0,0,0-1.9639.9575,1.76613,1.76613,0,0,0-.2125,2.0131,2.04938,2.04938,0,0,0,2.1981.6476,6.42016,6.42016,0,0,0,2.2146-1.2077,1.87025,1.87025,0,0,0,.5031-.4822.56565.56565,0,0,0,.0219-.6301" transform="translate(-28.42542 -18.9978)"/><path class="cls-7" d="M246.71179,172.4794c.2759-.0054.2079,1.833,1.731,3.1987,1.51921,1.37,3.487,1.2397,3.4911,1.4971.0214.1163-.4501.3403-1.2778.3304a4.57821,4.57821,0,0,1-2.9184-1.1458,3.98732,3.98732,0,0,1-1.33369-2.6774C246.36379,172.9115,246.58639,172.464,246.71179,172.4794Z" transform="translate(-28.42542 -18.9978)"/><path class="cls-7" d="M246.565,153.5952c-.18471.4539-1.86741.1701-3.86291.3323-2,.1223-3.6244.6416-3.8722.2183-.10989-.2021.1863-.6243.8515-1.0449a6.7413,6.7413,0,0,1,5.8928-.4198C246.29209,153.0034,246.64509,153.3794,246.565,153.5952Z" transform="translate(-28.42542 -18.9978)"/><path class="cls-7" d="M262.53679,151.6101c-.3127.3726-1.4637-.0716-2.866-.1451-1.3992-.1222-2.6009.1578-2.8585-.255-.1125-.1998.08971-.5777.6228-.9218a4.15507,4.15507,0,0,1,4.6125.322C262.528,151.0248,262.67529,151.4273,262.53679,151.6101Z" transform="translate(-28.42542 -18.9978)"/><path class="cls-7" d="M222.26789,145.0337c2.3976-7.0429,12.8672-16.6394,20.27711-15.9734l11.70809,7.3431a11.44079,11.44079,0,0,1-7.9325,8.5939c-2.1078.5961-4.6345.7212-5.916,2.4982-1.3089,1.8142-.6188,4.5082-1.84059,6.3821-1.69351,2.5971-6.17661,2.3831-7.46471,5.2032-.5626,1.2323-.3112,2.7226-.8956,3.9446-.7788,1.6282-4.9794,3.6282-6.6884,3.0487-1.7092-.5797-1.6559-3.5086-2.1877-5.0544a8.1197,8.1197,0,0,1-.1403-5.4513C222.00549,152.1142,221.12389,148.3941,222.26789,145.0337Z" transform="translate(-28.42542 -18.9978)"/><path class="cls-11" d="M228.56149,167.6249c.0331-.9139-.9394-3.1092-1.8364-3.2852-2.3953-.4693-6.7465-.4442-7.0246,5.6744-.3799,8.3642,8.096,7.0204,8.1217,6.7811C227.84209,176.6084,228.44639,170.7804,228.56149,167.6249Z" transform="translate(-28.42542 -18.9978)"/><path class="cls-12" d="M225.41089,173.5103c-.0355-.0284-.1505.0953-.4014.1971a1.4596,1.4596,0,0,1-1.0904-.0271c-.869-.3643-1.5492-1.8012-1.5214-3.3105a4.81749,4.81749,0,0,1,.5027-2.068,1.6829,1.6829,0,0,1,1.1468-1.0682.74248.74248,0,0,1,.84181.4379c.10149.2395.04059.404.08449.4199.0223.0223.1857-.1317.1341-.4799a.93211.93211,0,0,0-.3054-.5395,1.10264,1.10264,0,0,0-.7963-.2495,2.05018,2.05018,0,0,0-1.5808,1.2278,4.95123,4.95123,0,0,0-.6109,2.3085c-.0231,1.6879.7681,3.304,1.9616,3.7086a1.5632,1.5632,0,0,0,1.3426-.1609C225.38669,173.7122,225.43909,173.5268,225.41089,173.5103Z" transform="translate(-28.42542 -18.9978)"/><path class="cls-7" d="M220.47649,142.864h0c.0273-2.6167-3.241-4.3285-5.7899-4.9212a10.88159,10.88159,0,0,0-7.5393,1.4399c-1.3427.7356-2.6947,1.7822-2.9951,3.2834-.3006,1.5011,1.1441,3.2903,2.5777,2.753a4.95836,4.95836,0,1,0,4.8024,8.4815,11.07806,11.07806,0,0,1-4.3487,5.9374,12.44208,12.44208,0,0,0,13.2929-16.974Z" transform="translate(-28.42542 -18.9978)"/><path class="cls-9" d="M214.67019,156.1678a7.50021,7.50021,0,0,1-.3126-2.5105,18.42481,18.42481,0,0,1,3.8493-11.4259,7.50322,7.50322,0,0,1,1.7679-1.8095c.15421.1086-2.6519,2.8874-4.1289,7.3759C214.30629,152.2635,214.85869,156.1746,214.67019,156.1678Z" transform="translate(-28.42542 -18.9978)"/><path class="cls-7" d="M251.823,133.8739c.76989,3.4057,5.94579,7.7725,8.21769,10.4238,4.3348,5.0589,5.1896,6.7388,5.1471,18.0475,2.0469-3.9057,3.614-7.7331,3.457-12.1396a18.25255,18.25255,0,0,0-4.844-11.9928,14.21377,14.21377,0,0,0-11.97779-4.3389" transform="translate(-28.42542 -18.9978)"/><path class="cls-9" d="M287.298,226.9404s-9.01511-15.0316-11.51691-18.0718a20.06216,20.06216,0,0,0-7.3849-5.4149,15.25711,15.25711,0,0,0-3.5095-1.0377l-12.9649-2.8706s-.023,8.8491-9.2951,9.3968c-9.2721.5475-17.0794-12.3687-17.0794-12.3687s-14.979,2.3166-18.56329,4.1601c-3.58421,1.8435-9.21671,4.1852-12.31571,19.7054l-2.1754,15.1827,25.82811,2.3875,2.47169,38.3791,12.8087,8.9202s35.5103,9.232,37.7794,9.8424c2.2691.6102,3.0208-57.1417,3.0208-57.1417S283.52309,232.1112,287.298,226.9404Z" transform="translate(-28.42542 -18.9978)"/><path class="cls-7" d="M270.29869,220.4861a5.45678,5.45678,0,0,1,.4988,1.1073c.2953.7231.6718,1.7893,1.0907,3.1218a61.09187,61.09187,0,0,1,2.6405,21.5718c-.085,1.3942-.1932,2.5196-.3054,3.2925a5.45279,5.45279,0,0,1-.217,1.1947,5.49229,5.49229,0,0,1,.0165-1.2134c.0504-.7762.1025-1.901.1405-3.2893a71.81566,71.81566,0,0,0-2.6261-21.4531c-.3717-1.3382-.6936-2.4173-.9297-3.1586A5.489,5.489,0,0,1,270.29869,220.4861Z" transform="translate(-28.42542 -18.9978)"/><path class="cls-11" d="M269.19749,283.353l-48.6293-10.5852L218.321,238.0092l-21.62571-1.9991s.8001,23.7617,1.632,30.8259c1.1963,10.1598,7.2019,24.024,10.7151,26.7939,3.5131,2.77,62.3384,1.521,62.3384,1.521Z" transform="translate(-28.42542 -18.9978)"/><path class="cls-11" d="M296.80059,289.6534a1.87723,1.87723,0,0,1-1.8102,1.0548,2.16231,2.16231,0,0,1-.471-.0952c-1.0756-.345-.9747-2.5353-.9747-2.5353l-5.154-.8415s-6.7019,4.3217-9.0861,7.1862c-2.3842,2.8644-8.4667.5442-8.4667.5442l-2.1084-10.9845,9.486-8.5781s-.5826.5111.07151-1.0937c.65429-1.6047,3.63509-.9977,3.63509-.9977.46391-.7935,2.41091-1.0779,2.41091-1.0779l8.32039.9588a5.70322,5.70322,0,0,1,4.1689,2.6199l3.5186,5.5698s1.8585,4.0099,1.5595,4.9422a1.66507,1.66507,0,0,1-1.9388,1.0939s-.4089,2.6361-1.1014,2.7281a5.69276,5.69276,0,0,1-2.0596-.494Z" transform="translate(-28.42542 -18.9978)"/><path class="cls-12" d="M279.092,281.7637c.00889.0873,1.11539-.0149,2.89259.062a25.21022,25.21022,0,0,1,6.7901,1.271,24.07077,24.07077,0,0,1,3.501,1.4968c1.0055.566,2.05431,1.0313,2.3765,1.7637a1.0118,1.0118,0,0,1-.0908.9914,1.41162,1.41162,0,0,1-.6282.5307,2.20057,2.20057,0,0,1-.7294.1072c-.0206.012.258.229.7971.0879a1.55374,1.55374,0,0,0,.8029-.5548,1.32953,1.32953,0,0,0,.1964-1.302,2.65656,2.65656,0,0,0-1.0354-1.1694c-.453-.297-.9274-.6002-1.45679-.8849a21.79348,21.79348,0,0,0-10.51551-2.7126A9.58872,9.58872,0,0,0,279.092,281.7637Z" transform="translate(-28.42542 -18.9978)"/><path class="cls-12" d="M278.50969,287.0692c.0097.1575,3.3957.0163,7.5555.26,4.1623.2289,7.5099.7524,7.5371.597a8.30158,8.30158,0,0,0-2.16629-.526,48.62517,48.62517,0,0,0-10.714-.6084A8.31992,8.31992,0,0,0,278.50969,287.0692Z" transform="translate(-28.42542 -18.9978)"/><path class="cls-12" d="M296.75269,289.4423a3.784,3.784,0,0,0,.1044-.8866,19.42777,19.42777,0,0,0,.0054-2.4365,10.36471,10.36471,0,0,0-.232-1.6874,5.1599,5.1599,0,0,0-.81749-1.8129,11.3696,11.3696,0,0,0-3.11791-3.1927,15.66046,15.66046,0,0,0-3.9797-2.0116,14.35763,14.35763,0,0,0-3.594-.547c-1.0291-.0362-1.8576-.0137-2.4299.0077a2.925,2.925,0,0,0-.8891.0902,27.01527,27.01527,0,0,0,3.2957.2764,15.587,15.587,0,0,1,3.4715.6392,16.32942,16.32942,0,0,1,3.82441,1.9819,11.40975,11.40975,0,0,1,3.01609,3.0326,6.31518,6.31518,0,0,1,1.0786,3.2566C296.68869,288.1664,296.63789,289.4454,296.75269,289.4423Z" transform="translate(-28.42542 -18.9978)"/><path class="cls-12" d="M284.73419,274.3486c-.0007.0792,1.245.112,3.2331.3409,1.9146.2934,4.978.4336,6.7229,3.0725a28.27964,28.27964,0,0,1,4.1994,6.5268,16.84607,16.84607,0,0,1,.7877,3.115,2.29717,2.29717,0,0,0,.0486-.8823,8.35221,8.35221,0,0,0-.4845-2.3629,24.71866,24.71866,0,0,0-4.1371-6.7282,9.08245,9.08245,0,0,0-1.6172-1.6347,5.89414,5.89414,0,0,0-1.9577-.9196,17.8345,17.8345,0,0,0-3.5269-.5601A12.64252,12.64252,0,0,0,284.73419,274.3486Z" transform="translate(-28.42542 -18.9978)"/><path class="cls-12" d="M281.12469,292.6493a2.98148,2.98148,0,0,0,.49431-.3773c.35649-.2864.818-.6571,1.393-1.1189a57.94149,57.94149,0,0,1,5.46849-3.7666l-.1179.0227c1.5372.2616,3.2705.5568,5.1479.8765l-.1764-.2175a5.67954,5.67954,0,0,0,.096,1.2589,2.33735,2.33735,0,0,0,.5844,1.2391,1.27863,1.27863,0,0,0,.6833.3137,1.80822,1.80822,0,0,0,.7247.0427,2.10724,2.10724,0,0,0,1.2817-.7094,2.22319,2.22319,0,0,0,.224-.3046l.0471-.0825.023-.0417.0114-.021.0015-.0025c.0664-.0255-.57519.2092-.30219.1105l.00549.0024.0108.0045.1631.0664c.2173.0862.4384.1645.6654.2356a5.723,5.723,0,0,0,.7055.1759,2.59235,2.59235,0,0,0,.3829.0417.87228.87228,0,0,0,.4771-.0922,1.53238,1.53238,0,0,0,.50471-.6812,5.62125,5.62125,0,0,0,.25589-.7082,12.33765,12.33765,0,0,0,.3309-1.4584l-.3009.2082a1.9555,1.9555,0,0,0,1.9197-.6547,1.58887,1.58887,0,0,0,.354-1.0371,4.61561,4.61561,0,0,0-.1825-.9966,27.69946,27.69946,0,0,0-1.4205-3.7055l-.0065-.0142-.01-.016c-.59809-.9475-1.2333-1.9536-1.8758-2.9716q-.59955-.94845-1.1902-1.8829a10.17256,10.17256,0,0,0-1.305-1.8237,5.542,5.542,0,0,0-1.8676-1.2407,7.21051,7.21051,0,0,0-2.122-.4408c-2.757-.3099-5.3857-.6056-7.8433-.8819l-.0336-.0038-.0278.0048a7.2922,7.2922,0,0,0-1.3756.3622,2.33825,2.33825,0,0,0-1.1948.8356l.28861-.0901a2.87514,2.87514,0,0,0-2.67251.1494,3.361,3.361,0,0,0-1.322,2.1067l.0628-.1088c-2.7242,2.4498-4.9471,4.4489-6.5374,5.8789q-1.09933,1.013-1.7611,1.6225a4.67455,4.67455,0,0,0-.5893.5952,4.63847,4.63847,0,0,0,.66451-.5098q.68968-.58155,1.83069-1.5438c1.6182-1.3979,3.8805-3.3525,6.6528-5.7477l.0449-.0388.018-.0702a2.97568,2.97568,0,0,1,1.1657-1.8292,2.45174,2.45174,0,0,1,2.25291-.0976l.18219.0763.10681-.1665a1.97139,1.97139,0,0,1,.96939-.631,6.89943,6.89943,0,0,1,1.28161-.3265l-.06081.0008c2.4561.2899,5.083.6001,7.8384.9252a6.73318,6.73318,0,0,1,1.9859.4129,5.03037,5.03037,0,0,1,1.6876,1.1266,9.77107,9.77107,0,0,1,1.2325,1.7366q.58995.93435,1.1891,1.8835c.64331,1.0173,1.2792,2.0232,1.878,2.9702l-.0161-.0297a27.56362,27.56362,0,0,1,1.3987,3.6202,4.19671,4.19671,0,0,1,.1678.8788,1.07727,1.07727,0,0,1-.2452.7062,1.45269,1.45269,0,0,1-1.4093.4728l-.2595-.0423-.0417.2507a12.02742,12.02742,0,0,1-.309,1.3948,2.5142,2.5142,0,0,1-.5385,1.1132.48773.48773,0,0,1-.2096.0231,2.11063,2.11063,0,0,1-.315-.0328,5.24574,5.24574,0,0,1-.6458-.1572c-.2138-.065-.4259-.1385-.633-.2187l-.1533-.0612-.0089-.0036-.00429-.0018c.27129-.0995-.372.1341-.30611.1112l-.0011.002-.0091.0165-.0179.0328-.0363.0655a1.79039,1.79039,0,0,1-.175.2413,1.647,1.647,0,0,1-.9933.5632,1.37346,1.37346,0,0,1-.5665-.0325.84135.84135,0,0,1-.47069-.1972,3.22821,3.22821,0,0,1-.56381-2.1518l-.0009-.1904-.1757-.0274c-1.8817-.294-3.6189-.5653-5.1595-.8061l-.06609-.0104-.05231.033a49.69058,49.69058,0,0,0-5.4085,3.9188c-.5966.5048-1.0446.9101-1.3384,1.1936A2.98265,2.98265,0,0,0,281.12469,292.6493Z" transform="translate(-28.42542 -18.9978)"/><path class="cls-1" d="M350.06329,257.6991l-64.05329.5203c-2.078,0-4.06321.9982-4.37451,3.0527l-7.0001,46.685h-32.9927a1.92335,1.92335,0,1,0,0,3.8467H347.017l7.20159-49.2721A4.20276,4.20276,0,0,0,350.06329,257.6991Z" transform="translate(-28.42542 -18.9978)"/><path class="cls-7" d="M350.06329,257.6991a3.38752,3.38752,0,0,1,1.0094.0947,4.23421,4.23421,0,0,1,3.2385,3.6669,11.8636,11.8636,0,0,1-.2354,2.6347c-.2681,1.8869-.577,4.0596-.9241,6.5017-1.40969,9.7878-3.4414,23.8937-5.9391,41.2352l-.0244.1692-.1713.0001c-27.2671.0162-63.1.0376-102.2294.0609h-2.7512a2.663,2.663,0,0,1-1.4557-.2767,2.18281,2.18281,0,0,1,.0096-3.8161,2.66886,2.66886,0,0,1,1.4431-.2708l1.3552.0001,10.7069.0018c7.0519.0023,13.92061.0046,20.5399.0069l-.2465.2123c2.5197-16.7194,4.87021-32.3159,6.9789-46.3078a3.62427,3.62427,0,0,1,1.185-2.4392,4.76254,4.76254,0,0,1,2.4491-1.0807,21.14766,21.14766,0,0,1,2.5829-.091q1.26765-.0087,2.515-.0172,4.98885-.03345,9.64331-.0648c6.19919-.0393,11.932-.0757,17.13779-.1086,10.3997-.0534,18.6901-.0959,24.398-.1251,2.8365-.0052,5.0279-.009,6.52721-.0118.73209.0034,1.29219.006,1.68529.0079.37871.0042.572.0174.572.0174s-.1931.0164-.5719.0267c-.393.0083-.953.02-1.685.0353-1.4993.0216-3.6906.0533-6.5269.0943-5.7077.0634-13.9979.1556-24.3974.2713-5.2057.0515-10.9385.1083-17.1376.1697q-4.65045.0444-9.6432.0919-1.24725.01185-2.5149.0237a21.01944,21.01944,0,0,0-2.5192.092,4.3496,4.3496,0,0,0-2.2338.9853,3.18741,3.18741,0,0,0-1.0416,2.1869c-2.0879,13.9949-4.415,29.5947-6.90979,46.3177l-.03171.2125h-.215c-6.61929.0023-13.488.0046-20.5399.007q-5.289.0009-10.7069.0017l-1.3552.0001a2.15035,2.15035,0,0,0-1.1935.2068,1.66594,1.66594,0,0,0-.007,2.9123,2.14244,2.14244,0,0,0,1.2035.2109q1.3728,0,2.7512-.0001c39.1294.0234,74.9623.0448,102.2294.061l-.1956.169c2.5701-17.3311,4.66071-31.4286,6.1113-41.2105.36641-2.4394.6922-4.6094.9753-6.4941a11.89028,11.89028,0,0,0,.2613-2.5952,4.10415,4.10415,0,0,0-.7431-1.9915,4.18966,4.18966,0,0,0-2.3673-1.633A8.21112,8.21112,0,0,0,350.06329,257.6991Z" transform="translate(-28.42542 -18.9978)"/><path class="cls-6" d="M311.30969,284.1579a4.0103,4.0103,0,1,0,4.01031-4.0103A4.01025,4.01025,0,0,0,311.30969,284.1579Z" transform="translate(-28.42542 -18.9978)"/><path class="cls-7" d="M277.231,311.3727c.09069.015,2.12949-11.8727,4.55329-26.5483,2.42471-14.6807,4.3162-26.59,4.22571-26.605-.09061-.0149-2.12881,11.8701-4.55361,26.5509C279.03259,299.446,277.14059,311.3578,277.231,311.3727Z" transform="translate(-28.42542 -18.9978)"/></g></svg>