<?xml version="1.0" encoding="utf-8"?>
<!-- Generator: Adobe Illustrator 26.0.1, SVG Export Plug-In . SVG Version: 6.00 Build 0)  -->
<svg version="1.1" id="Capa_1" xmlns="http://www.w3.org/2000/svg" xmlns:xlink="http://www.w3.org/1999/xlink" x="0px" y="0px"
	 viewBox="0 0 64 64" style="enable-background:new 0 0 64 64;" xml:space="preserve">
<style type="text/css">
	.st0{fill-rule:evenodd;clip-rule:evenodd;}
</style>
<g id="SVGRepo_bgCarrier">
</g>
<g id="SVGRepo_tracerCarrier">
</g>
<g id="SVGRepo_iconCarrier">
	<path d="M32,18.1l7,16H25L32,18.1z"/>
	<path class="st0" d="M31.4,0.1c0.4-0.1,0.8-0.1,1.2,0l29.9,8.5c1,0.3,1.6,1.3,1.5,2.3l-4.3,38.4c-0.1,0.7-0.5,1.3-1.2,1.7L33,63.8
		c-0.6,0.3-1.3,0.3-1.9,0L5.4,51c-0.6-0.3-1.1-1-1.2-1.7L0,10.9c-0.1-1,0.5-2,1.5-2.3L31.4,0.1z M32,7.5l16.9,38.6L45,47.8l-4.1-9.4
		H23.1L19,47.8l-3.9-1.7L32,7.5z"/>
</g>
</svg>
