<?xml version="1.0" encoding="utf-8"?>
<!-- Generator: Adobe Illustrator 26.0.1, SVG Export Plug-In . SVG Version: 6.00 Build 0)  -->
<svg version="1.1" id="Capa_1" xmlns="http://www.w3.org/2000/svg" xmlns:xlink="http://www.w3.org/1999/xlink" x="0px" y="0px"
	 viewBox="0 0 64 64" style="enable-background:new 0 0 64 64;" xml:space="preserve">
<path d="M0,32v32h64V0H0V32z M51.6,29.4c1.6,0.4,2.9,1.1,4,2.3c0.6,0.6,1.5,1.8,1.5,2.1c0,0.1-2.8,1.9-4.4,3c-0.1,0-0.3-0.2-0.6-0.6
	c-0.8-1.2-1.7-1.7-3-1.8c-1.9-0.1-3.2,0.9-3.2,2.6c0,0.4,0.1,0.8,0.3,1.2c0.4,0.9,1.2,1.4,3.7,2.5c4.6,2,6.5,3.3,7.8,5.1
	c1.4,2.1,1.7,5.4,0.8,7.8c-1,2.7-3.5,4.5-7.1,5.1c-1.1,0.2-3.7,0.2-4.9-0.1c-2.6-0.5-5-1.7-6.5-3.4c-0.6-0.6-1.7-2.3-1.7-2.5
	c0,0,0.3-0.2,0.6-0.4s1.4-0.8,2.4-1.4l1.8-1.1l0.4,0.6c0.5,0.8,1.7,1.9,2.4,2.3c2,1.1,4.8,0.9,6.2-0.3c0.6-0.5,0.9-1.2,0.8-1.9
	c0-0.7-0.1-1.1-0.5-1.6c-0.5-0.7-1.5-1.3-4.4-2.6c-3.3-1.4-4.7-2.3-6-3.7c-0.8-0.9-1.4-2-1.8-3.2c-0.2-0.9-0.3-3.2-0.1-4.1
	c0.7-3.2,3.1-5.4,6.6-6.1C47.8,29.1,50.5,29.2,51.6,29.4L51.6,29.4z M36.6,32.1l0,2.6h-8.3v23.7h-5.9V34.7H14v-2.6
	c0-1.4,0-2.6,0.1-2.6c0,0,5.1-0.1,11.2-0.1l11.2,0L36.6,32.1z"/>
</svg>
