<svg id="Capa_1" data-name="Capa 1" xmlns="http://www.w3.org/2000/svg" viewBox="0 0 772.61 120"><defs><style>.cls-1{fill:#3f3d56;}.cls-2{fill:#fff;}.cls-3{fill:#403d56;}</style></defs><path class="cls-1" d="M265.59,28.31l-54.14,0,.88,10.78h41.61l-1.06,11.16H225.59l1,10.56H252l-1.5,14.48-12,3.31-12.14-3.33-.78-8.68H214.88l1.18,15.84,22.46,7,22.08-6.28,5-54.83ZM195.38,10.17h86.29l-7.84,88.61-35.41,10-35.19-10Z"/><path class="cls-1" d="M83.27,10.17l7.88,88.6,35.36,10,35.61-10L170,10.17Zm69.61,28.9H111.36l.92,11.15H152l-3.08,33.51-22.12,6.09v.07h-.25l-22.3-6.16-1.35-17.12h10.78l.8,8.62,12.07,3.27,12.13-3.27,1.35-14h-37.7l-2.88-32.9h54.46Z"/><path class="cls-1" d="M684.76,58.16v-37a8.43,8.43,0,0,0-8.41-8.42h-74a8.44,8.44,0,0,0-8.42,8.42V46.39a5,5,0,0,0-5,5V101.9a5,5,0,0,0,5,5h37a5.06,5.06,0,0,0,5.05-5h14.09a5,5,0,0,0,5-5,4.69,4.69,0,0,0-.17-1.34l-3.31-12.13h9.58v18.51a5.06,5.06,0,0,0,5,5h18.5a5.06,5.06,0,0,0,5-5V63.21a5,5,0,0,0-5-5.05ZM632.6,101.9a1.68,1.68,0,0,1-1.67,1.68h-37a1.68,1.68,0,0,1-1.67-1.68V98.54h40.37Zm0-6.72H592.25v-37h40.37Zm0-40.37H592.25V51.43a1.67,1.67,0,0,1,1.67-1.67h37a1.67,1.67,0,0,1,1.67,1.67Zm19.1,41.6a1.68,1.68,0,0,1-1.17,2.07,1.74,1.74,0,0,1-.45.06H636V95.17h15.38ZM636,91.81V83.4h12.17l2.29,8.42ZM661.2,80H636V70H661.2Zm0-16.83v3.37H636V51.43a5.06,5.06,0,0,0-5.05-5H597.29V21.16a5.07,5.07,0,0,1,5.05-5.05h74a5.06,5.06,0,0,1,5,5.05v37H666.25a5.05,5.05,0,0,0-5,5.05Zm25.23,38.69a1.67,1.67,0,0,1-1.67,1.68H666.25a1.67,1.67,0,0,1-1.67-1.69V98.52h21.86Zm0-6.72H664.58V70h21.86Zm0-28.6H664.58V63.21a1.68,1.68,0,0,1,1.67-1.68h18.5a1.68,1.68,0,0,1,1.67,1.68v3.37Z"/><rect class="cls-1" x="597.58" y="78.34" width="9.52" height="3.37" transform="translate(119.83 449.36) rotate(-45)"/><rect class="cls-1" x="601.53" y="76.66" width="28.54" height="3.37" transform="translate(124.96 458.38) rotate(-45)"/><rect class="cls-1" x="606.97" y="66.58" width="14.28" height="3.37" transform="translate(131.6 454.23) rotate(-45)"/><rect class="cls-1" x="667.88" y="77.51" width="11.9" height="3.37" transform="translate(141.36 499.66) rotate(-45)"/><rect class="cls-1" x="671.24" y="84.24" width="11.9" height="3.37" transform="translate(137.59 504.01) rotate(-45)"/><rect class="cls-1" x="632.21" y="36.3" width="14.26" height="3.37" transform="translate(160.4 463.21) rotate(-45)"/><rect class="cls-1" x="647.34" y="32.93" width="14.26" height="3.37" transform="translate(167.21 472.92) rotate(-45)"/><rect class="cls-1" x="637.94" y="44.72" width="9.52" height="3.37" transform="translate(155.43 468.05) rotate(-45)"/><rect class="cls-1" x="646.34" y="24.53" width="9.53" height="3.37" transform="translate(172.16 468.08) rotate(-45)"/><rect class="cls-1" x="600.65" y="19.47" width="3.37" height="3.37"/><rect class="cls-1" x="607.39" y="19.47" width="3.37" height="3.37"/><rect class="cls-1" x="614.11" y="19.47" width="3.37" height="3.37"/><path class="cls-1" d="M543.86,67.77h.54a21.6,21.6,0,0,1,9.47,2.2l-.13,0a16,16,0,0,1,6.3,5.43l0,.06A11.07,11.07,0,0,1,562,81.75a4.52,4.52,0,0,1,0,.52v0a8.46,8.46,0,0,1-2.85,5.92h0a8.92,8.92,0,0,1-3.19,2l-.06,0c-.68.13-1,0-1.11-.31s.24-.72.93-1.13a8.12,8.12,0,0,0,3.68-5v-.06a5.06,5.06,0,0,0,0-.57,7.78,7.78,0,0,0-.83-3.51l0,0a11.36,11.36,0,0,0-3.85-4.47l0,0a18.57,18.57,0,0,0-8.49-2.85h-.06a23.44,23.44,0,0,0-3.55-.24,25.49,25.49,0,0,0-9.26,1.74l.16,0a12.86,12.86,0,0,1,1,4.67v0a9.63,9.63,0,0,1-4.68,8.12l0,0a20.31,20.31,0,0,1-4.26,2.29l-.14.06a7.35,7.35,0,0,1-3.18.72,2.55,2.55,0,0,1-.39,0h0c-2.58-.54-3.19-2.77-1.84-6.73a15.59,15.59,0,0,1,2.46-4.53v0a28.42,28.42,0,0,1,4.45-4.66l0,0-.41-.59a25.08,25.08,0,0,1-2-4.31l-.05-.18c-.41-1.35-.74-2.65-1-3.89l-.2-1.42-2,3.88a98.89,98.89,0,0,1-5.1,8.56l-.61,1A21.78,21.78,0,0,1,517,82.36v.09c0,.19,0,.43,0,.65a9.18,9.18,0,0,1-3.88,7.49l0,0a36,36,0,0,1-3.84,2l-.25.1a14.18,14.18,0,0,1-4.86,1.12h0l-.44,0a6.57,6.57,0,0,1-2.85-.65l0,0a2.41,2.41,0,0,1-.61-2.86v0a66.74,66.74,0,0,1,5-6.18l-.06,0,4.49-5.71-.81-1.83A27.63,27.63,0,0,1,507,72.65l-.05-.2c-.41-1.35-.74-2.64-1-3.88l-.2-1.43-2,4.9q-2.43,5.71-4.51,9.77-3,6.12-5.1,9.37l-.41.61c-1.63,2.57-3.18,3.89-4.69,3.89s-2.52-1-3-2.85a18.38,18.38,0,0,1-.61-4.68v-.41l.41-2.85v.21c-1.09,2.57-2.16,5-3.26,7.14A27.25,27.25,0,0,1,480.23,96l.06-.07A4.64,4.64,0,0,1,477,97.34h-.32a4,4,0,0,1-2.68-1h0A12,12,0,0,1,471,91l0-.09a19,19,0,0,1-1.05-6.25c0-.3,0-.58,0-.85v0a41,41,0,0,1,1.93-9l-.09.3-7.35,4.29v.2a17.71,17.71,0,0,1,1.69,7.54c0,.5,0,1-.06,1.48v0a22.26,22.26,0,0,1-3.73,11.31l.05-.07a20.56,20.56,0,0,1-9.43,8l-.13,0a18,18,0,0,1-7.45,1.56,18.85,18.85,0,0,1-4.94-.67l.13,0a5.74,5.74,0,0,1-3-2.41h0a9.69,9.69,0,0,1-1.65-4.89h0a12.7,12.7,0,0,1-.07-1.37,13.32,13.32,0,0,1,1.33-5.85l0,.08a26.5,26.5,0,0,1,9.45-9.51l.13,0a72.31,72.31,0,0,1,9.18-5.35l.42-.18,1-.61c-1.22-1-3.46-2.57-6.73-4.9a107.11,107.11,0,0,1-11.75-9.06l.1.09a22.39,22.39,0,0,1-7.12-11.5l0-.15a13,13,0,0,1,1.46-8.41l0,.07a36.79,36.79,0,0,1,9.34-12.39l.06,0A66.7,66.7,0,0,1,456.64,22.1l.35-.17a95.22,95.22,0,0,1,15.62-7.12l.69-.2a52,52,0,0,1,17.53-3h1a32.21,32.21,0,0,1,14.11,3.25l-.19-.09a13.69,13.69,0,0,1,7.53,8.67l0,.09a19.89,19.89,0,0,1,.52,4.4,18.17,18.17,0,0,1-1.5,7.27l0-.11A31.11,31.11,0,0,1,505,45.82v0a33.34,33.34,0,0,1-11.1,7.27l-.22.07a41.7,41.7,0,0,1-14.81,3.26h-.08a25.36,25.36,0,0,1-2.61.14,24.84,24.84,0,0,1-6.95-1l.17,0a14.37,14.37,0,0,1-5.12-2.86h0a9.39,9.39,0,0,1-2.42-3l0-.06c-.4-1.09-.44-1.73-.11-1.94s.58-.24.72-.09l1,1a11.38,11.38,0,0,0,4,2.4l.08,0a20.89,20.89,0,0,0,6.93,1.13,20.56,20.56,0,0,0,2.35-.13h-.09a40.34,40.34,0,0,0,17.68-6.42l-.15.09a29,29,0,0,0,10.32-10.35l.07-.15a11.55,11.55,0,0,0,1.18-10.6l0,.08A10.07,10.07,0,0,0,499,20.19h-.05a32.78,32.78,0,0,0-7.46-.87,34,34,0,0,0-6.21.59l.2,0a65.44,65.44,0,0,0-18.71,6.28l.37-.16q-25,12.59-25.87,25.89v.18a13.25,13.25,0,0,0,3.68,9.19h0a50.32,50.32,0,0,0,8.6,7.64l.17.11a68.74,68.74,0,0,1,7.74,6.73h0l.41.41L474.91,69a21.77,21.77,0,0,1,5.34-5.45l.07,0a10.72,10.72,0,0,1,6-2.44h.31A3.72,3.72,0,0,1,490,63.3v0a7.81,7.81,0,0,1,.66,3.25,7.41,7.41,0,0,1-.07,1.05v0l-.39,2,.61-.4a2.56,2.56,0,0,1,2.57-.3h0a1.79,1.79,0,0,1,1.35,1.74,1.62,1.62,0,0,1,0,.4h0l-.61,2.23q-1.85,7.35-2.45,10.6a8.43,8.43,0,0,0-.31,2.35,4.43,4.43,0,0,0,0,.52v0c.07.81.16,1.22.29,1.22s.41-.41.82-1.22l.61-1.43c.13,0,.13.08,0,.21l2.24-4.7c5.3-11.71,8.15-18.21,8.56-19.58l1.24-3.89c.13-.27.68-.53,1.62-.81a12.53,12.53,0,0,1,3.22-.41h.26c1.9,0,2.85.48,2.85,1.43l-.21,1A37.54,37.54,0,0,0,511.54,63l0,.26a11.32,11.32,0,0,0-.13,1.74,12.06,12.06,0,0,0,.24,2.4l0-.07.21.81a16.4,16.4,0,0,0,1.86,4.57l0-.07c1.63-2.72,3.18-5.51,4.69-8.36a39.84,39.84,0,0,0,3.17-6.66l.09-.28a33.06,33.06,0,0,1,1.09-4.1l-.07.22c.13-.41.72-.72,1.73-.92a15.2,15.2,0,0,1,3.22-.3h.13c1.91,0,2.92.48,3.05,1.42l-.4.82a29,29,0,0,0-1.19,4.71l0,.19c0,.39,0,.85,0,1.31a14.34,14.34,0,0,0,.28,2.85l0-.09v.81A16.73,16.73,0,0,0,531.38,69l0-.07.61,1.42A26.55,26.55,0,0,1,543.6,67.7l.26.07ZM456.38,97.38a16.4,16.4,0,0,0,3.84-16.24l0,.11-3.25,2a47.9,47.9,0,0,0-8.82,6.41l0,0a14.52,14.52,0,0,0-4.16,6.84l0,.09c-.61,2.52-.31,4.16.91,4.9a6.28,6.28,0,0,0,5.34-.11l0,0a15,15,0,0,0,6.1-4.09l0,0Zm27.35-18.79c.68-1.76,1.42-3.88,2.23-6.32,1.1-3.26,1.46-5.18,1.11-5.72s-1-.61-1.94-.2a8.06,8.06,0,0,0-2.83,2.22l0,0a28.55,28.55,0,0,0-2.36,3.53l-.08.15a18.19,18.19,0,0,0-2,4.56l0,.15a20.62,20.62,0,0,0-1.24,7.18c0,.35,0,.68,0,1v0c.13,2.71.57,4.19,1.29,4.4s1.57-.78,2.56-3a29.87,29.87,0,0,0,2.38-5.7l.06-.22c.4-1,.68-1.65.83-2Zm22.61,10.8a8.66,8.66,0,0,0,5.11-7.1v-.24l-2.24,2.85-4.09,4.49a.25.25,0,0,0-.05.35l.05.06c.13.14.54,0,1.22-.41Zm17.55-3.88a7.27,7.27,0,0,0,5.31-7v-.15a9.14,9.14,0,0,0-.43-2.31l0,0a16.44,16.44,0,0,0-3.83,5l0,.09c-1.24,2.46-1.58,3.89-1,4.28Z"/><rect class="cls-2" x="331.19" y="33.26" width="68.54" height="70.02"/><path class="cls-3" d="M360.32,56.2h-9.07c0,7.82-.05,15.6-.05,23.44a35.57,35.57,0,0,1,.17,3.56,38.34,38.34,0,0,1-.76,7.63l0-.25c-1.33,2.78-4.76,2.42-6.32,1.94A7.83,7.83,0,0,1,341,89.11v0a3.52,3.52,0,0,0-.53-.79h0l-7.37,4.53a14.33,14.33,0,0,0,5.29,6.09l.06,0a17.57,17.57,0,0,0,8.54,2.19,18.27,18.27,0,0,0,4.53-.58l-.12,0a11.47,11.47,0,0,0,7.3-5.62l0-.07a27.3,27.3,0,0,0,1.84-10,28.75,28.75,0,0,0-.25-3.7v.14c.06-8.29,0-16.6,0-24.94ZM396.6,85.45c-.71-4.42-3.58-8.14-12.12-11.6-3-1.39-6.28-2.35-7.26-4.6a4.73,4.73,0,0,1-.18-2.88v0a4.63,4.63,0,0,1,4.34-3,4.82,4.82,0,0,1,1.8.36h0a6.61,6.61,0,0,1,3.92,3.59v0c4.17-2.72,4.17-2.72,7.09-4.54a16.15,16.15,0,0,0-2.37-3.15h0a13.58,13.58,0,0,0-11.5-4.18h.07l-2.85.36a13,13,0,0,0-6.89,4h0a12.67,12.67,0,0,0,2,17.81l.29.22,0,0c5.51,4.12,13.56,5,14.59,8.9,1,4.73-3.51,6.24-7.93,5.69a10.63,10.63,0,0,1-7.05-5.34l0-.06-7.38,4.24a16.39,16.39,0,0,0,3.27,4.48h0c7,7.09,24.58,6.72,27.74-4.05a13.67,13.67,0,0,0,.57-3.92,13.46,13.46,0,0,0-.29-2.83l0,.1Zm-89-73.79h96.9v96.9h-96.9Z"/></svg>