<svg id="Capa_1" data-name="Capa 1" xmlns="http://www.w3.org/2000/svg" viewBox="0 0 654.57 120"><defs><style>.cls-1{fill:#3f3d56;}.cls-2{fill:#fff;}.cls-3{fill:#403d56;}</style></defs><path class="cls-1" d="M207.18,29.83H153.05l.87,10.77h41.62l-1.06,11.16h-27.3l1,10.56h25.41l-1.51,14.49-11.95,3.3L168,76.78l-.77-8.68H156.47l1.19,15.84,22.46,7,22.07-6.28,5-54.83ZM137,11.7h86.29l-7.84,88.6-35.4,10-35.2-10Z"/><path class="cls-1" d="M24.86,11.7l7.88,88.59,35.37,10,35.6-10L111.6,11.7ZM94.47,40.59H53l.92,11.15H93.55L90.47,85.26,68.35,91.34v.08h-.24L45.8,85.26,44.45,68.13H55.23l.8,8.62L68.11,80l12.12-3.27,1.35-14H43.88L41,29.81H95.46Z"/><path class="cls-1" d="M624.69,59.94v-37a8.43,8.43,0,0,0-8.42-8.42h-74a8.43,8.43,0,0,0-8.42,8.42V48.17a5,5,0,0,0-5,5v50.47a5.06,5.06,0,0,0,5.05,5h37a5.06,5.06,0,0,0,5-5H590a5,5,0,0,0,5-5,5,5,0,0,0-.18-1.33l-3.31-12.13h9.58V103.7a5,5,0,0,0,5,5h18.49a5.05,5.05,0,0,0,5.05-5V65a5,5,0,0,0-5-5Zm-52.16,43.74a1.68,1.68,0,0,1-1.68,1.68h-37a1.68,1.68,0,0,1-1.68-1.68v-3.37h40.37Zm0-6.72H532.17v-37h40.37Zm0-40.37H532.17V53.21a1.69,1.69,0,0,1,1.68-1.68h37a1.69,1.69,0,0,1,1.68,1.68Zm19.1,41.6a1.7,1.7,0,0,1-1.18,2.07,1.3,1.3,0,0,1-.44,0h-14.1V96.94H591.3Zm-15.73-4.6V85.18h12.17l2.29,8.41Zm25.23-11.77H575.9V71.73h25.23Zm0-16.83v3.37H575.9V53.21a5.05,5.05,0,0,0-5-5H537.22V22.94a5.05,5.05,0,0,1,5-5.05h74a5.05,5.05,0,0,1,5,5.05v37H606.18a5,5,0,0,0-5,5Zm25.23,38.69a1.69,1.69,0,0,1-1.67,1.68H606.18a1.69,1.69,0,0,1-1.68-1.69V100.3h21.86Zm0-6.72H604.5V71.73h21.86Zm0-28.6H604.5V65a1.68,1.68,0,0,1,1.68-1.68h18.49A1.68,1.68,0,0,1,626.35,65v3.37Z"/><rect class="cls-1" x="537.5" y="80.12" width="9.52" height="3.37" transform="translate(100.98 407.4) rotate(-45)"/><rect class="cls-1" x="541.45" y="78.44" width="28.54" height="3.37" transform="translate(106.11 416.42) rotate(-45)"/><rect class="cls-1" x="546.9" y="68.35" width="14.28" height="3.37" transform="translate(112.75 412.28) rotate(-45)"/><rect class="cls-1" x="607.8" y="79.29" width="11.9" height="3.37" transform="translate(122.5 457.7) rotate(-45)"/><rect class="cls-1" x="611.16" y="86.01" width="11.9" height="3.37" transform="translate(118.74 462.05) rotate(-45)"/><rect class="cls-1" x="572.13" y="38.08" width="14.26" height="3.37" transform="translate(141.55 421.25) rotate(-45)"/><rect class="cls-1" x="587.27" y="34.71" width="14.26" height="3.37" transform="translate(148.36 430.96) rotate(-45)"/><rect class="cls-1" x="577.87" y="46.49" width="9.52" height="3.37" transform="translate(136.58 426.09) rotate(-45)"/><rect class="cls-1" x="586.26" y="26.31" width="9.53" height="3.37" transform="translate(153.31 426.12) rotate(-45)"/><rect class="cls-1" x="540.57" y="21.25" width="3.37" height="3.37"/><rect class="cls-1" x="547.31" y="21.25" width="3.37" height="3.37"/><rect class="cls-1" x="554.03" y="21.25" width="3.37" height="3.37"/><path class="cls-1" d="M483.87,69.07h.53a21.44,21.44,0,0,1,9.47,2.21l-.13-.06a16,16,0,0,1,6.31,5.44l0,0A11.15,11.15,0,0,1,502,83.05a4.43,4.43,0,0,1,0,.52v0a8.5,8.5,0,0,1-2.85,5.92h0a9.12,9.12,0,0,1-3.2,2h0c-.69.13-1.06,0-1.11-.31s.24-.72.92-1.13a8.08,8.08,0,0,0,3.68-5l0,0a5.24,5.24,0,0,0,0-.58,7.78,7.78,0,0,0-.83-3.51v0a11.37,11.37,0,0,0-3.84-4.48l0,0a18.6,18.6,0,0,0-8.49-2.84h-.05a22.38,22.38,0,0,0-3.55-.24,25.75,25.75,0,0,0-9.27,1.73l.17,0a13.08,13.08,0,0,1,1,4.68v0a9.64,9.64,0,0,1-4.68,8.11l0,0a20,20,0,0,1-4.25,2.3l-.15,0a7.35,7.35,0,0,1-3.18.72,2.55,2.55,0,0,1-.39,0h0q-3.86-.8-1.83-6.73a15.71,15.71,0,0,1,2.46-4.53l0,0A28.88,28.88,0,0,1,467,75l0,0-.41-.59a24.35,24.35,0,0,1-2-4.31l-.06-.18c-.4-1.35-.74-2.65-1-3.89l-.21-1.42-2,3.88c-1.76,3.26-3.46,6.13-5.1,8.57l-.61,1A21.88,21.88,0,0,1,457,83.66v.1c0,.18,0,.42,0,.64a9.16,9.16,0,0,1-3.89,7.49l0,0a36.26,36.26,0,0,1-3.85,2L449,94a14.43,14.43,0,0,1-4.86,1.13h0l-.44,0a6.71,6.71,0,0,1-2.85-.65l0,0a2.4,2.4,0,0,1-.61-2.87v0a68.33,68.33,0,0,1,4.95-6.18l-.05.06,4.49-5.72L448.83,78A26,26,0,0,1,447.05,74l-.05-.21c-.41-1.35-.74-2.64-1-3.88l-.2-1.42-2,4.9c-1.63,3.81-3.12,7.06-4.51,9.76q-3.06,6.14-5.1,9.38l-.41.61C432.09,95.67,430.54,97,429,97s-2.51-1-3-2.85a17.94,17.94,0,0,1-.61-4.68v-.4l.41-2.85v.2c-1.1,2.57-2.17,5-3.26,7.14a27.25,27.25,0,0,1-2.29,3.75l.05-.07A4.6,4.6,0,0,1,417,98.64h-.31a4,4,0,0,1-2.68-1h0a12,12,0,0,1-3-5.33l0-.09a18.7,18.7,0,0,1-1.06-6.25c0-.3,0-.57,0-.85v0a41.1,41.1,0,0,1,1.92-9l-.09.3-7.34,4.29v.2a17.71,17.71,0,0,1,1.68,7.55c0,.5,0,1-.05,1.48v-.06a22.34,22.34,0,0,1-3.74,11.32l.06-.08a20.56,20.56,0,0,1-9.43,8l-.13.06a18.19,18.19,0,0,1-7.45,1.55,18.44,18.44,0,0,1-4.94-.67l.13,0a5.74,5.74,0,0,1-3-2.4v0a9.56,9.56,0,0,1-1.65-4.88v0a12.57,12.57,0,0,1-.07-1.37,13.25,13.25,0,0,1,1.33-5.84l0,.07a26.47,26.47,0,0,1,9.45-9.5l.13-.06a71,71,0,0,1,9.17-5.34l.43-.19,1-.61C396,79,393.78,77.34,390.5,75A108,108,0,0,1,378.76,66l.09.09a22.37,22.37,0,0,1-7.12-11.5l0-.15A13,13,0,0,1,373.16,46l0,.07a36.53,36.53,0,0,1,9.34-12.39l.05,0A66.65,66.65,0,0,1,396.64,23.4l.35-.17a95.7,95.7,0,0,1,15.63-7.12l.68-.2a52.31,52.31,0,0,1,17.53-3h0l1,0a32.17,32.17,0,0,1,14.1,3.25l-.18-.09a13.76,13.76,0,0,1,7.53,8.67v.1a19.18,19.18,0,0,1,.52,4.4,18.16,18.16,0,0,1-1.5,7.26l0-.11A30.94,30.94,0,0,1,445,47.12l0,0a33,33,0,0,1-11.09,7.27l-.23.07a41.61,41.61,0,0,1-14.81,3.26h-.07a25.37,25.37,0,0,1-2.61.15,24.75,24.75,0,0,1-6.95-1l.16,0a14.73,14.73,0,0,1-5.12-2.87l0,0a9.29,9.29,0,0,1-2.42-3l0,0c-.41-1.09-.44-1.74-.11-2s.57-.24.72-.09l1,1a11.07,11.07,0,0,0,4,2.4l.07,0a20.91,20.91,0,0,0,6.94,1.13,20.56,20.56,0,0,0,2.35-.13h-.1A40.29,40.29,0,0,0,434.4,47l-.15.1a28.94,28.94,0,0,0,10.32-10.36l.08-.15A11.53,11.53,0,0,0,445.83,26l0,.07A10.08,10.08,0,0,0,439,21.5h-.06a32.15,32.15,0,0,0-7.45-.87,33,33,0,0,0-6.21.59l.2,0a65.67,65.67,0,0,0-18.71,6.29l.37-.17q-25,12.6-25.87,25.89v.19a13.25,13.25,0,0,0,3.68,9.19h0a50.31,50.31,0,0,0,8.6,7.63l.16.11A69,69,0,0,1,401.45,77h0l.41.41,13.05-7.14a22.15,22.15,0,0,1,5.35-5.45l.07,0a10.84,10.84,0,0,1,6-2.44h.32A3.7,3.7,0,0,1,430,64.6v0a7.7,7.7,0,0,1,.67,3.25,6.31,6.31,0,0,1-.08,1.06v0l-.38,2,.61-.41a2.56,2.56,0,0,1,2.57-.3h0a1.82,1.82,0,0,1,1.35,1.74,1.35,1.35,0,0,1-.06.41v0l-.61,2.24q-1.83,7.35-2.44,10.59a8.48,8.48,0,0,0-.31,2.35c0,.19,0,.35,0,.52v0c.08.81.17,1.22.3,1.22s.41-.41.81-1.22l.61-1.42c.13,0,.13.07,0,.2l2.24-4.7c5.31-11.7,8.16-18.21,8.56-19.58l1.24-3.88c.13-.28.69-.54,1.63-.82a12.91,12.91,0,0,1,3.22-.4h.26c1.9,0,2.84.48,2.84,1.42l-.2,1a36.51,36.51,0,0,0-1.28,4.44l0,.25a12,12,0,0,0,.11,4.15l0-.08.2.82A16.49,16.49,0,0,0,453.67,74l0-.07c1.63-2.72,3.18-5.51,4.7-8.36a39.43,39.43,0,0,0,3.16-6.66l.1-.27a29.64,29.64,0,0,1,1.09-4.11l-.08.22c.13-.4.72-.72,1.74-.92a15.89,15.89,0,0,1,3.22-.3h.13c1.9,0,2.92.48,3.05,1.43l-.41.81a29.36,29.36,0,0,0-1.18,4.72l0,.18c0,.39-.06.85-.06,1.31a15,15,0,0,0,.28,2.85l0-.09v.81a16.39,16.39,0,0,0,2.07,4.76l0-.08.61,1.42A26.52,26.52,0,0,1,483.61,69l.26.07ZM396.38,98.68a16.38,16.38,0,0,0,3.85-16.24l0,.12-3.26,2A48.29,48.29,0,0,0,388.19,91l0,0a14.49,14.49,0,0,0-4.16,6.84l0,.09c-.61,2.52-.31,4.16.91,4.9a6.28,6.28,0,0,0,5.34-.11l0,0a15,15,0,0,0,6.1-4.09h0Zm27.35-18.79c.69-1.75,1.43-3.88,2.24-6.32,1.09-3.26,1.46-5.18,1.11-5.72s-1-.61-1.94-.2a8.17,8.17,0,0,0-2.83,2.22l0,0a29.39,29.39,0,0,0-2.37,3.53l-.07.15a18.13,18.13,0,0,0-2,4.57l0,.14a20.47,20.47,0,0,0-1.24,7.18c0,.35,0,.68,0,1v0c.12,2.72.57,4.2,1.29,4.4s1.57-.78,2.55-3a29.19,29.19,0,0,0,2.39-5.69l.05-.23c.41-1,.69-1.64.83-2Zm22.62,10.8a8.64,8.64,0,0,0,5.1-7.1v-.24l-2.24,2.85-4.08,4.49a.27.27,0,0,0-.06.35l.06.06c.13.15.53,0,1.22-.41Zm17.55-3.88a7.27,7.27,0,0,0,5.3-7v-.15a8.78,8.78,0,0,0-.42-2.31l0,0a16.28,16.28,0,0,0-3.83,5l0,.1c-1.24,2.46-1.57,3.88-1,4.27Z"/><rect class="cls-2" x="272.78" y="34.79" width="68.54" height="70.02"/><path class="cls-3" d="M301.91,57.72h-9.07c0,7.83,0,15.61,0,23.45a35.51,35.51,0,0,1,.16,3.55,38.34,38.34,0,0,1-.76,7.63l0-.25c-1.33,2.78-4.76,2.43-6.32,1.94a7.78,7.78,0,0,1-3.33-3.41v0a3.27,3.27,0,0,0-.53-.8h0l-7.36,4.54a14.27,14.27,0,0,0,5.28,6.08l.06,0a17.46,17.46,0,0,0,8.54,2.19,17.76,17.76,0,0,0,4.53-.58l-.12,0a11.47,11.47,0,0,0,7.3-5.62l0-.07a27.45,27.45,0,0,0,1.83-9.94,28.78,28.78,0,0,0-.25-3.71v.14c.06-8.29,0-16.59,0-24.94ZM338.19,87c-.7-4.42-3.58-8.14-12.12-11.59-3-1.4-6.28-2.36-7.26-4.61a4.77,4.77,0,0,1-.18-2.87v0a4.64,4.64,0,0,1,6.14-2.65l0,0a6.59,6.59,0,0,1,3.91,3.6v0c4.17-2.73,4.17-2.73,7.09-4.55a16.5,16.5,0,0,0-2.36-3.15h0A13.59,13.59,0,0,0,321.9,57H322l-2.85.35a13.08,13.08,0,0,0-6.89,4.05h0a12.68,12.68,0,0,0,2,17.81l.29.22,0,0c5.51,4.12,13.56,5,14.6,8.89,1,4.73-3.52,6.24-7.94,5.69a10.63,10.63,0,0,1-7.05-5.34l0-.06-7.37,4.25A16.31,16.31,0,0,0,310,97.39h0c7,7.09,24.58,6.72,27.74-4a13.8,13.8,0,0,0,.58-3.93A14,14,0,0,0,338,86.6v.09Zm-89-73.79h96.9v96.9h-96.9Z"/></svg>