<svg id="Capa_1" data-name="Capa 1" xmlns="http://www.w3.org/2000/svg" viewBox="0 0 771.6 120"><defs><style>.cls-1{fill:none;}.cls-2{fill:#403d56;}</style></defs><rect class="cls-1" x="356.76" y="0.81" width="122.32" height="122.32"/><path class="cls-2" d="M417.88,13.55l45.07,16L456.16,89.2,418,110.38,379.71,89.26l-6.88-59.61,45.05-16.1m0,10.72-28.13,63.2h10.49l5.64-14.17h24l5.68,14.17,10.44,0L417.88,24.27m8.3,40.25H409.71L417.9,44.8Z"/><path class="cls-2" d="M207.18,29.83H153.05l.87,10.77h41.62l-1.06,11.16h-27.3l1,10.56h25.41l-1.51,14.49-11.95,3.3L168,76.78l-.77-8.68H156.47l1.19,15.84,22.46,7,22.07-6.28,5-54.83ZM137,11.7h86.29l-7.84,88.6-35.4,10-35.2-10Z"/><path class="cls-2" d="M24.86,11.7l7.88,88.59,35.37,10,35.6-10L111.6,11.7ZM94.47,40.59H53l.92,11.15H93.55L90.47,85.26,68.35,91.34v.08h-.24L45.8,85.26,44.45,68.13H55.23l.8,8.62L68.11,80l12.12-3.27,1.35-14H43.88L41,29.81H95.46Z"/><path class="cls-2" d="M741.71,58.92v-37a8.42,8.42,0,0,0-8.41-8.42h-74a8.43,8.43,0,0,0-8.42,8.42V47.15a5,5,0,0,0-5,5v50.47a5,5,0,0,0,5,5h37a5.06,5.06,0,0,0,5-5H707a5,5,0,0,0,4.87-6.36l-3.31-12.13h9.58v18.51a5,5,0,0,0,5,5h18.5a5,5,0,0,0,5-5V64a5,5,0,0,0-5-5Zm-52.15,43.74a1.69,1.69,0,0,1-1.68,1.68h-37a1.68,1.68,0,0,1-1.68-1.68V99.29h40.37Zm0-6.72H649.2v-37h40.37Zm0-40.37H649.2V52.19a1.68,1.68,0,0,1,1.68-1.67h37a1.69,1.69,0,0,1,1.68,1.67Zm19.09,41.6a1.68,1.68,0,0,1-1.17,2.07,1.38,1.38,0,0,1-.45.05H692.94V95.93h15.38Zm-15.72-4.6V84.16H705.1l2.29,8.42ZM718.15,80.8H692.93V70.71h25.22Zm0-16.83v3.37H692.93V52.19a5.06,5.06,0,0,0-5-5H654.25V21.92a5.05,5.05,0,0,1,5-5.05h74a5.06,5.06,0,0,1,5.05,5.05v37H723.2a5.05,5.05,0,0,0-5,5Zm25.23,38.69a1.68,1.68,0,0,1-1.67,1.68H723.2a1.68,1.68,0,0,1-1.67-1.69V99.28h21.86Zm0-6.72H721.53V70.71h21.86Zm0-28.6H721.53V64a1.68,1.68,0,0,1,1.67-1.68h18.5A1.68,1.68,0,0,1,743.37,64v3.37Z"/><rect class="cls-2" x="654.53" y="79.1" width="9.52" height="3.37" transform="translate(135.98 489.85) rotate(-45)"/><rect class="cls-2" x="658.48" y="77.42" width="28.54" height="3.37" transform="translate(141.11 498.88) rotate(-45)"/><rect class="cls-2" x="663.92" y="67.33" width="14.28" height="3.37" transform="translate(147.75 494.73) rotate(-45)"/><rect class="cls-2" x="724.83" y="78.27" width="11.9" height="3.37" transform="translate(157.5 540.16) rotate(-45)"/><rect class="cls-2" x="728.19" y="85" width="11.9" height="3.37" transform="translate(153.73 544.5) rotate(-45)"/><rect class="cls-2" x="689.16" y="37.06" width="14.26" height="3.37" transform="translate(176.54 503.7) rotate(-45)"/><rect class="cls-2" x="704.29" y="33.69" width="14.26" height="3.37" transform="translate(183.36 513.42) rotate(-45)"/><rect class="cls-2" x="694.9" y="45.48" width="9.52" height="3.37" transform="translate(171.58 508.54) rotate(-45)"/><rect class="cls-2" x="703.29" y="25.29" width="9.53" height="3.37" transform="translate(188.31 508.57) rotate(-45)"/><rect class="cls-2" x="657.6" y="20.23" width="3.37" height="3.37"/><rect class="cls-2" x="664.34" y="20.23" width="3.37" height="3.37"/><rect class="cls-2" x="671.06" y="20.23" width="3.37" height="3.37"/><path class="cls-2" d="M601.38,68.19h.54a21.48,21.48,0,0,1,9.47,2.21l-.13-.06a16,16,0,0,1,6.3,5.44l0,0a11.07,11.07,0,0,1,1.94,6.34,4.43,4.43,0,0,1,0,.52v0a8.47,8.47,0,0,1-2.84,5.92h0a9.21,9.21,0,0,1-3.2,2h-.06c-.68.13-1,0-1.11-.31s.24-.72.93-1.13a8.08,8.08,0,0,0,3.68-5l0-.05c0-.17,0-.37,0-.58a7.65,7.65,0,0,0-.83-3.51l0,0a11.32,11.32,0,0,0-3.85-4.48l0,0a18.64,18.64,0,0,0-8.49-2.84h-.06a22.22,22.22,0,0,0-3.55-.24,25.7,25.7,0,0,0-9.26,1.73l.17,0a12.86,12.86,0,0,1,1,4.68v0A9.63,9.63,0,0,1,587.39,87l0,0a20.27,20.27,0,0,1-4.25,2.3l-.15,0a7.35,7.35,0,0,1-3.18.72,2.55,2.55,0,0,1-.39,0h0q-3.85-.8-1.83-6.73A15.25,15.25,0,0,1,580,78.77l0,0a28.82,28.82,0,0,1,4.45-4.66l0,0-.41-.59a24.31,24.31,0,0,1-2-4.31l-.06-.18c-.41-1.35-.74-2.65-1-3.88l-.2-1.43-2,3.88c-1.76,3.26-3.46,6.13-5.11,8.57l-.61,1a22.28,22.28,0,0,1,1.43,5.63v.09c0,.18,0,.42,0,.64A9.18,9.18,0,0,1,570.65,91l0,0a36.11,36.11,0,0,1-3.84,2l-.24.09a14.49,14.49,0,0,1-4.87,1.13h0l-.45,0a6.63,6.63,0,0,1-2.84-.65l0,0a2.42,2.42,0,0,1-.61-2.87v0a68.44,68.44,0,0,1,5-6.18l-.06.06,4.5-5.72-.82-1.83a26.89,26.89,0,0,1-1.77-4.08l-.06-.21c-.41-1.35-.74-2.64-1-3.88l-.2-1.42-2,4.9q-2.44,5.72-4.52,9.76-3,6.13-5.1,9.38l-.41.61c-1.62,2.57-3.18,3.88-4.69,3.88s-2.52-1-3-2.85a18.32,18.32,0,0,1-.61-4.68v-.4l.41-2.85v.2c-1.09,2.57-2.16,5-3.25,7.14a28.34,28.34,0,0,1-2.3,3.75l.06-.07a4.6,4.6,0,0,1-3.33,1.42h-.31a4,4,0,0,1-2.68-1h0a12,12,0,0,1-3-5.33l0-.09a18.94,18.94,0,0,1-1.05-6.25c0-.3,0-.57,0-.85v0a40.66,40.66,0,0,1,1.92-9l-.09.3-7.34,4.29V80a17.71,17.71,0,0,1,1.68,7.55c0,.5,0,1-.06,1.48V89a22.33,22.33,0,0,1-3.73,11.32l.05-.08a20.46,20.46,0,0,1-9.43,8l-.13.06a18.19,18.19,0,0,1-7.45,1.55,18.5,18.5,0,0,1-4.94-.67l.13,0a5.71,5.71,0,0,1-3-2.4l0,0a9.55,9.55,0,0,1-1.64-4.88v0a10.49,10.49,0,0,1-.08-1.37,13.39,13.39,0,0,1,1.33-5.84l0,.07a26.32,26.32,0,0,1,9.45-9.5l.13-.06a71,71,0,0,1,9.17-5.34l.42-.19,1-.61q-1.83-1.41-6.73-4.9a107,107,0,0,1-11.74-9.06l.09.09a22.31,22.31,0,0,1-7.12-11.5l0-.15a13.28,13.28,0,0,1,1.46-8.41l0,.07A36.63,36.63,0,0,1,500,32.78l.06,0a66.4,66.4,0,0,1,14.13-10.23l.35-.17a95.32,95.32,0,0,1,15.63-7.12l.68-.2a52.22,52.22,0,0,1,17.53-3h0l1,0a32.21,32.21,0,0,1,14.11,3.25l-.18-.09a13.75,13.75,0,0,1,7.52,8.67l0,.1a19.75,19.75,0,0,1,.52,4.4,18.24,18.24,0,0,1-1.5,7.27l0-.12a31.21,31.21,0,0,1-7.34,10.79h0a32.94,32.94,0,0,1-11.1,7.27l-.22.07a41.7,41.7,0,0,1-14.81,3.26h-.08a24.12,24.12,0,0,1-9.56-.85l.17,0a14.64,14.64,0,0,1-5.12-2.87l0,0a9.45,9.45,0,0,1-2.43-3v-.05c-.41-1.09-.45-1.74-.12-1.94s.58-.25.73-.1l1,1a11.19,11.19,0,0,0,4,2.4l.07,0A20.89,20.89,0,0,0,532,52.68a20.44,20.44,0,0,0,2.35-.13h-.09a40.34,40.34,0,0,0,17.68-6.42l-.15.1a29.1,29.1,0,0,0,10.32-10.36l.07-.15a11.53,11.53,0,0,0,1.19-10.59l0,.07a10.06,10.06,0,0,0-6.88-4.58h0a32.21,32.21,0,0,0-7.45-.87,33.19,33.19,0,0,0-6.22.59l.21,0a65.73,65.73,0,0,0-18.72,6.29l.37-.17q-25,12.6-25.87,25.89v.19a13.3,13.3,0,0,0,3.68,9.19h0a50.69,50.69,0,0,0,8.6,7.63l.17.11A70.79,70.79,0,0,1,519,76.16h0l.4.41,13.06-7.14A22.11,22.11,0,0,1,537.77,64l.08,0a10.84,10.84,0,0,1,6-2.44h.31a3.71,3.71,0,0,1,3.39,2.22v0a7.84,7.84,0,0,1,.66,3.25,7.55,7.55,0,0,1-.07,1.06v0l-.39,2,.61-.41a2.56,2.56,0,0,1,2.57-.3h0a1.8,1.8,0,0,1,1.35,1.74,1.77,1.77,0,0,1-.05.41v0l-.61,2.24q-1.83,7.35-2.44,10.59a8.13,8.13,0,0,0-.32,2.35,4.35,4.35,0,0,0,0,.52v0c.07.81.17,1.22.3,1.22s.4-.41.81-1.22l.61-1.42c.13,0,.13.07,0,.2l2.24-4.7c5.3-11.7,8.15-18.21,8.56-19.58l1.24-3.88c.13-.28.68-.54,1.63-.82a12.83,12.83,0,0,1,3.21-.4h.26c1.91,0,2.85.48,2.85,1.42l-.2,1a34.8,34.8,0,0,0-1.28,4.44l0,.25a11.42,11.42,0,0,0-.13,1.74,12.16,12.16,0,0,0,.24,2.41v-.08l.2.82a16.36,16.36,0,0,0,1.87,4.56l0-.07c1.63-2.72,3.18-5.51,4.7-8.36A40.21,40.21,0,0,0,579,58l.09-.27a32.75,32.75,0,0,1,1.09-4.11l-.07.22c.13-.4.72-.72,1.74-.92a15.73,15.73,0,0,1,3.21-.3h.13c1.91,0,2.93.48,3.06,1.43l-.41.81a29.39,29.39,0,0,0-1.19,4.72v.18c0,.39-.06.85-.06,1.31a14.27,14.27,0,0,0,.28,2.85l0-.09v.81a16.66,16.66,0,0,0,2.07,4.76l0-.08.61,1.43a26.36,26.36,0,0,1,11.65-2.65l.25.07ZM513.9,97.8a16.25,16.25,0,0,0,4.59-11.35,16.61,16.61,0,0,0-.74-4.89l0,.12-3.25,2a48.29,48.29,0,0,0-8.82,6.42l0,0a14.56,14.56,0,0,0-4.16,6.84V97c-.61,2.52-.32,4.16.9,4.9a6.26,6.26,0,0,0,5.35-.11l0,0a15,15,0,0,0,6.1-4.09h0ZM541.25,79c.68-1.75,1.42-3.88,2.24-6.32,1.09-3.26,1.46-5.18,1.11-5.72s-1-.61-2-.2A8.17,8.17,0,0,0,539.82,69v0a28.25,28.25,0,0,0-2.37,3.53l-.07.15a18.13,18.13,0,0,0-2,4.57l0,.14a20.7,20.7,0,0,0-1.24,7.18c0,.35,0,.68,0,1v0c.13,2.72.57,4.2,1.3,4.4s1.57-.78,2.55-3a29.16,29.16,0,0,0,2.38-5.69l.06-.23c.4-1,.68-1.64.83-2Zm22.61,10.8a8.65,8.65,0,0,0,5.11-7.1v-.24l-2.24,2.85-4.09,4.49a.25.25,0,0,0,0,.35l0,.06c.13.15.54,0,1.22-.41Zm17.55-3.88a7.27,7.27,0,0,0,5.31-7v-.15a8.8,8.8,0,0,0-.43-2.31l0,0a16.25,16.25,0,0,0-3.82,5l0,.1c-1.24,2.46-1.57,3.88-1,4.27Z"/><path class="cls-2" d="M248.12,61v49.29h98.55V11.7H248.12Zm79.42-3.92a12.33,12.33,0,0,1,6.18,3.56,16.45,16.45,0,0,1,2.37,3.16c0,.12-4.25,3-6.85,4.61-.1.07-.47-.33-.9-1a5.58,5.58,0,0,0-4.64-2.79c-3-.19-4.91,1.37-4.9,4a4,4,0,0,0,.42,1.85c.65,1.37,1.89,2.19,5.71,3.83,7.05,3,10.08,5,11.94,7.88a14.41,14.41,0,0,1,1.16,12c-1.57,4.08-5.46,6.87-10.92,7.8a29.48,29.48,0,0,1-7.5-.09,18.11,18.11,0,0,1-10-5.23A17,17,0,0,1,307,92.9a5.4,5.4,0,0,1,.91-.58c.44-.27,2.1-1.23,3.66-2.12l2.84-1.66.58.88A13.56,13.56,0,0,0,318.75,93c3.15,1.67,7.46,1.43,9.59-.47a3.54,3.54,0,0,0,1.28-3,3.61,3.61,0,0,0-.73-2.5c-.77-1.09-2.33-2-6.77-3.94-5.09-2.2-7.29-3.53-9.26-5.7a13.06,13.06,0,0,1-2.72-4.93,20.19,20.19,0,0,1-.18-6.3c1-4.92,4.76-8.34,10.11-9.35a24,24,0,0,1,7.47.21ZM304.4,61.18l0,4H291.6v36.47h-9.09V65.2H269.7V61.26a39.94,39.94,0,0,1,.11-4.08c.05,0,7.83-.09,17.3-.08l17.22,0Z"/></svg>