<?xml version="1.0" encoding="utf-8"?>
<!-- Generator: Adobe Illustrator 26.0.0, SVG Export Plug-In . SVG Version: 6.00 Build 0)  -->
<svg version="1.1" id="Capa_1" xmlns="http://www.w3.org/2000/svg" xmlns:xlink="http://www.w3.org/1999/xlink" x="0px" y="0px"
	 viewBox="0 0 480 480" style="enable-background:new 0 0 480 480;" xml:space="preserve">
<style type="text/css">
	.st0{fill:#FFFFFF;}
	.st1{fill:#97DECE;}
</style>
<path class="st0" d="M197,79.9h75c71.8,0,130,58.2,130,130v137c-8,93-58.2,130-130,130h-75c-78-7-130-58.2-130-130v-137
	C67,138.1,125.2,79.9,197,79.9z"/>
<path class="st1" d="M239.9,4.2C107.4,4.2,0,111.7,0,244.3c0,112.5,77.5,206.6,181.9,232.6c-1.1-3.2-1.8-7-1.8-11.6v-41
	c-9.7,0-26,0-30.1,0c-16.4,0-31-7.1-38.1-20.2c-7.9-14.6-9.2-36.8-28.7-50.6c-5.8-4.5-1.4-9.7,5.3-9c12.3,3.5,22.5,11.9,32.1,24.4
	s14,15.4,31.9,15.4c8.7,0,21.6-0.5,33.8-2.4c6.6-16.6,17.9-32,31.7-39.2c-79.9-8.2-118-47.9-118-102c0-23.2,9.9-45.7,26.7-64.7
	c-5.5-18.8-12.4-57.2,2.1-71.8c35.9,0,57.7,23.3,63,29.6c17.9-6.1,37.6-9.6,58.3-9.6s40.4,3.5,58.5,9.7c5.2-6.3,26.9-29.6,63-29.6
	c14.6,14.6,7.6,53.2,2,71.9c16.7,18.9,26.5,41.3,26.5,64.6c0,54-38,93.7-117.9,101.9c21.9,11.4,37.9,43.6,37.9,68v54.7
	c0,2.1-0.5,3.6-0.7,5.4C412.8,437.8,480,349,480,244.3C480,111.7,372.5,4.2,239.9,4.2z"/>
</svg>
