<?xml version="1.0" encoding="utf-8"?>
<!-- Generator: Adobe Illustrator 26.0.0, SVG Export Plug-In . SVG Version: 6.00 Build 0)  -->
<svg version="1.1" id="Capa_1" xmlns="http://www.w3.org/2000/svg" xmlns:xlink="http://www.w3.org/1999/xlink" x="0px" y="0px"
	 viewBox="0 0 480 480" style="enable-background:new 0 0 480 480;" xml:space="preserve">
<style type="text/css">
	.st0{fill:#FFFFFF;}
	.st1{fill:#97DECE;}
</style>
<path class="st0" d="M219.2,62.8h41.6C358.7,62.8,438,142.1,438,240v0c0,97.9-79.3,177.2-177.2,177.2h-41.6
	C121.3,417.2,42,337.9,42,240v0C42,142.1,121.3,62.8,219.2,62.8z"/>
<path class="st1" d="M240.5,1.5C109.1,1.5,2.2,108.4,2.2,239.8S109.1,478,240.5,478s238.2-106.9,238.2-238.2S371.8,1.5,240.5,1.5z
	 M168,343.4h-41.4V188H168V343.4z M147.3,156.9c-11.4,0-20.8-9.2-20.8-20.8s9.2-20.8,20.8-20.8s20.8,9.2,20.8,20.8
	S158.7,156.9,147.3,156.9z M364.8,343.4h-41.4v-51.8v-25.9c0-20-16.3-36.3-36.3-36.3s-36.3,16.3-36.3,36.3v77.7h-41.4V188h41.4v18.8
	c12.1-11.6,28.5-18.8,46.6-18.8c37.2,0,67.4,30.1,67.4,67.4V343.4L364.8,343.4z"/>
</svg>
