<?xml version="1.0" encoding="utf-8"?>
<!-- Generator: Adobe Illustrator 26.0.0, SVG Export Plug-In . SVG Version: 6.00 Build 0)  -->
<svg version="1.1" id="Capa_1" xmlns="http://www.w3.org/2000/svg" xmlns:xlink="http://www.w3.org/1999/xlink" x="0px" y="0px"
	 viewBox="0 0 480 480" style="enable-background:new 0 0 480 480;" xml:space="preserve">
<style type="text/css">
	.st0{fill:#97DECE;}
	.st1{opacity:5.000000e-02;enable-background:new    ;}
	.st2{opacity:7.000000e-02;enable-background:new    ;}
	.st3{fill:#FFFFFF;}
</style>
<g>
	<path class="st0" d="M240.5,3C109.3,3,3,109.3,3,240.5S109.3,478,240.5,478S478,371.7,478,240.5S371.7,3,240.5,3z"/>
	<path class="st1" d="M193,371.1c-38.5,0-75.4-9.4-101.4-25.9l-4-2.5l7-19.8l4.7,0.5c1.5,0.2,3,0.3,4.6,0.2l5.9-0.1
		c15.5-0.2,30.8-2.5,45.7-6.8c-16.6-5.7-37.6-16.6-44.2-37l-5.1-15.5h12.2c-13.2-12-20.6-29-20.5-46.8v-19.2l7.2,3.3
		c-4.7-9.1-7.2-18.3-7.2-26.9c0-12.4,3.3-24.5,9.6-35.2l8.7-14.6l10.8,13.1c23.8,28.9,62.3,60.5,101.6,66.1v-11
		c0-39.9,29.3-71.2,66.7-71.2c18.3,0,34.2,5.2,46.2,15.2c12.3-3.1,27.4-8.8,35.5-13.6l26.9-15.8l-9.6,29.7c-0.5,1.5-1,2.9-1.7,4.3
		l23.1-10.2L390,169.7c-5.3,8.1-10.4,15.8-18.9,23c0.1,3.1,0.1,6.3,0.1,7.7C371.1,283.2,308.7,371.1,193,371.1z"/>
	<path class="st2" d="M193,365.2c-37.4,0-73.2-9.1-98.2-24.9l3.9-10.9c1.7,0.2,3.5,0.3,5.3,0.3l5.9-0.1c19.2,0,45.1-4.4,65-13.9
		c-24.1-4.5-51.1-16.8-57.9-37.8l-2.5-7.7h8.2c4.6,0,9.3-0.2,13.9-0.8c-20.2-10.1-32.5-29.1-32.5-52v-9.9l8.8,4
		c2.6,1.4,5.9,3,9.6,4.5c-10.4-12-18.3-26.8-18.3-41.3c0-11.3,3-22.4,8.7-32.1l4.3-7.3l5.4,6.6c26.2,31.9,68.9,65.9,112.1,68.9V193
		c0-36.6,26.7-65.3,60.8-65.3c18.2,0,33.5,5.4,44.5,15.8c13.3-3,30.7-9.4,40.1-15l13.4-7.9l-4.8,14.8c-2.3,7-7.8,14.2-14.2,20.5
		c2.1-0.8,4.1-1.7,6.2-2.6l18.7-8.3L385,166.4c-5.7,8.7-10.8,16.4-20,23.5c0.1,3.6,0.1,8.6,0.1,10.5
		C365.2,280.3,304.8,365.2,193,365.2z"/>
	<path class="st3" d="M383,133.6c-11.3,6.6-31.7,13.7-45,16.3c-10.6-11.3-25.8-16.3-42.6-16.3c-32.3,0-54.8,27.4-54.8,59.4v23.8
		c-47.5,0-93.8-36.2-122.6-71.2c-5.2,8.8-7.9,18.9-7.9,29.2c0,21.6,19.8,43.5,35.6,54c-9.6-0.3-27.7-7.6-35.6-11.9v0.7
		c0,28.1,19.7,47.2,46.5,52.5c-4.9,1.3-10.8,6.2-33.7,6.2c7.4,23,44.8,35.1,70.4,35.6c-20,15.5-55.7,23.8-83.1,23.8
		c-4.7,0-7.3,0.3-11.9-0.3c25.9,16.4,62,24,95,24c107.5,0,166.2-82.1,166.2-158.8c0-2.5-0.1-10.9-0.2-13.4
		c11.5-8.1,16.2-16.6,24-28.3c-10.5,4.6-23.8,9-35.6,10.4C359.5,162.1,378.6,147.1,383,133.6z"/>
</g>
</svg>
