<svg xmlns="http://www.w3.org/2000/svg" viewBox="0 0 16 16"><defs><style>.cls-1{fill:#bfe0cf;}.cls-2{fill:#fff;}.cls-2,.cls-3{stroke:#009b98;stroke-miterlimit:10;stroke-width:0.07px;}.cls-3{fill:none;}.cls-4{fill:#009b98;}</style></defs><g id="Capa_4" data-name="Capa 4"><circle class="cls-1" cx="8" cy="8.06" r="7.76"/><circle class="cls-2" cx="8.04" cy="7.99" r="7.37"/><circle class="cls-3" cx="7.81" cy="8.43" r="7.37"/><circle class="cls-3" cx="8.19" cy="7.55" r="7.37"/><path class="cls-4" d="M12.5,10a3,3,0,0,1-2,1.2.92.92,0,0,1-.85-.53,3.14,3.14,0,0,1-.29-1.45,8.49,8.49,0,0,1,.29-1.92,8,8,0,0,1,.74-2.06l.29-.52A5.87,5.87,0,0,0,9.66,6c-.25.49-.55,1.18-.9,2.06A17.08,17.08,0,0,1,8,9.89a5,5,0,0,1-.52.78,1.4,1.4,0,0,1-.44.4,1.76,1.76,0,0,1-.67.08q-.18,0-.18-.09s0-.12.06-.32a8.92,8.92,0,0,0,.14-1c0-.44.08-1.21.1-2.28a8,8,0,0,1,.47-2.76A6.67,6.67,0,0,0,6,7.21l-.13.49a6.58,6.58,0,0,1-1.18,2.74,1.83,1.83,0,0,1-1.3.71,1.08,1.08,0,0,1-.7-.24.74.74,0,0,1-.3-.58c0-.17.12-.35.36-.56s.39-.31.46-.31a.14.14,0,0,1,.14.08A2.77,2.77,0,0,1,3.4,10a.8.8,0,0,0,.17.44.39.39,0,0,0,.28.1c.26,0,.54-.26.85-.77a8.63,8.63,0,0,0,.85-2.39l.15-.6A10.84,10.84,0,0,1,6,5.55a5.31,5.31,0,0,1,.46-.88A3.2,3.2,0,0,1,7,4a1.39,1.39,0,0,1,.35-.07,4.36,4.36,0,0,1,.51,0c.07,0,.1,0,.1.12a1.69,1.69,0,0,1,0,.22,8.3,8.3,0,0,0-.09,1.4V7a11.45,11.45,0,0,1-.28,2.83,7.8,7.8,0,0,0,.76-1.65A17.14,17.14,0,0,1,9.65,5.33a5.48,5.48,0,0,1,.69-.87c.27-.28.45-.43.56-.45a4.63,4.63,0,0,1,.89-.1c.09,0,.14,0,.14.08a1.79,1.79,0,0,1-.17.47A12.85,12.85,0,0,0,11,6.83a11.25,11.25,0,0,0-.34,2.39c0,.67.2,1,.61,1s.73-.29,1.19-.85Z"/><path class="cls-4" d="M10.59,1.66c.11-.15-1-.68-1.49.21A1,1,0,0,0,10.59,1.66Z"/><path class="cls-4" d="M12,2.39c.11.12.81-.59.13-1.3A.87.87,0,0,0,12,2.39Z"/><path class="cls-4" d="M10.47,2.59c-.06.16.89.46,1.21-.46A.86.86,0,0,0,10.47,2.59Z"/><path class="cls-4" d="M11.55,2.92c0,.1.59.3.8-.31A.56.56,0,0,0,11.55,2.92Z"/><path class="cls-4" d="M11.21,1.89c.15.05.41-.91-.54-1.18A.86.86,0,0,0,11.21,1.89Z"/></g></svg>