<?xml version="1.0" encoding="utf-8"?>
<!-- Generator: Adobe Illustrator 26.0.0, SVG Export Plug-In . SVG Version: 6.00 Build 0)  -->
<svg version="1.1" id="Capa_1" xmlns="http://www.w3.org/2000/svg" xmlns:xlink="http://www.w3.org/1999/xlink" x="0px" y="0px"
	 viewBox="0 0 704 800" style="enable-background:new 0 0 704 800;" xml:space="preserve">
<style type="text/css">
	.st0{fill:#FFFFFF;}
	.st1{display:none;fill:#3F3D56;}
	.st2{fill:#3F3D56;}
	.st3{display:none;}
	.st4{display:inline;fill:#3F3D56;}
	.st5{fill:none;}
</style>
<path class="st0" d="M481,639.1H216c-89.3,0-161.7-72.4-161.7-161.7V291.2C54.3,172,150.9,75.5,270,75.5h157.2
	c119,0,215.5,96.5,215.5,215.5v186.4C642.7,566.7,570.3,639.1,481,639.1z"/>
<path class="st1" d="M0,0l64,719l287,81l289-81L704,0H0z M565,234.5H228l7.5,90.5h322l-25,272L353,646.4v0.6h-2l-181-50l-11-139
	h87.5l6.5,70l98,26.5l98.4-26.5l11-114h-306L131,147h442L565,234.5L565,234.5z"/>
<g class="st3">
	<path class="st4" d="M569.6,147.1L130.4,147l7.1,87.4l337.6,0.1l-8.6,90.5H245.1l8,85.7h206.1l-12.2,117.5L350,555l-98.5-27
		l-6.3-70.4h-87l9.6,128.5L350,642.9l179.1-51L569.6,147.1L569.6,147.1z M0,0h700l-63.6,718.8L349.2,800L63.7,718.7L0,0z"/>
</g>
<g>
	<rect x="-127.2" y="-79" class="st5" width="962.6" height="962.6"/>
	<path class="st2" d="M353.8,21.3l354.7,126l-53.4,469.3L354.4,783.3l-301-166.2L-0.7,148L353.8,21.3 M353.8,105.6L132.4,603
		l82.6-0.1l44.4-111.5l188.5-0.1l44.7,111.5l82.2-0.1L353.8,105.6 M419.1,422.4l-129.6,0.1L354,267.2L419.1,422.4z"/>
</g>
</svg>
