<svg id="Capa_1" data-name="Capa 1" xmlns="http://www.w3.org/2000/svg" viewBox="0 0 704 800"><defs><style>.cls-1{fill:#3f3d56;}.cls-2{fill:#fff;}</style></defs><path class="cls-1" d="M14.72,438.79a50.21,50.21,0,0,1,0-71h0L316.48,65.88a50.23,50.23,0,0,1,71,0L689.28,367.65a50.21,50.21,0,0,1,0,71h0L387.52,740.55a50.23,50.23,0,0,1-71,0h0Z"/><path class="cls-2" d="M255.2,128.17l-30.59,30.59,78.89,78.88a53.49,53.49,0,0,0,26,71,27,27,0,0,0,3.62,1.51V503.28a53.43,53.43,0,1,0,43.17,2.42V310.49L451.72,386A53.38,53.38,0,1,0,484,357.08l-81-81a53.48,53.48,0,0,0-35.32-66.91,52.89,52.89,0,0,0-31.6,0Z"/></svg>