<?xml version="1.0" encoding="utf-8"?>
<!-- Generator: Adobe Illustrator 26.0.0, SVG Export Plug-In . SVG Version: 6.00 Build 0)  -->
<svg version="1.1" id="Capa_1" xmlns="http://www.w3.org/2000/svg" xmlns:xlink="http://www.w3.org/1999/xlink" x="0px" y="0px"
	 viewBox="0 0 704 800" style="enable-background:new 0 0 704 800;" xml:space="preserve">
<style type="text/css">
	.st0{fill:#3F3D56;}
</style>
<path class="st0" d="M352,53.1C157.6,53.1,0,210.9,0,405.5c0,165.1,113.7,303.2,266.8,341.4c-1.8-5.5-2.7-11.2-2.6-17v-60.3H220
	c-24.1,0-45.5-10.4-55.9-29.7c-11.6-21.5-13.5-54-42.1-74.2c-8.5-6.6-2-14.2,7.8-13.2c18.1,5.1,33.1,17.4,47.1,35.9
	s20.6,22.7,46.8,22.7c16.6,0,33.2-1.1,49.6-3.5c9.7-24.4,26.3-47,46.5-57.6c-117.2-12-173.1-70.4-173.1-149.7
	c0-34.1,14.5-67.2,39.2-94.9c-8.1-27.6-18.2-83.9,3.1-105.4c52.7,0,84.6,34.3,92.3,43.5c55.5-18.9,115.7-18.8,171.2,0.1
	c7.6-9.2,39.5-43.5,92.3-43.5c21.5,21.4,11.1,78,2.9,105.4c24.6,27.8,38.9,60.6,38.9,94.7c0,79.2-55.8,137.5-173,149.6
	c32.2,16.7,55.6,64.1,55.6,99.7v80.2c0,3.1-0.7,5.3-1,7.9C605.5,689.3,704,559,704,405.4C704.1,210.9,546.4,53.1,352,53.1z"/>
</svg>
