<svg id="Capa_1" data-name="Capa 1" xmlns="http://www.w3.org/2000/svg" viewBox="0 0 704 800"><defs><style>.cls-1{fill:#fcfcfc;}.cls-2{fill:#3f3d56;}</style></defs><path class="cls-1" d="M333,75.45h46.85A283.86,283.86,0,0,1,663.71,359.31v100a297,297,0,0,1-297,297H342.29A293.14,293.14,0,0,1,49.14,463.18V359.31A283.86,283.86,0,0,1,333,75.45Z"/><path class="cls-2" d="M352,53.11C157.58,53.11,0,210.89,0,405.46,0,570.56,113.67,708.7,266.84,746.89a51.89,51.89,0,0,1-2.6-17V669.6H220c-24.06,0-45.51-10.42-55.93-29.67-11.63-21.45-13.54-54-42.11-74.18-8.52-6.62-2-14.23,7.82-13.23,18.05,5.11,33.08,17.44,47.12,35.88s20.55,22.66,46.81,22.66a341.56,341.56,0,0,0,49.62-3.51c9.72-24.36,26.26-47,46.51-57.64-117.18-12-173.12-70.37-173.12-149.66,0-34.08,14.54-67.16,39.2-94.93-8.12-27.57-18.25-83.9,3.11-105.35,52.72,0,84.6,34.28,92.32,43.5a265.71,265.71,0,0,1,171.21.1c7.62-9.22,39.5-43.5,92.33-43.5,21.45,21.45,11.12,78,2.9,105.45,24.56,27.77,38.9,60.65,38.9,94.73,0,79.19-55.84,137.53-173,149.56,32.18,16.74,55.63,64.06,55.63,99.74v80.2c0,3.1-.7,5.31-1,7.92C605.46,689.35,704,559,704,405.36,704.1,210.89,546.42,53.11,352,53.11Z"/></svg>