<?xml version="1.0" encoding="utf-8"?>
<!-- Generator: Adobe Illustrator 26.0.0, SVG Export Plug-In . SVG Version: 6.00 Build 0)  -->
<svg version="1.1" id="Capa_1" xmlns="http://www.w3.org/2000/svg" xmlns:xlink="http://www.w3.org/1999/xlink" x="0px" y="0px"
	 viewBox="0 0 704 800" style="enable-background:new 0 0 704 800;" xml:space="preserve">
<style type="text/css">
	.st0{clip-path:url(#SVGID_00000087397047692381219510000016607053744786183856_);}
	.st1{fill:#3F3D56;}
</style>
<g>
	<g>
		<defs>
			<rect id="SVGID_1_" x="-12.6" y="-15.1" width="730.3" height="828"/>
		</defs>
		<clipPath id="SVGID_00000053544438457821922910000007251843144129944970_">
			<use xlink:href="#SVGID_1_"  style="overflow:visible;"/>
		</clipPath>
		<g style="clip-path:url(#SVGID_00000053544438457821922910000007251843144129944970_);">
			<path class="st1" d="M582.7,226.4c-8.7,8.7-20.4,13.9-32.9,13.9c-0.9,0-2.2,0-3,0h-0.9c-12.6,0-24.7-4.8-33.8-13.9l0,0
				c-8.7-9.1-13.4-21.6-13.4-34.2c0-0.4,0-1.3,0-1.7l0,0c0-0.4,0-0.9,0-1.7c0-12.6,5.2-24.2,13.9-32.9l0,0
				c9.1-8.7,21.6-13.9,34.2-13.9h0.4c0.9,0,1.7,0,2.6,0c12.6,0,24.2,4.8,32.9,13.9l0,0c8.2,9.1,13,20.8,13,33.3c0,0.4,0,0.9,0,1.7
				l0,0c0,0.4,0,1.3,0,1.7C596.6,205.2,591.4,217.3,582.7,226.4L582.7,226.4L582.7,226.4z M590.9,578.4c0,4.3-1.7,6.1-5.2,6.1h-76.6
				h-0.4c-3,0-5.6-2.6-5.6-5.6c0-0.4,0-0.4,0-0.9V277.5c0-3.9,1.7-5.6,5.2-5.6h77.1c3.5,0,5.2,2.2,5.2,5.6v300.9H590.9z
				 M458.4,584.5H377h-0.4c-2.6,0-4.8-1.7-5.6-4.3l0,0l-32.5-92.7H193.4L164,579.3c-0.9,3-3.5,5.6-6.9,5.6c-0.4,0-0.4,0-0.9,0H83
				c-4.3,0-5.6-2.6-4.3-6.9l125.6-361.6c1.3-3.9,2.6-8.2,3.9-13c1.7-8.2,2.6-16.9,2.6-25.1v-0.4l0,0v-0.4c0-1.7,1.3-3.5,3-3.9h101.3
				c3,0,4.8,1.3,5.2,3l142.5,401.8C463.6,582.8,462.3,584.5,458.4,584.5L458.4,584.5z M655.5-60.3H50.6
				c-91.4,0-165.8,74-165.8,165.4l0,0l0,0l0,0v581.5c0,91.4,74,165.8,165.8,165.8l0,0h604.9c91.4,0,165.4-74,165.4-165.8l0,0l0,0
				V105.2C821.3,13.8,747.3-60.3,655.5-60.3L655.5-60.3L655.5-60.3z M295.6,346.3c-3.9-12.1-7.4-23.8-11.3-35.9S277,287,274,275.8
				c-3-10.8-6.1-21.2-8.7-30.3h-0.9c-3.9,18.2-8.2,35.9-14.3,53.7l0.9-3.5c-6.1,18.6-11.7,38.1-17.8,57.6
				c-5.6,19.9-11.3,38.1-17.3,54.6h99.2c-2.6-8.2-5.6-17.8-9.1-28.1C303,369.7,299.1,358,295.6,346.3L295.6,346.3z"/>
		</g>
	</g>
</g>
</svg>
