<?xml version="1.0" encoding="utf-8"?>
<!-- Generator: Adobe Illustrator 26.0.0, SVG Export Plug-In . SVG Version: 6.00 Build 0)  -->
<svg version="1.1" id="Capa_1" xmlns="http://www.w3.org/2000/svg" xmlns:xlink="http://www.w3.org/1999/xlink" x="0px" y="0px"
	 viewBox="0 0 704 800" style="enable-background:new 0 0 704 800;" xml:space="preserve">
<style type="text/css">
	.st0{fill:#3F3D56;}
</style>
<path class="st0" d="M332.5,372h-76.3c0,65.7-0.4,131.1-0.4,197c0.9,8.9,1.4,19.3,1.4,29.9c0,21.5-2.1,43-6.4,64.1l0.4-2.1
	c-11.2,23.4-40,20.4-53.1,16.3c-12.1-6.4-21.9-16.5-28-28.7l-0.1-0.3c-1.1-2.4-2.6-4.7-4.4-6.7l0,0l-61.9,38.1
	c9.6,21,25,38.7,44.4,51.2l0.5,0.2c22,12.2,46.7,18.5,71.8,18.4c12.8,0,25.6-1.6,38.1-4.9l-1,0.2c26.2-6.4,48.4-23.6,61.3-47.2
	l0.2-0.6c10.3-26.7,15.5-55,15.4-83.6c0-10.4-0.7-20.8-2.1-31.1l0.1,1.2c0.5-69.7,0-139.5,0-209.6L332.5,372z M637.3,617.8
	c-5.9-37.2-30.1-68.4-101.8-97.4c-25-11.7-52.8-19.8-61-38.7c-3-7.7-3.5-16.2-1.5-24.2v0.2c5.7-15.2,20.2-25.4,36.5-25.4
	c5.2,0,10.4,1,15.2,3l-0.2-0.1c14.7,5,26.6,16,32.9,30.2l0.1,0.4c35.1-22.9,35.1-22.9,59.6-38.2c-5.6-9.6-12.2-18.5-19.9-26.5l0,0
	c-24.8-26.3-60.7-39.3-96.6-35.1h0.6l-24,3c-22.4,5-42.6,16.9-57.9,34l-0.1,0.1c-36.7,45.9-29.3,112.9,16.7,149.6
	c0.8,0.6,1.6,1.3,2.4,1.8l0.2,0.2c46.3,34.6,114,42.2,122.7,74.8c8.1,39.7-29.5,52.4-66.7,47.8c-25.3-5.6-47-22-59.2-44.9l-0.2-0.5
	l-62,35.7c6.9,14,16.2,26.7,27.4,37.6l0,0c59,59.6,206.6,56.5,233.1-34c3.2-10.7,4.9-21.8,4.9-33c0-8-0.8-15.9-2.4-23.7l0.1,0.8
	L637.3,617.8z M-110.3-2.3H704V812h-814.3V-2.3z"/>
</svg>
