<svg id="Capa_1" data-name="Capa 1" xmlns="http://www.w3.org/2000/svg" viewBox="0 0 704 800"><defs><style>.cls-1{fill:#fff;}.cls-2{fill:#3f3d56;}</style></defs><rect class="cls-1" x="87.71" y="179.24" width="576" height="588.44"/><path class="cls-2" d="M332.5,372H256.24c0,65.73-.35,131.12-.35,197,.92,8.92,1.39,19.33,1.39,29.86a322.33,322.33,0,0,1-6.37,64.12l.35-2.09c-11.23,23.38-40,20.37-53.12,16.32a65.77,65.77,0,0,1-28-28.7l-.11-.35a28.05,28.05,0,0,0-4.4-6.71h0L103.7,679.57a120.52,120.52,0,0,0,44.44,51.16l.47.23a146.91,146.91,0,0,0,71.75,18.4,151.3,151.3,0,0,0,38.07-4.86l-1,.23a96.06,96.06,0,0,0,61.34-47.22l.23-.58a229.8,229.8,0,0,0,15.39-83.56,233,233,0,0,0-2.08-31.13l.12,1.16c.46-69.67,0-139.46,0-209.59ZM637.34,617.77c-5.9-37.15-30.09-68.39-101.84-97.44-25-11.69-52.78-19.79-61-38.66a40.29,40.29,0,0,1-1.5-24.19v.24a38.89,38.89,0,0,1,36.46-25.35,39.8,39.8,0,0,1,15.16,3l-.24-.12a55.38,55.38,0,0,1,32.87,30.21l.12.35c35.06-22.92,35.06-22.92,59.6-38.19a139.49,139.49,0,0,0-19.91-26.51h0a114.21,114.21,0,0,0-96.63-35.06H501l-24,3a109.4,109.4,0,0,0-57.86,34l-.12.12a106.47,106.47,0,0,0,16.66,149.64c.81.58,1.62,1.27,2.44,1.85l.23.23c46.29,34.6,114,42.24,122.67,74.76,8.1,39.7-29.51,52.43-66.66,47.8a89.19,89.19,0,0,1-59.25-44.9l-.24-.47-62,35.65a137.37,137.37,0,0,0,27.43,37.61h0c59,59.6,206.58,56.48,233.08-34a113.88,113.88,0,0,0,4.86-33,116.22,116.22,0,0,0-2.43-23.72l.12.81ZM-110.29-2.32H704V812H-110.29Z"/></svg>