<svg id="Capa_1" data-name="Capa 1" xmlns="http://www.w3.org/2000/svg" viewBox="0 0 704 800"><defs><style>.cls-1{fill:#fff;}.cls-2{fill:#3f3d56;}</style></defs><rect class="cls-1" x="2.14" y="308.19" width="326.51" height="404.42" rx="48.28"/><rect class="cls-1" x="517.44" y="388.11" width="174.56" height="324.49" rx="48.28"/><rect class="cls-1" x="43.32" y="76.15" width="612.97" height="465.48" rx="48.28"/><polyline class="cls-1" points="416.66 531.68 457.72 654.83 434.2 684.13 290.86 684.13 252.29 531.68"/><path class="cls-2" d="M669,384.94V126.8a58.8,58.8,0,0,0-58.7-58.71H93.91A58.81,58.81,0,0,0,35.2,126.8v176A35.23,35.23,0,0,0,.1,338V690.08a35.26,35.26,0,0,0,35.2,35.21H293.44a35.27,35.27,0,0,0,35.21-35.21H427A35.18,35.18,0,0,0,462.17,655a36.08,36.08,0,0,0-1.21-9.3l-23.1-84.62h66.81V690.18a35.26,35.26,0,0,0,35.21,35.21h129a35.26,35.26,0,0,0,35.21-35.21v-270A35.1,35.1,0,0,0,669,384.94ZM305.14,690.08a11.71,11.71,0,0,1-11.7,11.7H35.3a11.71,11.71,0,0,1-11.7-11.7v-23.5H305.24Zm0-46.9H23.6V384.94H305.24Zm0-281.64H23.6V338a11.71,11.71,0,0,1,11.7-11.7H293.44a11.71,11.71,0,0,1,11.7,11.7ZM438.36,651.78a11.73,11.73,0,0,1-8.2,14.4,10.55,10.55,0,0,1-3.1.4H328.75v-23.5H436.06ZM328.65,619.67V561h84.91l16,58.71Zm176-82.11h-176V467.15h176Zm0-117.42v23.51h-176V338a35.26,35.26,0,0,0-35.21-35.2H58.81v-176A35.25,35.25,0,0,1,94,91.6H610.39a35.25,35.25,0,0,1,35.2,35.2V384.94H539.88a35.25,35.25,0,0,0-35.21,35.2Zm176,269.94A11.72,11.72,0,0,1,669,701.78H539.88A11.75,11.75,0,0,1,528.17,690v-23.5H680.7Zm0-46.9H528.17v-176H680.7Zm0-199.53H528.17V420.14a11.72,11.72,0,0,1,11.71-11.7h129a11.72,11.72,0,0,1,11.71,11.7v23.51Z"/><rect class="cls-2" x="60.8" y="525.71" width="66.41" height="23.5" transform="translate(-352.51 223.89) rotate(-45)"/><rect class="cls-2" x="88.33" y="514.01" width="199.13" height="23.5" transform="translate(-316.74 286.85) rotate(-45)"/><rect class="cls-2" x="126.32" y="443.62" width="99.61" height="23.5" transform="translate(-270.41 257.92) rotate(-45)"/><rect class="cls-2" x="551.21" y="519.93" width="83.01" height="23.5" transform="translate(-202.36 574.84) rotate(-45)"/><rect class="cls-2" x="574.64" y="566.83" width="83.01" height="23.5" transform="translate(-228.66 605.14) rotate(-45)"/><rect class="cls-2" x="302.36" y="232.42" width="99.51" height="23.5" transform="translate(-69.52 320.5) rotate(-45)"/><rect class="cls-2" x="407.96" y="208.94" width="99.51" height="23.5" transform="translate(-21.99 388.29) rotate(-45)"/><rect class="cls-2" x="342.39" y="291.13" width="66.41" height="23.5" transform="translate(-104.16 354.3) rotate(-45)"/><rect class="cls-2" x="400.95" y="150.35" width="66.51" height="23.5" transform="translate(12.55 354.5) rotate(-45)"/><rect class="cls-2" x="82.21" y="115" width="23.5" height="23.5"/><rect class="cls-2" x="129.22" y="115" width="23.5" height="23.5"/><rect class="cls-2" x="176.12" y="115" width="23.5" height="23.5"/></svg>