<?xml version="1.0" encoding="utf-8"?>
<!-- Generator: Adobe Illustrator 26.0.0, SVG Export Plug-In . SVG Version: 6.00 Build 0)  -->
<svg version="1.1" id="Capa_1" xmlns="http://www.w3.org/2000/svg" xmlns:xlink="http://www.w3.org/1999/xlink" x="0px" y="0px"
	 viewBox="0 0 704 800" style="enable-background:new 0 0 704 800;" xml:space="preserve">
<style type="text/css">
	.st0{fill:#3F3D56;}
</style>
<path class="st0" d="M669,384.9V126.8c0-32.4-26.3-58.7-58.7-58.7H93.9c-32.4,0.1-58.7,26.3-58.7,58.7v176
	C15.8,302.9,0.1,318.6,0.1,338v352.1c0,19.4,15.8,35.2,35.2,35.2h258.1c19.4,0,35.2-15.8,35.2-35.2H427c19.4,0,35.1-15.7,35.2-35.1
	c0-3.1-0.4-6.3-1.2-9.3l-23.1-84.6h66.8v129.1c0,19.4,15.8,35.2,35.2,35.2h129c19.4,0,35.2-15.8,35.2-35.2v-270
	c0.1-19.4-15.6-35.2-35-35.2C669.1,384.9,669,384.9,669,384.9z M305.1,690.1c0,6.5-5.2,11.7-11.7,11.7H35.3
	c-6.5,0-11.7-5.2-11.7-11.7v-23.5h281.6L305.1,690.1z M305.1,643.2H23.6V384.9h281.6L305.1,643.2z M305.1,361.5H23.6V338
	c0-6.5,5.2-11.7,11.7-11.7h258.1c6.5,0,11.7,5.2,11.7,11.7V361.5z M438.4,651.8c1.7,6.2-2,12.7-8.2,14.4c-1,0.3-2.1,0.4-3.1,0.4
	h-98.3v-23.5h107.3L438.4,651.8z M328.6,619.7V561h84.9l16,58.7L328.6,619.7z M504.6,537.6h-176v-70.4h176V537.6z M504.6,420.1v23.5
	h-176V338c0-19.4-15.8-35.2-35.2-35.2H58.8v-176c0-19.4,15.8-35.2,35.2-35.2h516.4c19.4,0,35.2,15.8,35.2,35.2v258.1H539.9
	C520.4,385,504.7,400.7,504.6,420.1L504.6,420.1z M680.7,690.1c0,6.4-5.2,11.7-11.7,11.7H539.9c-6.5,0-11.7-5.3-11.7-11.8v-23.5
	h152.5L680.7,690.1z M680.7,643.2H528.2v-176h152.5L680.7,643.2z M680.7,443.6H528.2v-23.5c0-6.5,5.2-11.7,11.7-11.7h129
	c6.5,0,11.7,5.2,11.7,11.7L680.7,443.6L680.7,443.6z"/>
<rect x="60.8" y="525.7" transform="matrix(0.7071 -0.7071 0.7071 0.7071 -352.5087 223.8887)" class="st0" width="66.4" height="23.5"/>
<rect x="88.3" y="514" transform="matrix(0.7071 -0.7071 0.7071 0.7071 -316.7343 286.8491)" class="st0" width="199.1" height="23.5"/>
<rect x="126.3" y="443.6" transform="matrix(0.7071 -0.7071 0.7071 0.7071 -270.4138 257.9153)" class="st0" width="99.6" height="23.5"/>
<rect x="551.2" y="519.9" transform="matrix(0.7071 -0.7071 0.7071 0.7071 -202.3558 574.8334)" class="st0" width="83" height="23.5"/>
<rect x="574.6" y="566.8" transform="matrix(0.7071 -0.7071 0.7071 0.7071 -228.6534 605.1369)" class="st0" width="83" height="23.5"/>
<rect x="302.4" y="232.4" transform="matrix(0.7071 -0.7071 0.7071 0.7071 -69.5225 320.5005)" class="st0" width="99.5" height="23.5"/>
<rect x="408" y="208.9" transform="matrix(0.7071 -0.7071 0.7071 0.7071 -21.9884 388.2912)" class="st0" width="99.5" height="23.5"/>
<rect x="342.4" y="291.1" transform="matrix(0.7071 -0.7071 0.7071 0.7071 -104.1614 354.2975)" class="st0" width="66.4" height="23.5"/>
<rect x="400.9" y="150.3" transform="matrix(0.7071 -0.7071 0.7071 0.7071 12.5578 354.5025)" class="st0" width="66.5" height="23.5"/>
<rect x="82.2" y="115" class="st0" width="23.5" height="23.5"/>
<rect x="129.2" y="115" class="st0" width="23.5" height="23.5"/>
<rect x="176.1" y="115" class="st0" width="23.5" height="23.5"/>
</svg>
