<?xml version="1.0" encoding="utf-8"?>
<!-- Generator: Adobe Illustrator 26.0.0, SVG Export Plug-In . SVG Version: 6.00 Build 0)  -->
<svg version="1.1" id="Capa_1" xmlns="http://www.w3.org/2000/svg" xmlns:xlink="http://www.w3.org/1999/xlink" x="0px" y="0px"
	 viewBox="0 0 704 800" style="enable-background:new 0 0 704 800;" xml:space="preserve">
<style type="text/css">
	.st0{fill:#FFFFFF;}
	.st1{display:none;fill:#3F3D56;}
	.st2{fill:#3F3D56;}
	.st3{display:none;}
	.st4{display:inline;fill:#3F3D56;}
</style>
<path class="st1" d="M0,0l64,719l287,81l289-81L704,0H0z M565,234.5H228l7.5,90.5h322l-25,272L353,646.4v0.6h-2l-181-50l-11-139
	h87.5l6.5,70l98,26.5l98.4-26.5l11-114h-306L131,147h442L565,234.5L565,234.5z"/>
<g>
	<path class="st2" d="M606.7,434.7c0.9,0,1.9,0,2.9,0c17.7,0,35.3,4.1,51.2,11.9l-0.7-0.3c13.7,6.6,25.5,16.7,34.1,29.4l0.2,0.3
		c6.9,10.1,10.6,22.1,10.5,34.3c0,0.9,0,1.9-0.1,2.8V513c-0.6,12.3-6.2,23.8-15.4,32l0,0c-4.9,4.8-10.8,8.6-17.3,11l-0.3,0.1
		c-3.7,0.7-5.7,0.2-6-1.7c-0.3-1.9,1.3-3.9,5-6.1c10-6,17.1-15.8,19.9-27.3l0.1-0.3c0.1-0.9,0.1-2,0.1-3.1c0-6.6-1.5-13.1-4.5-19
		l0.1,0.2c-4.6-9.7-11.8-18-20.8-24.2l-0.2-0.1c-13.8-8.8-29.6-14.1-45.9-15.4h-0.3c-6.4-0.9-12.8-1.4-19.2-1.3
		c-17.1,0-34.2,3.2-50.1,9.4l0.9-0.3c3.3,8,5.2,16.5,5.4,25.3v0.1c-0.3,18-9.8,34.6-25.3,43.9l-0.2,0.1c-7.1,5-14.8,9.2-23,12.4
		L507,549c-5.4,2.6-11.3,3.9-17.2,3.9c-0.7,0-1.4,0-2.1-0.1h0.1c-13.9-2.9-17.2-15-9.9-36.4c3-8.8,7.5-17.1,13.3-24.5l-0.1,0.1
		c7-9.2,15.1-17.7,24.1-25.2l0.2-0.2l-2.2-3.2c-4.3-7.4-7.9-15.2-10.7-23.3l-0.3-1c-2.2-7.3-4-14.3-5.5-21l-1.1-7.7l-11,21
		c-9.5,17.6-18.7,33.1-27.6,46.3l-3.3,5.5c3.9,9.7,6.5,20,7.7,30.4v0.5c0.1,1,0.1,2.3,0.1,3.5c0,16-7.8,31.2-21,40.5l-0.2,0.1
		c-6.7,4.1-13.6,7.7-20.8,11l-1.3,0.5c-8.3,3.6-17.2,5.6-26.3,6.1h-0.2c-0.7,0-1.6,0.1-2.4,0.1c-5.3,0-10.6-1.2-15.4-3.5l0.2,0.1
		c-4.5-3.8-5.8-10.2-3.3-15.5v0.1c8.3-11.6,17.2-22.8,26.8-33.4l-0.3,0.3l24.3-30.9l-4.4-9.9c-3.8-7.1-7-14.4-9.6-22.1l-0.3-1.1
		c-2.2-7.3-4-14.3-5.5-21l-1.1-7.7l-11,26.5c-8.8,20.6-16.9,38.2-24.4,52.8c-11,22.1-20.2,39-27.6,50.7l-2.2,3.3
		c-8.8,13.9-17.2,21-25.4,21c-8.1,0-13.6-5.2-16.4-15.4c-2.2-8.2-3.3-16.7-3.3-25.3v-2.2l2.2-15.4v1.1
		c-5.9,13.9-11.7,26.9-17.6,38.6c-3.6,7.1-7.7,13.8-12.4,20.3l0.3-0.4c-4.7,4.9-11.2,7.7-18,7.7h-0.2c-0.5,0-1,0-1.5,0
		c-5.3,0-10.5-2-14.5-5.6l0,0c-7.8-8-13.4-17.9-16.3-28.8l-0.1-0.5c-3.8-10.8-5.7-22.3-5.7-33.8c0-1.6,0-3.1,0.1-4.6v0.2
		c1.6-16.6,5.1-33.1,10.4-48.9l-0.5,1.6l-39.7,23.2v1.1c6,12.7,9.1,26.7,9.1,40.8c0,2.7-0.1,5.4-0.3,8v-0.3
		c-1.1,21.9-8,43-20.2,61.2l0.3-0.4c-12.1,19.3-30,34.5-51,43.3l-0.7,0.3c-12.7,5.6-26.4,8.5-40.3,8.4c-9,0-17.9-1.2-26.7-3.6
		l0.7,0.2c-6.8-2.3-12.6-6.9-16.4-13l-0.1-0.1c-5.3-7.8-8.4-16.9-8.9-26.4v-0.1c-0.3-2.5-0.4-4.9-0.4-7.4c0-10.9,2.4-21.8,7.2-31.6
		l-0.2,0.4c12.3-21.3,30-38.9,51.1-51.4l0.7-0.3c15.7-10.8,32.4-20.5,49.6-28.9l2.3-1l5.5-3.3c-6.6-5.1-18.7-13.9-36.4-26.5
		c-22.3-14.8-43.4-31.2-63.5-49l0.5,0.5c-18.9-16.2-32.4-38-38.5-62.2l-0.2-0.8c-0.6-3.7-0.9-7.5-0.9-11.2c0-12,3-23.8,8.8-34.3
		l-0.2,0.4c11.8-25.7,29.1-48.5,50.5-67l0.3-0.2c23-21.7,48.6-40.3,76.4-55.3l1.9-0.9c27-15.3,55.2-28.3,84.5-38.5l3.7-1.1
		c28.2-10.3,60.9-16.3,94.8-16.4l0,0c1.5,0,3.4-0.1,5.2-0.1c26.5,0,52.5,6,76.3,17.6l-1-0.5c19.7,8.9,34.7,26.1,40.7,46.9l0.1,0.5
		C443,203,444,211,444,219c0,13.5-2.7,26.9-8.1,39.3l0.2-0.6c-9,22.1-22.5,41.9-39.7,58.3l-0.1,0.1c-17.1,17-37.6,30.4-60,39.3
		l-1.2,0.4c-25.4,10.7-52.5,16.7-80.1,17.6h-0.4c-4.7,0.5-9.4,0.8-14.1,0.8c-12.7,0-25.4-1.8-37.6-5.4l0.9,0.2
		c-10.2-3.2-19.6-8.5-27.7-15.5l0.1,0.1c-5.4-4.4-9.9-9.9-13.1-16.2l-0.1-0.3c-2.2-5.9-2.4-9.4-0.6-10.5c1.8-1.1,3.1-1.3,3.9-0.5
		l5.5,5.5c6.2,5.8,13.6,10.2,21.7,13l0.4,0.1c12,4.1,24.7,6.2,37.5,6.1c4.2,0,8.5-0.2,12.7-0.7h-0.5c34.2-3.9,67-15.8,95.6-34.7
		l-0.8,0.5c23.1-13.6,42.3-32.9,55.8-56l0.4-0.8c11.4-16.9,13.7-38.4,6.4-57.3l0.2,0.4c-8.3-13.2-21.9-22.3-37.2-24.8h-0.3
		c-13.2-3.1-26.7-4.7-40.3-4.7c-11.3,0-22.6,1.1-33.6,3.2l1.1-0.2c-35.3,6.2-69.4,17.6-101.2,34l2-0.9
		c-90.2,45.4-136.9,92.1-139.9,140v1c0,18.5,7.1,36.4,19.9,49.7l0,0c13.9,15.5,29.5,29.4,46.5,41.3l0.9,0.6
		c14.8,11,28.9,23.3,41.9,36.4l0,0l2.2,2.2l70.6-38.6c7.8-11.4,17.6-21.4,28.9-29.5l0.4-0.2c9.1-7.6,20.5-12.2,32.3-13.2h0.2
		c0.5,0,1,0,1.5,0c7.9,0,15.1,4.7,18.3,12v0.1c2.4,5.5,3.7,11.5,3.6,17.6c0,1.9-0.1,3.8-0.4,5.7v-0.2l-2.1,10.9l3.3-2.2
		c4-3,9.3-3.6,13.9-1.6h-0.1c4.3,1.1,7.3,5,7.3,9.4c0,0.8-0.1,1.5-0.3,2.2v-0.1l-3.3,12.1c-6.6,26.5-11,45.6-13.2,57.3
		c-1.2,4.1-1.7,8.4-1.7,12.7c0,1,0,1.9,0.1,2.8v-0.1c0.4,4.4,0.9,6.6,1.6,6.6s2.2-2.2,4.4-6.6l3.3-7.7c0.7,0,0.7,0.4,0,1.1
		l12.1-25.4c28.7-63.3,44.1-98.5,46.3-105.9l6.7-21c0.7-1.5,3.7-2.9,8.8-4.4c5.7-1.5,11.5-2.2,17.4-2.2h1.4
		c10.3,0,15.4,2.6,15.4,7.7l-1.1,5.5c-2.8,7.8-5.1,15.8-6.9,24l-0.2,1.4c-0.5,3.1-0.7,6.3-0.7,9.4c0,4.4,0.4,8.7,1.3,13l-0.1-0.4
		l1.1,4.4c2.1,8.7,5.5,17,10.1,24.7l-0.2-0.4c8.8-14.7,17.2-29.8,25.4-45.2c6.8-11.4,12.5-23.5,17.1-36l0.5-1.5
		c1.5-7.5,3.4-14.9,5.9-22.2l-0.4,1.2c0.7-2.2,3.9-3.9,9.4-5c5.7-1.1,11.6-1.7,17.4-1.6h0.7c10.3,0,15.8,2.6,16.5,7.7l-2.2,4.4
		c-2.8,8.3-5,16.8-6.4,25.5l-0.1,1c-0.2,2.1-0.3,4.6-0.3,7.1c0,5.2,0.5,10.3,1.5,15.4l-0.2-0.5v4.4c2.4,9.1,6.1,17.7,11.2,25.7
		l-0.2-0.4l3.3,7.7c19.6-9.5,41.2-14.4,63-14.3L606.7,434.7L606.7,434.7z M133.6,594.8c15.9-16.4,24.9-38.4,24.8-61.4
		c0-8.9-1.3-17.8-4-26.4l0.2,0.6l-17.6,11c-17.1,9.7-33.2,21.4-47.7,34.7l0.2-0.2c-10.8,9.9-18.6,22.8-22.5,37l-0.1,0.5
		c-3.3,13.6-1.7,22.5,4.9,26.5c9.2,4.1,19.9,3.9,28.9-0.6l-0.2,0.1c12.6-4.5,24-12.1,33-22.1l0.1-0.1L133.6,594.8z M281.5,493.2
		c3.7-9.5,7.7-21,12.1-34.2c5.9-17.6,7.9-28,6-30.9c-1.9-2.9-5.3-3.3-10.5-1.1c-5.9,2.8-11.2,6.9-15.3,12l-0.1,0.1
		c-4.7,6-9,12.4-12.8,19.1l-0.4,0.8c-4.7,7.7-8.3,15.9-10.8,24.7l-0.2,0.8c-4.5,12.4-6.8,25.6-6.7,38.8c0,1.9,0,3.7,0.1,5.6v-0.3
		c0.7,14.7,3.1,22.7,7,23.8c3.9,1.1,8.5-4.2,13.8-16c5.4-9.8,9.7-20.2,12.9-30.8l0.3-1.2c2.2-5.2,3.7-8.9,4.5-11L281.5,493.2z
		 M403.8,551.6c15.4-6.8,26.1-21.6,27.6-38.4v-1.3l-12.1,15.4l-22.1,24.3c-0.6,0.5-0.7,1.3-0.3,1.9c0.1,0.1,0.2,0.2,0.3,0.3
		C397.9,554.6,400.1,553.9,403.8,551.6L403.8,551.6z M498.7,530.6c16.9-4.7,28.7-20.2,28.7-37.8V492c-0.2-4.2-1-8.4-2.3-12.5
		l0.1,0.3c-8.6,7.6-15.6,16.8-20.7,27.2l-0.2,0.5C497.6,520.8,495.8,528.5,498.7,530.6L498.7,530.6z"/>
</g>
<g class="st3">
	<path class="st4" d="M569.6,147.1L130.4,147l7.1,87.4l337.6,0.1l-8.6,90.5H245.1l8,85.7h206.1l-12.2,117.5L350,555l-98.5-27
		l-6.3-70.4h-87l9.6,128.5L350,642.9l179.1-51L569.6,147.1L569.6,147.1z M0,0h700l-63.6,718.8L349.2,800L63.7,718.7L0,0z"/>
</g>
</svg>
