<?xml version="1.0" encoding="utf-8"?>
<!-- Generator: Adobe Illustrator 26.0.0, SVG Export Plug-In . SVG Version: 6.00 Build 0)  -->
<svg version="1.1" id="Capa_1" xmlns="http://www.w3.org/2000/svg" xmlns:xlink="http://www.w3.org/1999/xlink" x="0px" y="0px"
	 viewBox="0 0 704 800" style="enable-background:new 0 0 704 800;" xml:space="preserve">
<style type="text/css">
	.st0{fill:#3F3D56;}
</style>
<path class="st0" d="M-110.3,406.4v408.8h817.4V-2.3h-817.4L-110.3,406.4z M548.5,373.9c20.8,5.2,36.6,14.5,51.3,29.6
	c7.5,8,18.6,22.6,19.6,26.2c0.2,1-35.2,24.8-56.8,38.2c-0.8,0.6-3.9-2.8-7.5-8c-10.5-15.4-21.6-21.9-38.5-23.1
	c-24.7-1.6-40.8,11.3-40.6,33c-0.1,5.3,1.1,10.6,3.5,15.4c5.4,11.3,15.7,18.1,47.3,31.8c58.5,25.2,83.6,41.8,99.1,65.3
	c17.4,26.3,21.2,68.4,9.6,99.8c-13,33.8-45.3,57-90.5,64.7c-14,2.5-47.2,2.1-62.2-0.7c-32.8-5.9-64-22.1-83.1-43.4
	c-7.6-8.3-22.2-29.9-21.2-31.4c2.3-1.8,4.9-3.5,7.5-4.8c3.7-2.2,17.4-10.2,30.4-17.5l23.5-13.7l4.9,7.3c6.9,10.5,21.9,24.8,31,29.7
	c26.1,13.9,61.9,11.9,79.6-3.9c7.2-6,11.2-15.1,10.6-24.5c0-9.5-1.2-13.7-6.1-20.8c-6.3-9-19.3-16.7-56.1-32.7
	c-42.2-18.2-60.5-29.3-76.8-47.3c-10.4-11.8-18.1-25.8-22.5-40.9c-3.1-11.5-3.8-40.6-1.5-52.2c8.7-40.9,39.5-69.2,83.8-77.6
	C500.9,369.3,534.4,370.3,548.5,373.9L548.5,373.9z M356.6,408l0.2,33.5H250.3V744H175V441.4H68.7v-32.7c0-18.2,0.5-33.4,0.9-33.8
	s65-0.8,143.5-0.7l142.8,0.5L356.6,408z"/>
</svg>
