<svg id="Capa_1" data-name="Capa 1" xmlns="http://www.w3.org/2000/svg" viewBox="0 0 704 800"><defs><style>.cls-1{fill:#fff;}.cls-2{fill:#3f3d56;}</style></defs><rect class="cls-1" x="54.29" y="179.24" width="609.43" height="588.44"/><path class="cls-2" d="M-110.29,406.44V815.19h817.4V-2.32h-817.4Zm658.74-32.56c20.79,5.19,36.61,14.55,51.27,29.56,7.51,8,18.59,22.63,19.63,26.21.23,1-35.22,24.82-56.81,38.22-.81.57-3.92-2.77-7.5-8-10.51-15.36-21.6-21.94-38.45-23.09-24.71-1.62-40.76,11.31-40.65,33a32.53,32.53,0,0,0,3.47,15.36c5.42,11.31,15.7,18.12,47.34,31.75,58.54,25.17,83.6,41.8,99.07,65.35,17.43,26.33,21.24,68.36,9.58,99.77-13,33.83-45.26,57-90.52,64.66-14,2.54-47.23,2.08-62.24-.69-32.79-5.89-64-22.06-83.14-43.42-7.62-8.31-22.17-29.9-21.24-31.41a47.38,47.38,0,0,1,7.5-4.85c3.7-2.19,17.44-10.16,30.37-17.55l23.55-13.74,4.85,7.28c6.93,10.5,21.94,24.82,31,29.67,26.09,13.86,61.89,11.9,79.56-3.92a29.42,29.42,0,0,0,10.62-24.48c0-9.47-1.16-13.74-6.12-20.79-6.35-9-19.28-16.74-56.12-32.67C461.28,571.9,443,560.82,426.64,542.8a108.19,108.19,0,0,1-22.52-40.87c-3.12-11.55-3.81-40.65-1.5-52.19,8.66-40.88,39.49-69.17,83.83-77.6,14.43-2.88,47.92-1.84,62,1.74Zm-191.9,34.17.23,33.49H250.32V744H175V441.42H68.69V408.75c0-18.25.46-33.37.92-33.83s65-.81,143.53-.7l142.83.46Z"/></svg>