<svg xmlns="http://www.w3.org/2000/svg" viewBox="0 0 595.28 420.94"><defs><style>.cls-1{fill:none;stroke:#439a97;stroke-miterlimit:10;}.cls-2{fill:#c8dfcf;}.cls-3{fill:#439a97;}.cls-4{fill:#fff;}</style></defs><g id="Capa_3" data-name="Capa 3"><line class="cls-1" x1="9.25" y1="211.8" x2="584.77" y2="211.8"/><rect class="cls-2" x="236.8" y="82.34" width="258.91" height="258.91" transform="translate(-42.49 321.02) rotate(-45)"/><rect class="cls-2" x="104.62" y="82.34" width="258.91" height="258.91" transform="translate(-81.2 227.55) rotate(-45)"/><rect class="cls-3" x="163.25" y="69.73" width="284.14" height="284.14" transform="translate(-60.34 277.93) rotate(-45)"/><path class="cls-4" d="M385.24,246q-21,22.63-38.32,22.64-10.51,0-16-10.15t-5.49-27.14q0-13.14,5.4-36.15t13.94-38.7l5.45-9.76a108,108,0,0,0-18.31,25.5q-7.14,13.84-17,38.73t-15,33.91a103.16,103.16,0,0,1-9.72,14.69q-4.65,5.69-8.26,7.37t-12.63,1.7c-2.32,0-3.48-.63-3.48-1.88q0-.19,1.25-5.92t2.53-18.36q1.29-12.63,1.86-42.92t8.83-51.88q-8.85,10-18.05,46.77l-2.36,9.2q-9.67,38.22-22.18,51.6t-24.54,13.39a19.83,19.83,0,0,1-13.07-4.7q-5.64-4.69-5.64-10.8,0-4.69,6.77-10.52t8.55-5.82a2.68,2.68,0,0,1,2.71,1.41,41.31,41.31,0,0,1,1.7,7.75c.69,4.22,1.74,7,3.15,8.26a7.63,7.63,0,0,0,5.32,1.93q7.26,0,16-14.51t16-44.85l2.73-11.36a177.06,177.06,0,0,1,6.5-22.16,93.2,93.2,0,0,1,8.48-16.53q7.62-11.84,9.36-12.63a24.45,24.45,0,0,1,6.53-1.32,90.28,90.28,0,0,1,9.58-.51c1.25,0,1.88.72,1.88,2.16a30.23,30.23,0,0,1-.59,4.22,178.1,178.1,0,0,0-1.76,26.39l.19,25.17q.18,32.86-5.26,53.06,5-6,14.46-31,13.71-35.4,25-53.16a101,101,0,0,1,12.91-16.38q7.56-7.84,10.47-8.41a93.52,93.52,0,0,1,16.81-1.88c1.69,0,2.54.47,2.54,1.41q0,2-3.09,8.83-7.31,16.55-13.63,44.71t-6.38,44.88q0,18.89,11.55,18.88,9.39,0,22.35-16Z"/></g></svg>